VotoSerifGX-CondensedBoldDisplay.ufo
<glyph name="J" format="2">
  <advance width="312"/>
  <unicode hex="004A"/>
  <anchor x="113" y="-240" name="bottom"/>
  <anchor x="163" y="714" name="top"/>
  <anchor x="278" y="714" name="topright"/>
  <outline>
    <contour>
      <point x="-17" y="-240" type="line"/>
      <point x="20" y="-240" type="line" smooth="yes"/>
      <point x="124" y="-240"/>
      <point x="234" y="-183"/>
      <point x="234" y="-3" type="curve" smooth="yes"/>
      <point x="234" y="644" type="line" smooth="yes"/>
      <point x="234" y="692"/>
      <point x="232" y="704"/>
      <point x="262" y="704" type="curve" smooth="yes"/>
      <point x="300" y="704" type="line"/>
      <point x="300" y="714" type="line"/>
      <point x="22" y="714" type="line"/>
      <point x="22" y="704" type="line"/>
      <point x="61" y="704" type="line" smooth="yes"/>
      <point x="90" y="704"/>
      <point x="89" y="694"/>
      <point x="89" y="646" type="curve" smooth="yes"/>
      <point x="89" y="-52" type="line" smooth="yes"/>
      <point x="89" y="-150"/>
      <point x="73" y="-230"/>
      <point x="0" y="-230" type="curve" smooth="yes"/>
      <point x="-17" y="-230" type="line"/>
    </contour>
  </outline>
</glyph>
<glyph name="M" format="2">
  <advance width="695"/>
  <unicode hex="004D"/>
  <anchor x="348" y="0" name="bottom"/>
  <anchor x="348" y="714" name="top"/>
  <anchor x="675" y="714" name="topright"/>
  <outline>
    <contour>
      <point x="16" y="0" type="line"/>
      <point x="204" y="0" type="line"/>
      <point x="204" y="10" type="line"/>
      <point x="166" y="10" type="line" smooth="yes"/>
      <point x="132" y="10"/>
      <point x="111" y="17"/>
      <point x="111" y="75" type="curve" smooth="yes"/>
      <point x="111" y="678" type="line"/>
      <point x="238" y="0" type="line"/>
      <point x="342" y="0" type="line"/>
      <point x="472" y="688" type="line"/>
      <point x="472" y="76" type="line" smooth="yes"/>
      <point x="472" y="24"/>
      <point x="462" y="10"/>
      <point x="432" y="10" type="curve" smooth="yes"/>
      <point x="420" y="10" type="line"/>
      <point x="420" y="0" type="line"/>
      <point x="680" y="0" type="line"/>
      <point x="680" y="10" type="line"/>
      <point x="651" y="10" type="line" smooth="yes"/>
      <point x="626" y="10"/>
      <point x="616" y="24"/>
      <point x="616" y="67" type="curve" smooth="yes"/>
      <point x="616" y="648" type="line" smooth="yes"/>
      <point x="616" y="690"/>
      <point x="631" y="704"/>
      <point x="642" y="704" type="curve" smooth="yes"/>
      <point x="680" y="704" type="line"/>
      <point x="680" y="714" type="line"/>
      <point x="466" y="714" type="line"/>
      <point x="333" y="57" type="line"/>
      <point x="220" y="714" type="line"/>
      <point x="16" y="714" type="line"/>
      <point x="16" y="704" type="line"/>
      <point x="70" y="704" type="line" smooth="yes"/>
      <point x="86" y="704"/>
      <point x="101" y="690"/>
      <point x="101" y="644" type="curve" smooth="yes"/>
      <point x="101" y="70" type="line" smooth="yes"/>
      <point x="101" y="23"/>
      <point x="86" y="10"/>
      <point x="59" y="10" type="curve" smooth="yes"/>
      <point x="16" y="10" type="line"/>
    </contour>
  </outline>
</glyph>
<glyph name="Z" format="2">
  <advance width="521"/>
  <unicode hex="005A"/>
  <anchor x="249" y="0" name="bottom"/>
  <anchor x="249" y="714" name="top"/>
  <anchor x="489" y="714" name="topright"/>
  <outline>
    <contour>
      <point x="28" y="0" type="line"/>
      <point x="482" y="0" type="line"/>
      <point x="488" y="191" type="line"/>
      <point x="478" y="191" type="line"/>
      <point x="474" y="123" type="line" smooth="yes"/>
      <point x="470" y="46"/>
      <point x="425" y="10"/>
      <point x="334" y="10" type="curve" smooth="yes"/>
      <point x="187" y="10" type="line"/>
      <point x="470" y="704" type="line"/>
      <point x="470" y="714" type="line"/>
      <point x="53" y="714" type="line"/>
      <point x="47" y="523" type="line"/>
      <point x="58" y="523" type="line"/>
      <point x="61" y="591" type="line" smooth="yes"/>
      <point x="62" y="668"/>
      <point x="107" y="704"/>
      <point x="201" y="704" type="curve" smooth="yes"/>
      <point x="311" y="704" type="line"/>
      <point x="28" y="10" type="line"/>
    </contour>
  </outline>
</glyph>
<glyph name="Thorn" format="2">
  <advance width="480"/>
  <unicode hex="00DE"/>
  <anchor x="240" y="0" name="bottom"/>
  <anchor x="240" y="714" name="top"/>
  <outline>
    <contour>
      <point x="16" y="0" type="line"/>
      <point x="294" y="0" type="line"/>
      <point x="294" y="10" type="line"/>
      <point x="254" y="10" type="line" smooth="yes"/>
      <point x="241" y="10"/>
      <point x="228" y="27"/>
      <point x="228" y="69" type="curve" smooth="yes"/>
      <point x="228" y="143" type="line"/>
      <point x="235" y="143" type="line" smooth="yes"/>
      <point x="401" y="143"/>
      <point x="463" y="252"/>
      <point x="463" y="371" type="curve" smooth="yes"/>
      <point x="463" y="501"/>
      <point x="395" y="583"/>
      <point x="250" y="583" type="curve" smooth="yes"/>
      <point x="228" y="583" type="line"/>
      <point x="228" y="645" type="line" smooth="yes"/>
      <point x="228" y="690"/>
      <point x="237" y="704"/>
      <point x="254" y="704" type="curve" smooth="yes"/>
      <point x="294" y="704" type="line"/>
      <point x="294" y="714" type="line"/>
      <point x="16" y="714" type="line"/>
      <point x="16" y="704" type="line"/>
      <point x="54" y="704" type="line" smooth="yes"/>
      <point x="65" y="704"/>
      <point x="81" y="690"/>
      <point x="81" y="644" type="curve" smooth="yes"/>
      <point x="81" y="67" type="line" smooth="yes"/>
      <point x="81" y="24"/>
      <point x="65" y="10"/>
      <point x="54" y="10" type="curve" smooth="yes"/>
      <point x="16" y="10" type="line"/>
    </contour>
    <contour>
      <point x="228" y="153" type="line"/>
      <point x="228" y="573" type="line"/>
      <point x="238" y="573" type="line" smooth="yes"/>
      <point x="289" y="573"/>
      <point x="309" y="517"/>
      <point x="309" y="369" type="curve" smooth="yes"/>
      <point x="309" y="212"/>
      <point x="288" y="153"/>
      <point x="237" y="153" type="curve" smooth="yes"/>
    </contour>
  </outline>
</glyph>
<glyph name="longs" format="2">
  <advance width="304"/>
  <unicode hex="017F"/>
  <anchor x="152" y="0" name="bottom"/>
  <anchor x="215" y="770" name="top"/>
  <outline>
    <contour>
      <point x="1" y="0" type="line"/>
      <point x="294" y="0" type="line"/>
      <point x="294" y="10" type="line"/>
      <point x="255" y="10" type="line" smooth="yes"/>
      <point x="228" y="10"/>
      <point x="209" y="26"/>
      <point x="209" y="82" type="curve" smooth="yes"/>
      <point x="209" y="635" type="line" smooth="yes"/>
      <point x="209" y="729"/>
      <point x="215" y="760"/>
      <point x="241" y="760" type="curve" smooth="yes"/>
      <point x="262" y="760"/>
      <point x="272" y="730"/>
      <point x="272" y="631" type="curve"/>
      <point x="339" y="631"/>
      <point x="367" y="651"/>
      <point x="367" y="690" type="curve" smooth="yes"/>
      <point x="367" y="729"/>
      <point x="344" y="770"/>
      <point x="236" y="770" type="curve" smooth="yes"/>
      <point x="119" y="770"/>
      <point x="68" y="698"/>
      <point x="68" y="573" type="curve" smooth="yes"/>
      <point x="68" y="82" type="line" smooth="yes"/>
      <point x="68" y="24"/>
      <point x="51" y="10"/>
      <point x="24" y="10" type="curve" smooth="yes"/>
      <point x="1" y="10" type="line"/>
    </contour>
  </outline>
</glyph>
<glyph name="uni0185" format="2">
  <advance width="494"/>
  <unicode hex="0185"/>
  <anchor x="248" y="0" name="bottom"/>
  <anchor x="248" y="760" name="top"/>
  <outline>
    <contour>
      <point x="266" y="-10" type="curve" smooth="yes"/>
      <point x="386" y="-10"/>
      <point x="460" y="93"/>
      <point x="460" y="264" type="curve" smooth="yes"/>
      <point x="460" y="464"/>
      <point x="400" y="547"/>
      <point x="304" y="547" type="curve" smooth="yes"/>
      <point x="242" y="547"/>
      <point x="220" y="526"/>
      <point x="210" y="473" type="curve"/>
      <point x="208" y="473" type="line"/>
      <point x="209" y="523"/>
      <point x="209" y="544"/>
      <point x="209" y="581" type="curve" smooth="yes"/>
      <point x="209" y="760" type="line"/>
      <point x="11" y="760" type="line"/>
      <point x="11" y="750" type="line"/>
      <point x="12" y="750" type="line" smooth="yes"/>
      <point x="39" y="750"/>
      <point x="67" y="746"/>
      <point x="67" y="692" type="curve" smooth="yes"/>
      <point x="67" y="262" type="line" smooth="yes"/>
      <point x="67" y="73"/>
      <point x="127" y="-10"/>
    </contour>
    <contour>
      <point x="260" y="0" type="curve" smooth="yes"/>
      <point x="219" y="0"/>
      <point x="209" y="51"/>
      <point x="209" y="261" type="curve" smooth="yes"/>
      <point x="209" y="438"/>
      <point x="216" y="532"/>
      <point x="264" y="532" type="curve" smooth="yes"/>
      <point x="305" y="532"/>
      <point x="316" y="468"/>
      <point x="316" y="258" type="curve" smooth="yes"/>
      <point x="316" y="51"/>
      <point x="305" y="0"/>
    </contour>
  </outline>
</glyph>
<glyph name="uni018C" format="2">
  <advance width="488"/>
  <unicode hex="018C"/>
  <anchor x="245" y="0" name="bottom"/>
  <anchor x="245" y="760" name="top"/>
  <outline>
    <contour>
      <point x="182" y="-10" type="curve" smooth="yes"/>
      <point x="253" y="-10"/>
      <point x="269" y="18"/>
      <point x="276" y="57" type="curve"/>
      <point x="278" y="57" type="line"/>
      <point x="278" y="0" type="line"/>
      <point x="479" y="0" type="line"/>
      <point x="479" y="10" type="line"/>
      <point x="471" y="10" type="line" smooth="yes"/>
      <point x="425" y="10"/>
      <point x="419" y="32"/>
      <point x="419" y="96" type="curve" smooth="yes"/>
      <point x="419" y="760" type="line"/>
      <point x="72" y="760" type="line"/>
      <point x="66" y="598" type="line"/>
      <point x="79" y="598" type="line"/>
      <point x="82" y="635" type="line" smooth="yes"/>
      <point x="90" y="722"/>
      <point x="117" y="750"/>
      <point x="201" y="750" type="curve" smooth="yes"/>
      <point x="277" y="750" type="line"/>
      <point x="277" y="581" type="line" smooth="yes"/>
      <point x="277" y="544"/>
      <point x="277" y="523"/>
      <point x="278" y="473" type="curve"/>
      <point x="276" y="473" type="line"/>
      <point x="267" y="526"/>
      <point x="244" y="547"/>
      <point x="182" y="547" type="curve" smooth="yes"/>
      <point x="86" y="547"/>
      <point x="27" y="464"/>
      <point x="27" y="264" type="curve" smooth="yes"/>
      <point x="27" y="68"/>
      <point x="86" y="-10"/>
    </contour>
    <contour>
      <point x="221" y="9" type="curve" smooth="yes"/>
      <point x="179" y="9"/>
      <point x="170" y="45"/>
      <point x="170" y="258" type="curve" smooth="yes"/>
      <point x="170" y="485"/>
      <point x="178" y="530"/>
      <point x="222" y="530" type="curve" smooth="yes"/>
      <point x="274" y="530"/>
      <point x="277" y="438"/>
      <point x="277" y="261" type="curve" smooth="yes"/>
      <point x="277" y="90"/>
      <point x="276" y="9"/>
    </contour>
  </outline>
</glyph>
<glyph name="uni0198" format="2">
  <advance width="549"/>
  <unicode hex="0198"/>
  <anchor x="275" y="0" name="bottom"/>
  <anchor x="275" y="714" name="top"/>
  <outline>
    <contour>
      <point x="16" y="0" type="line"/>
      <point x="336" y="0" type="line"/>
      <point x="336" y="10" type="line"/>
      <point x="282" y="10" type="line" smooth="yes"/>
      <point x="233" y="10"/>
      <point x="228" y="25"/>
      <point x="228" y="86" type="curve" smooth="yes"/>
      <point x="228" y="305" type="line"/>
      <point x="241" y="325" type="line"/>
      <point x="357" y="66" type="line" smooth="yes"/>
      <point x="372" y="27"/>
      <point x="395" y="0"/>
      <point x="528" y="0" type="curve" smooth="yes"/>
      <point x="564" y="0" type="line"/>
      <point x="564" y="10" type="line"/>
      <point x="562" y="10" type="line" smooth="yes"/>
      <point x="555" y="10"/>
      <point x="553" y="12"/>
      <point x="472" y="158" type="curve" smooth="yes"/>
      <point x="318" y="457" type="line"/>
      <point x="420" y="608" type="line" smooth="yes"/>
      <point x="428" y="627"/>
      <point x="468" y="643"/>
      <point x="485" y="643" type="curve" smooth="yes"/>
      <point x="508" y="643"/>
      <point x="534" y="621"/>
      <point x="541" y="581" type="curve"/>
      <point x="558" y="581"/>
      <point x="568" y="614"/>
      <point x="568" y="647" type="curve" smooth="yes"/>
      <point x="568" y="687"/>
      <point x="546" y="722"/>
      <point x="500" y="722" type="curve" smooth="yes"/>
      <point x="471" y="722"/>
      <point x="446" y="704"/>
      <point x="479" y="728" type="curve" smooth="yes"/>
      <point x="228" y="321" type="line"/>
      <point x="228" y="628" type="line" smooth="yes"/>
      <point x="228" y="689"/>
      <point x="238" y="704"/>
      <point x="289" y="704" type="curve" smooth="yes"/>
      <point x="279" y="704" type="line"/>
      <point x="279" y="714" type="line"/>
      <point x="16" y="714" type="line"/>
      <point x="16" y="704" type="line"/>
      <point x="25" y="704" type="line" smooth="yes"/>
      <point x="73" y="704"/>
      <point x="81" y="690"/>
      <point x="81" y="634" type="curve" smooth="yes"/>
      <point x="81" y="77" type="line" smooth="yes"/>
      <point x="81" y="23"/>
      <point x="76" y="10"/>
      <point x="29" y="10" type="curve" smooth="yes"/>
      <point x="16" y="10" type="line"/>
    </contour>
  </outline>
</glyph>
<glyph name="uni019B" format="2">
  <advance width="431"/>
  <unicode hex="019B"/>
  <anchor x="216" y="0" name="bottom"/>
  <anchor x="216" y="764" name="top"/>
  <outline>
    <contour>
      <point x="-4" y="0" type="line"/>
      <point x="141" y="0" type="line"/>
      <point x="240" y="314" type="line" smooth="yes"/>
      <point x="245" y="333"/>
      <point x="253" y="361"/>
      <point x="261" y="391" type="curve"/>
      <point x="263" y="391" type="line"/>
      <point x="280" y="312"/>
      <point x="304" y="229"/>
      <point x="314" y="192" type="curve" smooth="yes"/>
      <point x="350" y="46"/>
      <point x="376" y="0"/>
      <point x="425" y="0" type="curve" smooth="yes"/>
      <point x="428" y="0" type="line"/>
      <point x="428" y="42" type="line"/>
      <point x="419" y="42" type="line" smooth="yes"/>
      <point x="375" y="42"/>
      <point x="352" y="85"/>
      <point x="324" y="197" type="curve" smooth="yes"/>
      <point x="224" y="586" type="line" smooth="yes"/>
      <point x="219" y="605"/>
      <point x="214" y="625"/>
      <point x="209" y="640" type="curve"/>
      <point x="321" y="725" type="line"/>
      <point x="321" y="737" type="line"/>
      <point x="206" y="651" type="line"/>
      <point x="176" y="738"/>
      <point x="142" y="770"/>
      <point x="82" y="770" type="curve" smooth="yes"/>
      <point x="18" y="770"/>
      <point x="10" y="741"/>
      <point x="10" y="709" type="curve" smooth="yes"/>
      <point x="10" y="698"/>
      <point x="14" y="685"/>
      <point x="18" y="680" type="curve"/>
      <point x="34" y="702"/>
      <point x="67" y="718"/>
      <point x="97" y="718" type="curve" smooth="yes"/>
      <point x="130" y="718"/>
      <point x="172" y="697"/>
      <point x="199" y="644" type="curve"/>
      <point x="99" y="568" type="line"/>
      <point x="99" y="556" type="line"/>
      <point x="203" y="636" type="line"/>
      <point x="206" y="622"/>
      <point x="209" y="607"/>
      <point x="212" y="591" type="curve"/>
    </contour>
  </outline>
</glyph>
<glyph name="ohorn" format="2">
  <advance width="540"/>
  <unicode hex="01A1"/>
  <anchor x="270" y="0" name="bottom"/>
  <anchor x="270" y="536" name="top"/>
  <outline>
    <contour>
      <point x="230" y="-10" type="curve" smooth="yes"/>
      <point x="364" y="-10"/>
      <point x="433" y="81"/>
      <point x="433" y="269" type="curve" smooth="yes"/>
      <point x="433" y="304"/>
      <point x="431" y="336"/>
      <point x="425" y="365" type="curve"/>
      <point x="493" y="389"/>
      <point x="547" y="446"/>
      <point x="547" y="532" type="curve" smooth="yes"/>
      <point x="547" y="597"/>
      <point x="518" y="628"/>
      <point x="483" y="628" type="curve" smooth="yes"/>
      <point x="451" y="628"/>
      <point x="428" y="604"/>
      <point x="428" y="571" type="curve" smooth="yes"/>
      <point x="428" y="515"/>
      <point x="493" y="538"/>
      <point x="493" y="465" type="curve" smooth="yes"/>
      <point x="493" y="402"/>
      <point x="441" y="380"/>
      <point x="423" y="375" type="curve"/>
      <point x="397" y="492"/>
      <point x="329" y="549"/>
      <point x="233" y="549" type="curve" smooth="yes"/>
      <point x="99" y="549"/>
      <point x="29" y="457"/>
      <point x="29" y="269" type="curve" smooth="yes"/>
      <point x="29" y="81"/>
      <point x="104" y="-10"/>
    </contour>
    <contour>
      <point x="232" y="0" type="curve" smooth="yes"/>
      <point x="188" y="0"/>
      <point x="174" y="49"/>
      <point x="174" y="269" type="curve" smooth="yes"/>
      <point x="174" y="491"/>
      <point x="188" y="539"/>
      <point x="231" y="539" type="curve" smooth="yes"/>
      <point x="276" y="539"/>
      <point x="289" y="491"/>
      <point x="289" y="269" type="curve" smooth="yes"/>
      <point x="289" y="49"/>
      <point x="275" y="0"/>
    </contour>
  </outline>
</glyph>
<glyph name="uni01A3" format="2">
  <advance width="732"/>
  <unicode hex="01A3"/>
  <anchor x="366" y="-240" name="bottom"/>
  <anchor x="366" y="536" name="top"/>
  <outline>
    <contour>
      <point x="523" y="-240" type="line"/>
      <point x="708" y="-240" type="line"/>
      <point x="708" y="-230" type="line"/>
      <point x="706" y="-230" type="line" smooth="yes"/>
      <point x="673" y="-230"/>
      <point x="665" y="-208"/>
      <point x="665" y="-160" type="curve" smooth="yes"/>
      <point x="665" y="346" type="line" smooth="yes"/>
      <point x="665" y="494"/>
      <point x="624" y="549"/>
      <point x="527" y="549" type="curve" smooth="yes"/>
      <point x="454" y="549"/>
      <point x="417" y="506"/>
      <point x="397" y="436" type="curve"/>
      <point x="396" y="436" type="line"/>
      <point x="369" y="511"/>
      <point x="313" y="549"/>
      <point x="228" y="549" type="curve" smooth="yes"/>
      <point x="94" y="549"/>
      <point x="29" y="459"/>
      <point x="29" y="269" type="curve" smooth="yes"/>
      <point x="29" y="81"/>
      <point x="103" y="-10"/>
      <point x="224" y="-10" type="curve" smooth="yes"/>
      <point x="355" y="-10"/>
      <point x="422" y="80"/>
      <point x="422" y="268" type="curve" smooth="yes"/>
      <point x="422" y="393" type="line" smooth="yes"/>
      <point x="422" y="478"/>
      <point x="453" y="527"/>
      <point x="479" y="527" type="curve" smooth="yes"/>
      <point x="517" y="527"/>
      <point x="523" y="487"/>
      <point x="523" y="405" type="curve" smooth="yes"/>
    </contour>
    <contour>
      <point x="225" y="0" type="curve" smooth="yes"/>
      <point x="185" y="0"/>
      <point x="174" y="48"/>
      <point x="174" y="271" type="curve" smooth="yes"/>
      <point x="174" y="491"/>
      <point x="185" y="539"/>
      <point x="225" y="539" type="curve" smooth="yes"/>
      <point x="266" y="539"/>
      <point x="279" y="491"/>
      <point x="279" y="271" type="curve" smooth="yes"/>
      <point x="279" y="48"/>
      <point x="266" y="0"/>
    </contour>
  </outline>
</glyph>
<glyph name="uni01AC" format="2">
  <advance width="496"/>
  <unicode hex="01AC"/>
  <anchor x="248" y="0" name="bottom"/>
  <anchor x="248" y="714" name="top"/>
  <outline>
    <contour>
      <point x="109" y="0" type="line"/>
      <point x="391" y="0" type="line"/>
      <point x="391" y="10" type="line"/>
      <point x="369" y="10" type="line" smooth="yes"/>
      <point x="327" y="10"/>
      <point x="324" y="30"/>
      <point x="324" y="75" type="curve" smooth="yes"/>
      <point x="324" y="704" type="line"/>
      <point x="347" y="704" type="line" smooth="yes"/>
      <point x="442" y="704"/>
      <point x="474" y="671"/>
      <point x="482" y="568" type="curve" smooth="yes"/>
      <point x="486" y="521" type="line"/>
      <point x="496" y="521" type="line"/>
      <point x="489" y="714" type="line"/>
      <point x="170" y="714" type="line" smooth="yes"/>
      <point x="53" y="714"/>
      <point x="6" y="648"/>
      <point x="6" y="564" type="curve" smooth="yes"/>
      <point x="6" y="513"/>
      <point x="29" y="477"/>
      <point x="70" y="477" type="curve" smooth="yes"/>
      <point x="91" y="477"/>
      <point x="103" y="486"/>
      <point x="118" y="498" type="curve"/>
      <point x="105" y="511"/>
      <point x="97" y="547"/>
      <point x="97" y="587" type="curve" smooth="yes"/>
      <point x="97" y="642"/>
      <point x="114" y="704"/>
      <point x="162" y="704" type="curve" smooth="yes"/>
      <point x="177" y="704" type="line"/>
      <point x="177" y="76" type="line" smooth="yes"/>
      <point x="177" y="31"/>
      <point x="173" y="10"/>
      <point x="133" y="10" type="curve" smooth="yes"/>
      <point x="109" y="10" type="line"/>
    </contour>
  </outline>
</glyph>
<glyph name="uni01BD" format="2">
  <advance width="382"/>
  <unicode hex="01BD"/>
  <anchor x="191" y="0" name="bottom"/>
  <anchor x="191" y="536" name="top"/>
  <outline>
    <contour>
      <point x="183" y="-10" type="curve" smooth="yes"/>
      <point x="255" y="-10"/>
      <point x="352" y="49"/>
      <point x="352" y="155" type="curve" smooth="yes"/>
      <point x="352" y="248"/>
      <point x="287" y="300"/>
      <point x="201" y="300" type="curve" smooth="yes"/>
      <point x="201" y="300" type="line"/>
      <point x="201" y="526" type="line"/>
      <point x="205" y="526" type="line" smooth="yes"/>
      <point x="288" y="526"/>
      <point x="317" y="503"/>
      <point x="325" y="425" type="curve" smooth="yes"/>
      <point x="327" y="406" type="line"/>
      <point x="337" y="406" type="line"/>
      <point x="332" y="536" type="line"/>
      <point x="24" y="536" type="line"/>
      <point x="24" y="526" type="line"/>
      <point x="52" y="526"/>
      <point x="59" y="509"/>
      <point x="59" y="477" type="curve" smooth="yes"/>
      <point x="59" y="290" type="line"/>
      <point x="98" y="290" type="line" smooth="yes"/>
      <point x="184" y="290"/>
      <point x="212" y="255"/>
      <point x="212" y="145" type="curve" smooth="yes"/>
      <point x="212" y="36"/>
      <point x="206" y="0"/>
      <point x="159" y="0" type="curve" smooth="yes"/>
      <point x="110" y="0"/>
      <point x="87" y="41"/>
      <point x="87" y="176" type="curve"/>
      <point x="45" y="175"/>
      <point x="22" y="148"/>
      <point x="22" y="102" type="curve" smooth="yes"/>
      <point x="22" y="35"/>
      <point x="64" y="-10"/>
    </contour>
  </outline>
</glyph>
<glyph name="uni01BE" format="2">
  <advance width="381"/>
  <unicode hex="01BE"/>
  <anchor x="163" y="0" name="bottom"/>
  <anchor x="163" y="659" name="top"/>
  <outline>
    <contour>
      <point x="174" y="-10" type="curve" smooth="yes"/>
      <point x="294" y="-10"/>
      <point x="354" y="45"/>
      <point x="354" y="164" type="curve" smooth="yes"/>
      <point x="354" y="248"/>
      <point x="318" y="279"/>
      <point x="286" y="305" type="curve" smooth="yes"/>
      <point x="257" y="328"/>
      <point x="230" y="351"/>
      <point x="230" y="413" type="curve" smooth="yes"/>
      <point x="230" y="526" type="line"/>
      <point x="321" y="526" type="line"/>
      <point x="321" y="536" type="line"/>
      <point x="230" y="536" type="line"/>
      <point x="230" y="660" type="line"/>
      <point x="220" y="660" type="line"/>
      <point x="204" y="623"/>
      <point x="178" y="587"/>
      <point x="147" y="566" type="curve" smooth="yes"/>
      <point x="120" y="546"/>
      <point x="78" y="536"/>
      <point x="35" y="536" type="curve"/>
      <point x="35" y="526" type="line"/>
      <point x="89" y="526" type="line"/>
      <point x="89" y="369" type="line" smooth="yes"/>
      <point x="89" y="289"/>
      <point x="124" y="258"/>
      <point x="167" y="228" type="curve" smooth="yes"/>
      <point x="209" y="198"/>
      <point x="249" y="173"/>
      <point x="249" y="101" type="curve" smooth="yes"/>
      <point x="249" y="51"/>
      <point x="232" y="0"/>
      <point x="178" y="0" type="curve" smooth="yes"/>
      <point x="123" y="0"/>
      <point x="100" y="46"/>
      <point x="100" y="178" type="curve"/>
      <point x="69" y="178"/>
      <point x="26" y="166"/>
      <point x="26" y="106" type="curve" smooth="yes"/>
      <point x="26" y="29"/>
      <point x="75" y="-10"/>
    </contour>
  </outline>
</glyph>
<glyph name="uni0235" format="2">
  <advance width="443"/>
  <unicode hex="0235"/>
  <anchor x="221" y="0" name="bottom"/>
  <anchor x="221" y="536" name="top"/>
  <outline>
    <contour>
      <point x="312" y="-7" type="line"/>
      <point x="313" y="10"/>
      <point x="313" y="28"/>
      <point x="314" y="49" type="curve"/>
      <point x="339" y="13"/>
      <point x="377" y="-9"/>
      <point x="447" y="-9" type="curve" smooth="yes"/>
      <point x="515" y="-9"/>
      <point x="568" y="35"/>
      <point x="568" y="111" type="curve" smooth="yes"/>
      <point x="568" y="186"/>
      <point x="527" y="232"/>
      <point x="460" y="232" type="curve" smooth="yes"/>
      <point x="448" y="232"/>
      <point x="440" y="231"/>
      <point x="431" y="228" type="curve"/>
      <point x="431" y="353" type="line" smooth="yes"/>
      <point x="431" y="484"/>
      <point x="394" y="549"/>
      <point x="317" y="549" type="curve" smooth="yes"/>
      <point x="264" y="549"/>
      <point x="221" y="511"/>
      <point x="205" y="449" type="curve"/>
      <point x="205" y="449" type="line"/>
      <point x="205" y="536" type="line"/>
      <point x="12" y="536" type="line"/>
      <point x="12" y="526" type="line"/>
      <point x="13" y="526" type="line" smooth="yes"/>
      <point x="54" y="526"/>
      <point x="62" y="507"/>
      <point x="62" y="466" type="curve" smooth="yes"/>
      <point x="62" y="74" type="line" smooth="yes"/>
      <point x="62" y="31"/>
      <point x="55" y="10"/>
      <point x="10" y="10" type="curve" smooth="yes"/>
      <point x="9" y="10" type="line"/>
      <point x="9" y="0" type="line"/>
      <point x="266" y="0" type="line"/>
      <point x="266" y="10" type="line"/>
      <point x="265" y="10" type="line" smooth="yes"/>
      <point x="213" y="10"/>
      <point x="204" y="30"/>
      <point x="204" y="76" type="curve" smooth="yes"/>
      <point x="204" y="320" type="line" smooth="yes"/>
      <point x="204" y="454"/>
      <point x="225" y="490"/>
      <point x="253" y="490" type="curve" smooth="yes"/>
      <point x="268" y="490"/>
      <point x="290" y="483"/>
      <point x="290" y="396" type="curve" smooth="yes"/>
      <point x="290" y="148" type="line" smooth="yes"/>
      <point x="290" y="115"/>
      <point x="295" y="85"/>
      <point x="308" y="60" type="curve"/>
      <point x="307" y="38"/>
      <point x="305" y="16"/>
      <point x="303" y="-5" type="curve"/>
    </contour>
    <contour>
      <point x="493" y="24" type="curve" smooth="yes"/>
      <point x="446" y="24"/>
      <point x="431" y="64"/>
      <point x="431" y="195" type="curve" smooth="yes"/>
      <point x="431" y="218" type="line"/>
      <point x="431" y="221"/>
      <point x="448" y="222"/>
      <point x="460" y="222" type="curve" smooth="yes"/>
      <point x="520" y="222"/>
      <point x="557" y="180"/>
      <point x="557" y="111" type="curve" smooth="yes"/>
      <point x="557" y="56"/>
      <point x="534" y="24"/>
    </contour>
  </outline>
</glyph>
<glyph name="uni0240" format="2">
  <advance width="390"/>
  <unicode hex="0240"/>
  <anchor x="196" y="-233" name="bottom"/>
  <anchor x="196" y="536" name="top"/>
  <outline>
    <contour>
      <point x="306" y="-247" type="curve" smooth="yes"/>
      <point x="361" y="-247"/>
      <point x="389" y="-205"/>
      <point x="389" y="-156" type="curve" smooth="yes"/>
      <point x="389" y="-110"/>
      <point x="373" y="-94"/>
      <point x="342" y="-93" type="curve"/>
      <point x="342" y="-147"/>
      <point x="328" y="-172"/>
      <point x="299" y="-172" type="curve" smooth="yes"/>
      <point x="267" y="-172"/>
      <point x="245" y="-141"/>
      <point x="226" y="-108" type="curve" smooth="yes"/>
      <point x="205" y="-71"/>
      <point x="177" y="-23"/>
      <point x="139" y="0" type="curve"/>
      <point x="376" y="526" type="line"/>
      <point x="376" y="536" type="line"/>
      <point x="36" y="536" type="line"/>
      <point x="25" y="384" type="line"/>
      <point x="35" y="384" type="line"/>
      <point x="38" y="403" type="line" smooth="yes"/>
      <point x="52" y="489"/>
      <point x="98" y="526"/>
      <point x="186" y="526" type="curve" smooth="yes"/>
      <point x="232" y="526" type="line"/>
      <point x="0" y="10" type="line"/>
      <point x="0" y="0" type="line"/>
      <point x="67" y="0" type="line" smooth="yes"/>
      <point x="149" y="0"/>
      <point x="187" y="-75"/>
      <point x="212" y="-139" type="curve" smooth="yes"/>
      <point x="235" y="-195"/>
      <point x="257" y="-247"/>
    </contour>
  </outline>
</glyph>
<glyph name="uni024B" format="2">
  <advance width="486"/>
  <unicode hex="024B"/>
  <anchor x="244" y="-240" name="bottom"/>
  <anchor x="244" y="536" name="top"/>
  <outline>
    <contour>
      <point x="412" y="-240" type="curve" smooth="yes"/>
      <point x="457" y="-240"/>
      <point x="483" y="-234"/>
      <point x="510" y="-224" type="curve"/>
      <point x="510" y="-214" type="line"/>
      <point x="494" y="-219"/>
      <point x="481" y="-222"/>
      <point x="471" y="-222" type="curve" smooth="yes"/>
      <point x="435" y="-222"/>
      <point x="419" y="-197"/>
      <point x="419" y="-131" type="curve" smooth="yes"/>
      <point x="419" y="468" type="line" smooth="yes"/>
      <point x="419" y="508"/>
      <point x="424" y="526"/>
      <point x="483" y="526" type="curve" smooth="yes"/>
      <point x="480" y="526" type="line"/>
      <point x="480" y="536" type="line"/>
      <point x="278" y="536" type="line"/>
      <point x="278" y="473" type="line"/>
      <point x="276" y="473" type="line"/>
      <point x="267" y="526"/>
      <point x="244" y="547"/>
      <point x="182" y="547" type="curve" smooth="yes"/>
      <point x="86" y="547"/>
      <point x="27" y="464"/>
      <point x="27" y="264" type="curve" smooth="yes"/>
      <point x="27" y="68"/>
      <point x="86" y="-10"/>
      <point x="182" y="-10" type="curve" smooth="yes"/>
      <point x="245" y="-10"/>
      <point x="261" y="21"/>
      <point x="276" y="74" type="curve"/>
      <point x="278" y="74" type="line"/>
      <point x="276" y="40"/>
      <point x="276" y="7"/>
      <point x="276" y="-46" type="curve" smooth="yes"/>
      <point x="276" y="-79" type="line" smooth="yes"/>
      <point x="276" y="-200"/>
      <point x="321" y="-240"/>
    </contour>
    <contour>
      <point x="216" y="9" type="curve" smooth="yes"/>
      <point x="179" y="9"/>
      <point x="170" y="45"/>
      <point x="170" y="258" type="curve" smooth="yes"/>
      <point x="170" y="485"/>
      <point x="178" y="532"/>
      <point x="222" y="532" type="curve" smooth="yes"/>
      <point x="270" y="532"/>
      <point x="277" y="438"/>
      <point x="277" y="261" type="curve" smooth="yes"/>
      <point x="277" y="90"/>
      <point x="257" y="9"/>
    </contour>
  </outline>
</glyph>
<glyph name="uni024E" format="2">
  <advance width="538"/>
  <unicode hex="024E"/>
  <anchor x="269" y="0" name="bottom"/>
  <anchor x="269" y="714" name="top"/>
  <anchor x="518" y="714" name="topright"/>
  <outline>
    <contour>
      <point x="11" y="510" type="line"/>
      <point x="528" y="510" type="line"/>
      <point x="528" y="520" type="line"/>
      <point x="11" y="520" type="line"/>
    </contour>
    <component base="Y"/>
  </outline>
</glyph>
<glyph name="uni025E" format="2">
  <advance width="457"/>
  <unicode hex="025E"/>
  <anchor x="228" y="0" name="bottom"/>
  <anchor x="228" y="536" name="top"/>
  <outline>
    <contour>
      <point x="240" y="-10" type="curve" smooth="yes"/>
      <point x="370" y="-10"/>
      <point x="429" y="85"/>
      <point x="429" y="165" type="curve" smooth="yes"/>
      <point x="429" y="243"/>
      <point x="377" y="278"/>
      <point x="304" y="280" type="curve"/>
      <point x="304" y="282" type="line"/>
      <point x="359" y="290"/>
      <point x="411" y="328"/>
      <point x="411" y="405" type="curve" smooth="yes"/>
      <point x="411" y="467"/>
      <point x="379" y="548"/>
      <point x="229" y="548" type="curve" smooth="yes"/>
      <point x="102" y="548"/>
      <point x="29" y="466"/>
      <point x="29" y="269" type="curve" smooth="yes"/>
      <point x="29" y="65"/>
      <point x="102" y="-10"/>
    </contour>
    <contour>
      <point x="234" y="0" type="curve" smooth="yes"/>
      <point x="187" y="0"/>
      <point x="174" y="62"/>
      <point x="174" y="269" type="curve" smooth="yes"/>
      <point x="174" y="480"/>
      <point x="184" y="538"/>
      <point x="227" y="538" type="curve" smooth="yes"/>
      <point x="268" y="538"/>
      <point x="279" y="508"/>
      <point x="279" y="402" type="curve" smooth="yes"/>
      <point x="279" y="297"/>
      <point x="266" y="280"/>
      <point x="239" y="280" type="curve" smooth="yes"/>
      <point x="217" y="280" type="line"/>
      <point x="217" y="269" type="line"/>
      <point x="236" y="269" type="line" smooth="yes"/>
      <point x="276" y="269"/>
      <point x="289" y="238"/>
      <point x="289" y="143" type="curve" smooth="yes"/>
      <point x="289" y="33"/>
      <point x="276" y="0"/>
    </contour>
  </outline>
</glyph>
<glyph name="uni0264" format="2">
  <advance width="495"/>
  <unicode hex="0264"/>
  <anchor x="247" y="0" name="bottom"/>
  <anchor x="247" y="536" name="top"/>
  <outline>
    <contour>
      <point x="225" y="-10" type="curve" smooth="yes"/>
      <point x="319" y="-10"/>
      <point x="361" y="48"/>
      <point x="361" y="145" type="curve" smooth="yes"/>
      <point x="361" y="224"/>
      <point x="325" y="327"/>
      <point x="271" y="409" type="curve"/>
      <point x="319" y="464"/>
      <point x="372" y="485"/>
      <point x="413" y="485" type="curve" smooth="yes"/>
      <point x="449" y="485"/>
      <point x="476" y="472"/>
      <point x="484" y="449" type="curve"/>
      <point x="486" y="454"/>
      <point x="487" y="464"/>
      <point x="487" y="478" type="curve" smooth="yes"/>
      <point x="487" y="526"/>
      <point x="455" y="546"/>
      <point x="418" y="546" type="curve" smooth="yes"/>
      <point x="364" y="546"/>
      <point x="322" y="499"/>
      <point x="265" y="418" type="curve"/>
      <point x="214" y="492"/>
      <point x="151" y="546"/>
      <point x="87" y="546" type="curve" smooth="yes"/>
      <point x="54" y="546"/>
      <point x="3" y="526"/>
      <point x="3" y="485" type="curve" smooth="yes"/>
      <point x="3" y="470"/>
      <point x="4" y="455"/>
      <point x="6" y="441" type="curve"/>
      <point x="15" y="448"/>
      <point x="9" y="449"/>
      <point x="25" y="449" type="curve" smooth="yes"/>
      <point x="78" y="449"/>
      <point x="138" y="384"/>
      <point x="185" y="308" type="curve"/>
      <point x="146" y="254"/>
      <point x="126" y="182"/>
      <point x="126" y="117" type="curve" smooth="yes"/>
      <point x="126" y="40"/>
      <point x="156" y="-10"/>
    </contour>
    <contour>
      <point x="193" y="17" type="curve" smooth="yes"/>
      <point x="157" y="17"/>
      <point x="134" y="56"/>
      <point x="134" y="121" type="curve" smooth="yes"/>
      <point x="134" y="183"/>
      <point x="154" y="251"/>
      <point x="191" y="299" type="curve"/>
      <point x="226" y="236"/>
      <point x="252" y="164"/>
      <point x="252" y="116" type="curve" smooth="yes"/>
      <point x="252" y="68"/>
      <point x="235" y="17"/>
    </contour>
  </outline>
</glyph>
<glyph name="uni02A2" format="2">
  <advance width="416"/>
  <unicode hex="02A2"/>
  <anchor x="209" y="0" name="bottom"/>
  <anchor x="209" y="766" name="top"/>
  <outline>
    <contour>
      <point x="85" y="0" type="line"/>
      <point x="363" y="0" type="line"/>
      <point x="363" y="10" type="line"/>
      <point x="361" y="10" type="line" smooth="yes"/>
      <point x="315" y="10"/>
      <point x="310" y="31"/>
      <point x="310" y="75" type="curve" smooth="yes"/>
      <point x="310" y="191" type="line"/>
      <point x="371" y="191" type="line"/>
      <point x="371" y="201" type="line"/>
      <point x="310" y="201" type="line"/>
      <point x="310" y="333" type="line"/>
      <point x="213" y="344"/>
      <point x="174" y="414"/>
      <point x="174" y="594" type="curve" smooth="yes"/>
      <point x="174" y="717"/>
      <point x="188" y="756"/>
      <point x="219" y="756" type="curve" smooth="yes"/>
      <point x="263" y="756"/>
      <point x="268" y="684"/>
      <point x="268" y="537" type="curve"/>
      <point x="360" y="537"/>
      <point x="404" y="564"/>
      <point x="404" y="627" type="curve" smooth="yes"/>
      <point x="404" y="720"/>
      <point x="318" y="766"/>
      <point x="194" y="766" type="curve" smooth="yes"/>
      <point x="124" y="766"/>
      <point x="19" y="695"/>
      <point x="19" y="565" type="curve" smooth="yes"/>
      <point x="19" y="431"/>
      <point x="87" y="371"/>
      <point x="136" y="348" type="curve"/>
      <point x="136" y="201" type="line"/>
      <point x="64" y="201" type="line"/>
      <point x="64" y="191" type="line"/>
      <point x="136" y="191" type="line"/>
      <point x="136" y="75" type="line" smooth="yes"/>
      <point x="136" y="31"/>
      <point x="131" y="10"/>
      <point x="85" y="10" type="curve" smooth="yes"/>
      <point x="85" y="10" type="line"/>
    </contour>
  </outline>
</glyph>
<glyph name="uni02C1" format="2">
  <advance width="259"/>
  <unicode hex="02C1"/>
  <outline>
    <contour>
      <point x="138" y="482" type="line"/>
      <point x="148" y="482" type="line"/>
      <point x="148" y="547" type="line"/>
      <point x="123" y="564"/>
      <point x="111" y="587"/>
      <point x="111" y="644" type="curve" smooth="yes"/>
      <point x="111" y="729"/>
      <point x="119" y="750"/>
      <point x="145" y="750" type="curve" smooth="yes"/>
      <point x="167" y="750"/>
      <point x="180" y="715"/>
      <point x="180" y="640" type="curve"/>
      <point x="218" y="640"/>
      <point x="241" y="654"/>
      <point x="241" y="687" type="curve" smooth="yes"/>
      <point x="241" y="728"/>
      <point x="199" y="760"/>
      <point x="140" y="760" type="curve" smooth="yes"/>
      <point x="64" y="760"/>
      <point x="24" y="722"/>
      <point x="24" y="659" type="curve" smooth="yes"/>
      <point x="24" y="587"/>
      <point x="66" y="560"/>
      <point x="138" y="543" type="curve"/>
    </contour>
  </outline>
</glyph>
<glyph name="uni02C8" format="2">
  <advance width="110"/>
  <unicode hex="02C8"/>
  <outline>
    <contour>
      <point x="40" y="587" type="line"/>
      <point x="70" y="587" type="line"/>
      <point x="70" y="760" type="line"/>
      <point x="40" y="760" type="line"/>
    </contour>
  </outline>
</glyph>
<glyph name="uni02CD" format="2">
  <advance width="290"/>
  <unicode hex="02CD"/>
  <outline>
    <contour>
      <point x="40" y="-133" type="line"/>
      <point x="248" y="-133" type="line"/>
      <point x="248" y="-113" type="line"/>
      <point x="40" y="-113" type="line"/>
    </contour>
  </outline>
</glyph>
<glyph name="breve" format="2">
  <advance width="332"/>
  <unicode hex="02D8"/>
  <outline>
    <contour>
      <point x="167" y="606" type="curve" smooth="yes"/>
      <point x="259" y="606"/>
      <point x="298" y="708"/>
      <point x="292" y="761" type="curve"/>
      <point x="282" y="761" type="line"/>
      <point x="276" y="713"/>
      <point x="252" y="692"/>
      <point x="167" y="692" type="curve" smooth="yes"/>
      <point x="80" y="692"/>
      <point x="54" y="713"/>
      <point x="50" y="761" type="curve"/>
      <point x="40" y="761" type="line"/>
      <point x="36" y="708"/>
      <point x="75" y="606"/>
    </contour>
  </outline>
</glyph>
<glyph name="ogonek" format="2">
  <advance width="269"/>
  <unicode hex="02DB"/>
  <outline>
    <contour>
      <point x="157" y="-240" type="curve" smooth="yes"/>
      <point x="178" y="-240"/>
      <point x="216" y="-234"/>
      <point x="229" y="-224" type="curve"/>
      <point x="229" y="-212" type="line"/>
      <point x="207" y="-218"/>
      <point x="187" y="-221"/>
      <point x="173" y="-221" type="curve" smooth="yes"/>
      <point x="130" y="-221"/>
      <point x="103" y="-193"/>
      <point x="103" y="-119" type="curve" smooth="yes"/>
      <point x="103" y="-32"/>
      <point x="140" y="-7"/>
      <point x="195" y="0" type="curve"/>
      <point x="166" y="0" type="line"/>
      <point x="45" y="-37"/>
      <point x="40" y="-91"/>
      <point x="40" y="-128" type="curve" smooth="yes"/>
      <point x="40" y="-195"/>
      <point x="92" y="-240"/>
    </contour>
  </outline>
</glyph>
<glyph name="rhotichookmod" format="2">
  <advance width="195"/>
  <unicode hex="02DE"/>
  <outline>
    <contour>
      <point x="106" y="167" type="curve" smooth="yes"/>
      <point x="142" y="167"/>
      <point x="195" y="191"/>
      <point x="195" y="233" type="curve" smooth="yes"/>
      <point x="195" y="250"/>
      <point x="186" y="271"/>
      <point x="173" y="279" type="curve"/>
      <point x="156" y="256"/>
      <point x="106" y="238"/>
      <point x="77" y="238" type="curve" smooth="yes"/>
      <point x="49" y="238"/>
      <point x="40" y="253"/>
      <point x="29" y="284" type="curve" smooth="yes"/>
      <point x="-9" y="396" type="line"/>
      <point x="-84" y="372" type="line"/>
      <point x="-81" y="363" type="line"/>
      <point x="-13" y="386" type="line"/>
      <point x="28" y="256" type="line" smooth="yes"/>
      <point x="48" y="195"/>
      <point x="68" y="167"/>
    </contour>
  </outline>
</glyph>
<glyph name="uni02F2" format="2">
  <advance width="260"/>
  <unicode hex="02F2"/>
  <outline>
    <contour>
      <point x="40" y="-241" type="line"/>
      <point x="46" y="-241" type="line"/>
      <point x="103" y="-192"/>
      <point x="167" y="-154"/>
      <point x="220" y="-130" type="curve"/>
      <point x="220" y="-95" type="line"/>
      <point x="167" y="-71"/>
      <point x="103" y="-31"/>
      <point x="46" y="18" type="curve"/>
      <point x="40" y="18" type="line"/>
      <point x="40" y="4" type="line"/>
      <point x="74" y="-46"/>
      <point x="106" y="-79"/>
      <point x="152" y="-112" type="curve"/>
      <point x="106" y="-145"/>
      <point x="74" y="-177"/>
      <point x="40" y="-227" type="curve"/>
    </contour>
  </outline>
</glyph>
<glyph name="hookretroflexbelowcomb" format="2">
  <unicode hex="0322"/>
  <anchor x="-49" y="0" name="_bottom"/>
  <anchor x="-49" y="-197" name="bottom"/>
  <outline>
    <contour>
      <point x="-28" y="-210" type="curve" smooth="yes"/>
      <point x="18" y="-210"/>
      <point x="37" y="-186"/>
      <point x="37" y="-145" type="curve" smooth="yes"/>
      <point x="37" y="-129"/>
      <point x="33" y="-114"/>
      <point x="28" y="-107" type="curve"/>
      <point x="22" y="-119"/>
      <point x="0" y="-125"/>
      <point x="-31" y="-125" type="curve" smooth="yes"/>
      <point x="-84" y="-125"/>
      <point x="-100" y="-107"/>
      <point x="-100" y="-44" type="curve" smooth="yes"/>
      <point x="-100" y="55" type="line"/>
      <point x="-110" y="55" type="line"/>
      <point x="-110" y="-34" type="line" smooth="yes"/>
      <point x="-110" y="-172"/>
      <point x="-86" y="-210"/>
    </contour>
  </outline>
</glyph>
<glyph name="brevebelowcomb" format="2">
  <unicode hex="032E"/>
  <anchor x="-2" y="0" name="_bottom"/>
  <anchor x="-2" y="-214" name="bottom"/>
  <outline>
    <contour>
      <point x="1" y="-214" type="curve" smooth="yes"/>
      <point x="93" y="-214"/>
      <point x="133" y="-113"/>
      <point x="127" y="-59" type="curve"/>
      <point x="117" y="-59" type="line"/>
      <point x="111" y="-107"/>
      <point x="87" y="-129"/>
      <point x="1" y="-129" type="curve" smooth="yes"/>
      <point x="-85" y="-129"/>
      <point x="-111" y="-107"/>
      <point x="-115" y="-59" type="curve"/>
      <point x="-125" y="-59" type="line"/>
      <point x="-129" y="-113"/>
      <point x="-90" y="-214"/>
    </contour>
  </outline>
</glyph>
<glyph name="slashshortoverlaycomb" format="2">
  <unicode hex="0337"/>
  <anchor x="-2" y="286" name="_center"/>
  <outline>
    <contour>
      <point x="-141" y="176" type="line"/>
      <point x="125" y="370" type="line"/>
      <point x="113" y="386" type="line"/>
      <point x="-152" y="191" type="line"/>
    </contour>
  </outline>
</glyph>
<glyph name="seagullbelowcomb" format="2">
  <unicode hex="033C"/>
  <anchor x="0" y="0" name="_bottom"/>
  <anchor x="0" y="-183" name="bottom"/>
  <outline>
    <contour>
      <point x="-115" y="-183" type="curve"/>
      <point x="-105" y="-183" type="line"/>
      <point x="-104" y="-134"/>
      <point x="-90" y="-113"/>
      <point x="-58" y="-113" type="curve" smooth="yes"/>
      <point x="-19" y="-113"/>
      <point x="-5" y="-134"/>
      <point x="-5" y="-183" type="curve"/>
      <point x="5" y="-183" type="line"/>
      <point x="5" y="-134"/>
      <point x="21" y="-113"/>
      <point x="53" y="-113" type="curve" smooth="yes"/>
      <point x="88" y="-113"/>
      <point x="104" y="-134"/>
      <point x="105" y="-183" type="curve"/>
      <point x="115" y="-183" type="line"/>
      <point x="113" y="-100"/>
      <point x="95" y="-65"/>
      <point x="56" y="-65" type="curve" smooth="yes"/>
      <point x="25" y="-65"/>
      <point x="8" y="-81"/>
      <point x="0" y="-119" type="curve"/>
      <point x="-8" y="-81"/>
      <point x="-25" y="-65"/>
      <point x="-56" y="-65" type="curve" smooth="yes"/>
      <point x="-95" y="-65"/>
      <point x="-113" y="-100"/>
    </contour>
  </outline>
</glyph>
<glyph name="koroniscomb" format="2">
  <unicode hex="0343"/>
  <anchor x="5" y="536" name="_top"/>
  <anchor x="5" y="714" name="top"/>
  <outline>
    <contour>
      <point x="-56" y="555" type="line"/>
      <point x="-46" y="555" type="line"/>
      <point x="-6" y="596"/>
      <point x="46" y="662"/>
      <point x="69" y="704" type="curve"/>
      <point x="69" y="714" type="line"/>
      <point x="-10" y="714" type="line"/>
      <point x="-21" y="653"/>
      <point x="-31" y="629"/>
      <point x="-56" y="565" type="curve"/>
    </contour>
  </outline>
</glyph>
<glyph name="lefthalfringabovecomb" format="2">
  <unicode hex="0351"/>
  <anchor x="1" y="536" name="_top"/>
  <anchor x="1" y="816" name="top"/>
  <outline>
    <contour>
      <point x="39" y="599" type="curve"/>
      <point x="39" y="609" type="line"/>
      <point x="-12" y="609"/>
      <point x="-42" y="646"/>
      <point x="-42" y="707" type="curve" smooth="yes"/>
      <point x="-42" y="769"/>
      <point x="-12" y="806"/>
      <point x="39" y="806" type="curve"/>
      <point x="39" y="816" type="line" smooth="yes"/>
      <point x="-23" y="816"/>
      <point x="-54" y="772"/>
      <point x="-54" y="707" type="curve" smooth="yes"/>
      <point x="-54" y="643"/>
      <point x="-23" y="599"/>
    </contour>
  </outline>
</glyph>
<glyph name="doublebrevebelowcomb" format="2">
  <unicode hex="035C"/>
  <anchor x="-185" y="0" name="_bottom"/>
  <anchor x="-2" y="-211" name="bottom"/>
  <outline>
    <contour>
      <point x="-2" y="-211" type="curve" smooth="yes"/>
      <point x="130" y="-211"/>
      <point x="219" y="-156"/>
      <point x="272" y="-30" type="curve"/>
      <point x="262" y="-30" type="line"/>
      <point x="207" y="-115"/>
      <point x="126" y="-160"/>
      <point x="-2" y="-160" type="curve" smooth="yes"/>
      <point x="-130" y="-160"/>
      <point x="-207" y="-115"/>
      <point x="-264" y="-30" type="curve"/>
      <point x="-274" y="-30" type="line"/>
      <point x="-222" y="-157"/>
      <point x="-132" y="-211"/>
    </contour>
  </outline>
</glyph>
<glyph name="heta" format="2">
  <advance width="339"/>
  <unicode hex="0371"/>
  <anchor x="170" y="0" name="bottom"/>
  <anchor x="170" y="536" name="top"/>
  <outline>
    <contour>
      <point x="67" y="0" type="line"/>
      <point x="209" y="0" type="line"/>
      <point x="209" y="271" type="line"/>
      <point x="332" y="271" type="line"/>
      <point x="332" y="281" type="line"/>
      <point x="209" y="281" type="line"/>
      <point x="209" y="536" type="line"/>
      <point x="11" y="536" type="line"/>
      <point x="11" y="526" type="line"/>
      <point x="21" y="526" type="line" smooth="yes"/>
      <point x="49" y="526"/>
      <point x="67" y="514"/>
      <point x="67" y="455" type="curve" smooth="yes"/>
    </contour>
  </outline>
</glyph>
<glyph name="archaicsampi" format="2">
  <advance width="438"/>
  <unicode hex="0373"/>
  <anchor x="220" y="-240" name="bottom"/>
  <anchor x="220" y="536" name="top"/>
  <outline>
    <contour>
      <point x="172" y="-240" type="curve"/>
      <point x="315" y="-240" type="line"/>
      <point x="305" y="-214"/>
      <point x="294" y="-153"/>
      <point x="294" y="-80" type="curve" smooth="yes"/>
      <point x="294" y="526" type="line"/>
      <point x="298" y="526" type="line" smooth="yes"/>
      <point x="386" y="526"/>
      <point x="414" y="495"/>
      <point x="416" y="397" type="curve" smooth="yes"/>
      <point x="416" y="370" type="line"/>
      <point x="426" y="370" type="line"/>
      <point x="426" y="536" type="line"/>
      <point x="150" y="536" type="line" smooth="yes"/>
      <point x="82" y="536"/>
      <point x="4" y="513"/>
      <point x="4" y="372" type="curve" smooth="yes"/>
      <point x="4" y="364" type="line"/>
      <point x="14" y="364" type="line"/>
      <point x="14" y="493"/>
      <point x="67" y="526"/>
      <point x="158" y="526" type="curve" smooth="yes"/>
      <point x="153" y="526" type="line"/>
      <point x="153" y="-68" type="line" smooth="yes"/>
      <point x="153" y="-152"/>
      <point x="160" y="-211"/>
    </contour>
  </outline>
</glyph>
<glyph name="Pamphyliandigamma" format="2">
  <advance width="606"/>
  <unicode hex="0376"/>
  <anchor x="304" y="0" name="bottom"/>
  <anchor x="304" y="714" name="top"/>
  <outline>
    <contour>
      <point x="75" y="0" type="line"/>
      <point x="169" y="0" type="line"/>
      <point x="390" y="635" type="line"/>
      <point x="390" y="75" type="line" smooth="yes"/>
      <point x="390" y="17"/>
      <point x="380" y="10"/>
      <point x="355" y="10" type="curve" smooth="yes"/>
      <point x="324" y="10" type="line"/>
      <point x="324" y="0" type="line"/>
      <point x="597" y="0" type="line"/>
      <point x="597" y="10" type="line"/>
      <point x="574" y="10" type="line" smooth="yes"/>
      <point x="548" y="10"/>
      <point x="531" y="17"/>
      <point x="531" y="75" type="curve" smooth="yes"/>
      <point x="531" y="643" type="line" smooth="yes"/>
      <point x="531" y="695"/>
      <point x="547" y="704"/>
      <point x="566" y="704" type="curve" smooth="yes"/>
      <point x="597" y="704" type="line"/>
      <point x="597" y="714" type="line"/>
      <point x="409" y="714" type="line"/>
      <point x="216" y="165" type="line"/>
      <point x="216" y="643" type="line" smooth="yes"/>
      <point x="216" y="692"/>
      <point x="232" y="704"/>
      <point x="251" y="704" type="curve" smooth="yes"/>
      <point x="282" y="704" type="line"/>
      <point x="282" y="714" type="line"/>
      <point x="8" y="714" type="line"/>
      <point x="8" y="704" type="line"/>
      <point x="39" y="704" type="line" smooth="yes"/>
      <point x="61" y="704"/>
      <point x="75" y="690"/>
      <point x="75" y="639" type="curve" smooth="yes"/>
    </contour>
  </outline>
</glyph>
<glyph name="Gamma" format="2">
  <advance width="443"/>
  <unicode hex="0393"/>
  <anchor x="222" y="0" name="bottom"/>
  <anchor x="222" y="714" name="top"/>
  <outline>
    <contour>
      <point x="16" y="0" type="line"/>
      <point x="308" y="0" type="line"/>
      <point x="308" y="10" type="line"/>
      <point x="266" y="10" type="line" smooth="yes"/>
      <point x="236" y="10"/>
      <point x="227" y="26"/>
      <point x="227" y="67" type="curve" smooth="yes"/>
      <point x="227" y="704" type="line"/>
      <point x="284" y="704" type="line" smooth="yes"/>
      <point x="388" y="704"/>
      <point x="420" y="665"/>
      <point x="426" y="537" type="curve" smooth="yes"/>
      <point x="427" y="505" type="line"/>
      <point x="437" y="505" type="line"/>
      <point x="430" y="714" type="line"/>
      <point x="16" y="714" type="line"/>
      <point x="16" y="704" type="line"/>
      <point x="51" y="704" type="line" smooth="yes"/>
      <point x="69" y="704"/>
      <point x="81" y="691"/>
      <point x="81" y="647" type="curve" smooth="yes"/>
      <point x="81" y="65" type="line" smooth="yes"/>
      <point x="81" y="22"/>
      <point x="71" y="10"/>
      <point x="41" y="10" type="curve" smooth="yes"/>
      <point x="16" y="10" type="line"/>
    </contour>
  </outline>
</glyph>
<glyph name="Delta" format="2">
  <advance width="556"/>
  <unicode hex="0394"/>
  <anchor x="279" y="0" name="bottom"/>
  <anchor x="279" y="714" name="top"/>
  <outline>
    <contour>
      <point x="22" y="0" type="line"/>
      <point x="530" y="0" type="line"/>
      <point x="530" y="32" type="line"/>
      <point x="298" y="714" type="line"/>
      <point x="253" y="714" type="line"/>
      <point x="22" y="20" type="line"/>
    </contour>
    <contour>
      <point x="33" y="20" type="line"/>
      <point x="162" y="415" type="line" smooth="yes"/>
      <point x="180" y="471"/>
      <point x="200" y="528"/>
      <point x="215" y="573" type="curve"/>
      <point x="235" y="509"/>
      <point x="244" y="481"/>
      <point x="262" y="424" type="curve" smooth="yes"/>
      <point x="394" y="20" type="line"/>
    </contour>
  </outline>
</glyph>
<glyph name="theta" format="2">
  <advance width="461"/>
  <unicode hex="03B8"/>
  <anchor x="231" y="0" name="bottom"/>
  <anchor x="231" y="764" name="top"/>
  <anchor x="441" y="764" name="topright"/>
  <outline>
    <contour>
      <point x="231" y="-10" type="curve" smooth="yes"/>
      <point x="366" y="-10"/>
      <point x="432" y="137"/>
      <point x="432" y="378" type="curve" smooth="yes"/>
      <point x="432" y="620"/>
      <point x="366" y="764"/>
      <point x="232" y="764" type="curve" smooth="yes"/>
      <point x="88" y="764"/>
      <point x="29" y="620"/>
      <point x="29" y="379" type="curve" smooth="yes"/>
      <point x="29" y="137"/>
      <point x="88" y="-10"/>
    </contour>
    <contour>
      <point x="231" y="0" type="curve" smooth="yes"/>
      <point x="187" y="0"/>
      <point x="175" y="104"/>
      <point x="175" y="382" type="curve"/>
      <point x="290" y="382" type="line"/>
      <point x="290" y="105"/>
      <point x="276" y="0"/>
    </contour>
    <contour>
      <point x="175" y="392" type="line"/>
      <point x="175" y="654"/>
      <point x="191" y="754"/>
      <point x="232" y="754" type="curve" smooth="yes"/>
      <point x="272" y="754"/>
      <point x="290" y="654"/>
      <point x="290" y="392" type="curve"/>
    </contour>
  </outline>
</glyph>
<glyph name="tau" format="2">
  <advance width="399"/>
  <unicode hex="03C4"/>
  <anchor x="199" y="0" name="bottom"/>
  <anchor x="199" y="536" name="top"/>
  <outline>
    <contour>
      <point x="244" y="-10" type="curve" smooth="yes"/>
      <point x="266" y="-10"/>
      <point x="294" y="-4"/>
      <point x="312" y="11" type="curve"/>
      <point x="312" y="23" type="line"/>
      <point x="292" y="8"/>
      <point x="273" y="1"/>
      <point x="259" y="1" type="curve" smooth="yes"/>
      <point x="230" y="1"/>
      <point x="204" y="25"/>
      <point x="204" y="75" type="curve" smooth="yes"/>
      <point x="204" y="178"/>
      <point x="210" y="272"/>
      <point x="230" y="410" type="curve"/>
      <point x="370" y="410" type="line"/>
      <point x="370" y="536" type="line"/>
      <point x="131" y="536" type="line" smooth="yes"/>
      <point x="48" y="536"/>
      <point x="8" y="423"/>
      <point x="8" y="325" type="curve"/>
      <point x="18" y="325" type="line"/>
      <point x="18" y="402"/>
      <point x="41" y="410"/>
      <point x="130" y="410" type="curve" smooth="yes"/>
      <point x="207" y="410" type="line"/>
      <point x="164" y="278"/>
      <point x="131" y="197"/>
      <point x="131" y="125" type="curve" smooth="yes"/>
      <point x="131" y="27"/>
      <point x="169" y="-10"/>
    </contour>
  </outline>
</glyph>
<glyph name="omega" format="2">
  <advance width="596"/>
  <unicode hex="03C9"/>
  <anchor x="299" y="0" name="bottom"/>
  <anchor x="299" y="536" name="top"/>
  <outline>
    <contour>
      <point x="200" y="-10" type="curve" smooth="yes"/>
      <point x="269" y="-10"/>
      <point x="288" y="55"/>
      <point x="299" y="118" type="curve"/>
      <point x="307" y="55"/>
      <point x="331" y="-10"/>
      <point x="393" y="-10" type="curve" smooth="yes"/>
      <point x="505" y="-10"/>
      <point x="569" y="76"/>
      <point x="569" y="254" type="curve" smooth="yes"/>
      <point x="569" y="395"/>
      <point x="495" y="487"/>
      <point x="400" y="550" type="curve"/>
      <point x="396" y="544" type="line"/>
      <point x="412" y="470"/>
      <point x="415" y="419"/>
      <point x="415" y="307" type="curve" smooth="yes"/>
      <point x="415" y="75"/>
      <point x="409" y="12"/>
      <point x="373" y="12" type="curve" smooth="yes"/>
      <point x="322" y="12"/>
      <point x="323" y="72"/>
      <point x="329" y="148" type="curve"/>
      <point x="344" y="199"/>
      <point x="358" y="254"/>
      <point x="358" y="296" type="curve" smooth="yes"/>
      <point x="358" y="342"/>
      <point x="338" y="371"/>
      <point x="301" y="371" type="curve" smooth="yes"/>
      <point x="265" y="371"/>
      <point x="240" y="342"/>
      <point x="240" y="296" type="curve" smooth="yes"/>
      <point x="240" y="254"/>
      <point x="252" y="199"/>
      <point x="269" y="146" type="curve"/>
      <point x="270" y="79"/>
      <point x="284" y="14"/>
      <point x="225" y="14" type="curve" smooth="yes"/>
      <point x="184" y="14"/>
      <point x="183" y="75"/>
      <point x="183" y="307" type="curve" smooth="yes"/>
      <point x="183" y="419"/>
      <point x="184" y="470"/>
      <point x="203" y="544" type="curve"/>
      <point x="200" y="550" type="line"/>
      <point x="104" y="487"/>
      <point x="29" y="395"/>
      <point x="29" y="254" type="curve" smooth="yes"/>
      <point x="29" y="76"/>
      <point x="93" y="-10"/>
    </contour>
  </outline>
</glyph>
<glyph name="afii10058" format="2">
  <advance width="726"/>
  <unicode hex="0409"/>
  <anchor x="364" y="0" name="bottom"/>
  <anchor x="364" y="714" name="top"/>
  <outline>
    <contour>
      <point x="59" y="-7" type="curve" smooth="yes"/>
      <point x="107" y="-7"/>
      <point x="155" y="34"/>
      <point x="185" y="189" type="curve" smooth="yes"/>
      <point x="205" y="309"/>
      <point x="222" y="533"/>
      <point x="228" y="704" type="curve"/>
      <point x="330" y="704" type="line"/>
      <point x="330" y="75" type="line" smooth="yes"/>
      <point x="330" y="9"/>
      <point x="302" y="10"/>
      <point x="278" y="10" type="curve" smooth="yes"/>
      <point x="275" y="10" type="line"/>
      <point x="275" y="0" type="line"/>
      <point x="511" y="0" type="line"/>
      <point x="661" y="0"/>
      <point x="721" y="86"/>
      <point x="721" y="207" type="curve" smooth="yes"/>
      <point x="721" y="328"/>
      <point x="670" y="402"/>
      <point x="534" y="402" type="curve" smooth="yes"/>
      <point x="475" y="402" type="line"/>
      <point x="475" y="644" type="line" smooth="yes"/>
      <point x="475" y="691"/>
      <point x="484" y="704"/>
      <point x="506" y="704" type="curve" smooth="yes"/>
      <point x="551" y="704" type="line"/>
      <point x="551" y="714" type="line"/>
      <point x="109" y="714" type="line"/>
      <point x="109" y="704" type="line"/>
      <point x="160" y="704" type="line" smooth="yes"/>
      <point x="221" y="704"/>
      <point x="212" y="672"/>
      <point x="212" y="602" type="curve" smooth="yes"/>
      <point x="212" y="551"/>
      <point x="198" y="385"/>
      <point x="190" y="295" type="curve" smooth="yes"/>
      <point x="161" y="104"/>
      <point x="108" y="83"/>
      <point x="81" y="83" type="curve" smooth="yes"/>
      <point x="51" y="83"/>
      <point x="36" y="106"/>
      <point x="38" y="136" type="curve"/>
      <point x="18" y="123"/>
      <point x="-1" y="103"/>
      <point x="-1" y="67" type="curve" smooth="yes"/>
      <point x="-1" y="27"/>
      <point x="21" y="-7"/>
    </contour>
    <contour>
      <point x="475" y="10" type="line"/>
      <point x="475" y="392" type="line"/>
      <point x="496" y="392" type="line" smooth="yes"/>
      <point x="544" y="392"/>
      <point x="564" y="340"/>
      <point x="564" y="203" type="curve" smooth="yes"/>
      <point x="564" y="63"/>
      <point x="546" y="10"/>
      <point x="497" y="10" type="curve" smooth="yes"/>
    </contour>
  </outline>
</glyph>
<glyph name="afii10026" format="2">
  <advance width="605"/>
  <unicode hex="0418"/>
  <anchor x="302" y="0" name="bottom"/>
  <anchor x="302" y="714" name="top"/>
  <outline>
    <contour>
      <point x="16" y="0" type="line"/>
      <point x="276" y="0" type="line"/>
      <point x="276" y="10" type="line"/>
      <point x="261" y="10" type="line" smooth="yes"/>
      <point x="235" y="10"/>
      <point x="228" y="21"/>
      <point x="228" y="68" type="curve" smooth="yes"/>
      <point x="228" y="171" type="line"/>
      <point x="377" y="526" type="line"/>
      <point x="377" y="75" type="line" smooth="yes"/>
      <point x="377" y="21"/>
      <point x="369" y="10"/>
      <point x="344" y="10" type="curve" smooth="yes"/>
      <point x="329" y="10" type="line"/>
      <point x="329" y="0" type="line"/>
      <point x="589" y="0" type="line"/>
      <point x="589" y="10" type="line"/>
      <point x="559" y="10" type="line" smooth="yes"/>
      <point x="535" y="10"/>
      <point x="524" y="20"/>
      <point x="524" y="70" type="curve" smooth="yes"/>
      <point x="524" y="639" type="line" smooth="yes"/>
      <point x="524" y="693"/>
      <point x="534" y="704"/>
      <point x="559" y="704" type="curve" smooth="yes"/>
      <point x="589" y="704" type="line"/>
      <point x="589" y="714" type="line"/>
      <point x="329" y="714" type="line"/>
      <point x="329" y="704" type="line"/>
      <point x="344" y="704" type="line" smooth="yes"/>
      <point x="369" y="704"/>
      <point x="377" y="693"/>
      <point x="377" y="643" type="curve" smooth="yes"/>
      <point x="377" y="549" type="line"/>
      <point x="228" y="193" type="line"/>
      <point x="228" y="639" type="line"/>
      <point x="228" y="693"/>
      <point x="235" y="704"/>
      <point x="261" y="704" type="curve" smooth="yes"/>
      <point x="276" y="704" type="line"/>
      <point x="276" y="714" type="line"/>
      <point x="16" y="714" type="line"/>
      <point x="16" y="704" type="line"/>
      <point x="46" y="704" type="line" smooth="yes"/>
      <point x="72" y="704"/>
      <point x="81" y="693"/>
      <point x="81" y="643" type="curve" smooth="yes"/>
      <point x="81" y="75" type="line" smooth="yes"/>
      <point x="81" y="21"/>
      <point x="72" y="10"/>
      <point x="46" y="10" type="curve" smooth="yes"/>
      <point x="16" y="10" type="line"/>
    </contour>
  </outline>
</glyph>
<glyph name="afii10043" format="2">
  <advance width="862"/>
  <unicode hex="0429"/>
  <anchor x="431" y="0" name="bottom"/>
  <anchor x="431" y="714" name="top"/>
  <outline>
    <contour>
      <point x="832" y="-210" type="curve"/>
      <point x="842" y="-210" type="line"/>
      <point x="842" y="10" type="line"/>
      <point x="851" y="10" type="line" smooth="yes"/>
      <point x="813" y="10"/>
      <point x="775" y="21"/>
      <point x="775" y="137" type="curve" smooth="yes"/>
      <point x="775" y="638" type="line" smooth="yes"/>
      <point x="775" y="694"/>
      <point x="786" y="704"/>
      <point x="812" y="704" type="curve" smooth="yes"/>
      <point x="839" y="704" type="line"/>
      <point x="839" y="714" type="line"/>
      <point x="587" y="714" type="line"/>
      <point x="587" y="704" type="line"/>
      <point x="599" y="704" type="line" smooth="yes"/>
      <point x="624" y="704"/>
      <point x="637" y="694"/>
      <point x="637" y="638" type="curve" smooth="yes"/>
      <point x="637" y="10" type="line"/>
      <point x="496" y="10" type="line"/>
      <point x="496" y="642" type="line" smooth="yes"/>
      <point x="496" y="696"/>
      <point x="513" y="704"/>
      <point x="539" y="704" type="curve" smooth="yes"/>
      <point x="549" y="704" type="line"/>
      <point x="549" y="714" type="line"/>
      <point x="304" y="714" type="line"/>
      <point x="304" y="704" type="line"/>
      <point x="316" y="704" type="line" smooth="yes"/>
      <point x="346" y="704"/>
      <point x="358" y="694"/>
      <point x="358" y="636" type="curve" smooth="yes"/>
      <point x="358" y="10" type="line"/>
      <point x="219" y="10" type="line"/>
      <point x="219" y="638" type="line" smooth="yes"/>
      <point x="219" y="694"/>
      <point x="232" y="704"/>
      <point x="256" y="704" type="curve" smooth="yes"/>
      <point x="269" y="704" type="line"/>
      <point x="269" y="714" type="line"/>
      <point x="16" y="714" type="line"/>
      <point x="16" y="704" type="line"/>
      <point x="44" y="704" type="line" smooth="yes"/>
      <point x="70" y="704"/>
      <point x="81" y="694"/>
      <point x="81" y="638" type="curve" smooth="yes"/>
      <point x="81" y="72" type="line" smooth="yes"/>
      <point x="81" y="20"/>
      <point x="69" y="10"/>
      <point x="44" y="10" type="curve" smooth="yes"/>
      <point x="16" y="10" type="line"/>
      <point x="16" y="0" type="line"/>
      <point x="700" y="0" type="line" smooth="yes"/>
      <point x="801" y="0"/>
      <point x="832" y="-50"/>
    </contour>
  </outline>
</glyph>
<glyph name="afii10047" format="2">
  <advance width="530"/>
  <unicode hex="042D"/>
  <anchor x="265" y="0" name="bottom"/>
  <anchor x="265" y="714" name="top"/>
  <outline>
    <contour>
      <point x="217" y="-10" type="curve" smooth="yes"/>
      <point x="388" y="-10"/>
      <point x="491" y="134"/>
      <point x="491" y="377" type="curve" smooth="yes"/>
      <point x="491" y="589"/>
      <point x="418" y="724"/>
      <point x="231" y="724" type="curve" smooth="yes"/>
      <point x="87" y="724"/>
      <point x="38" y="657"/>
      <point x="38" y="593" type="curve" smooth="yes"/>
      <point x="38" y="536"/>
      <point x="84" y="515"/>
      <point x="154" y="515" type="curve"/>
      <point x="154" y="663"/>
      <point x="177" y="714"/>
      <point x="242" y="714" type="curve" smooth="yes"/>
      <point x="313" y="714"/>
      <point x="340" y="622"/>
      <point x="340" y="364" type="curve"/>
      <point x="204" y="364" type="line"/>
      <point x="204" y="354" type="line"/>
      <point x="340" y="354" type="line"/>
      <point x="341" y="92"/>
      <point x="305" y="0"/>
      <point x="220" y="0" type="curve" smooth="yes"/>
      <point x="144" y="0"/>
      <point x="107" y="59"/>
      <point x="106" y="225" type="curve"/>
      <point x="53" y="225"/>
      <point x="23" y="191"/>
      <point x="23" y="135" type="curve" smooth="yes"/>
      <point x="23" y="60"/>
      <point x="74" y="-10"/>
    </contour>
  </outline>
</glyph>
<glyph name="afii10067" format="2">
  <advance width="463"/>
  <unicode hex="0432"/>
  <anchor x="232" y="0" name="bottom"/>
  <anchor x="232" y="536" name="top"/>
  <outline>
    <contour>
      <point x="10" y="0" type="line"/>
      <point x="277" y="0" type="line" smooth="yes"/>
      <point x="391" y="0"/>
      <point x="439" y="57"/>
      <point x="439" y="149" type="curve" smooth="yes"/>
      <point x="439" y="231"/>
      <point x="378" y="273"/>
      <point x="290" y="280" type="curve"/>
      <point x="290" y="282" type="line"/>
      <point x="375" y="291"/>
      <point x="417" y="330"/>
      <point x="417" y="408" type="curve" smooth="yes"/>
      <point x="417" y="490"/>
      <point x="369" y="536"/>
      <point x="258" y="536" type="curve" smooth="yes"/>
      <point x="10" y="536" type="line"/>
      <point x="10" y="526" type="line"/>
      <point x="17" y="526" type="line" smooth="yes"/>
      <point x="43" y="526"/>
      <point x="62" y="512"/>
      <point x="62" y="458" type="curve" smooth="yes"/>
      <point x="62" y="76" type="line" smooth="yes"/>
      <point x="62" y="19"/>
      <point x="45" y="10"/>
      <point x="17" y="10" type="curve" smooth="yes"/>
      <point x="10" y="10" type="line"/>
    </contour>
    <contour>
      <point x="204" y="10" type="line"/>
      <point x="204" y="269" type="line"/>
      <point x="228" y="269" type="line" smooth="yes"/>
      <point x="269" y="269"/>
      <point x="291" y="234"/>
      <point x="291" y="164" type="curve" smooth="yes"/>
      <point x="291" y="61"/>
      <point x="269" y="10"/>
      <point x="227" y="10" type="curve" smooth="yes"/>
    </contour>
    <contour>
      <point x="204" y="279" type="line"/>
      <point x="204" y="526" type="line"/>
      <point x="228" y="526" type="line" smooth="yes"/>
      <point x="261" y="526"/>
      <point x="279" y="486"/>
      <point x="279" y="403" type="curve" smooth="yes"/>
      <point x="279" y="320"/>
      <point x="260" y="279"/>
      <point x="224" y="279" type="curve" smooth="yes"/>
    </contour>
  </outline>
</glyph>
<glyph name="afii10088" format="2">
  <advance width="523"/>
  <unicode hex="0446"/>
  <anchor x="262" y="0" name="bottom"/>
  <anchor x="262" y="536" name="top"/>
  <outline>
    <contour>
      <point x="515" y="-210" type="line"/>
      <point x="525" y="-210" type="line"/>
      <point x="525" y="10" type="line"/>
      <point x="531" y="10" type="line" smooth="yes"/>
      <point x="493" y="10"/>
      <point x="455" y="21"/>
      <point x="455" y="137" type="curve" smooth="yes"/>
      <point x="455" y="460" type="line" smooth="yes"/>
      <point x="455" y="515"/>
      <point x="470" y="526"/>
      <point x="497" y="526" type="curve" smooth="yes"/>
      <point x="507" y="526" type="line"/>
      <point x="507" y="536" type="line"/>
      <point x="275" y="536" type="line"/>
      <point x="275" y="526" type="line"/>
      <point x="279" y="526" type="line" smooth="yes"/>
      <point x="302" y="526"/>
      <point x="311" y="515"/>
      <point x="311" y="460" type="curve" smooth="yes"/>
      <point x="311" y="10" type="line"/>
      <point x="205" y="10" type="line"/>
      <point x="205" y="460" type="line" smooth="yes"/>
      <point x="205" y="515"/>
      <point x="214" y="526"/>
      <point x="238" y="526" type="curve" smooth="yes"/>
      <point x="241" y="526" type="line"/>
      <point x="241" y="536" type="line"/>
      <point x="9" y="536" type="line"/>
      <point x="9" y="526" type="line"/>
      <point x="17" y="526" type="line" smooth="yes"/>
      <point x="45" y="526"/>
      <point x="63" y="511"/>
      <point x="63" y="460" type="curve" smooth="yes"/>
      <point x="63" y="76" type="line" smooth="yes"/>
      <point x="63" y="22"/>
      <point x="45" y="10"/>
      <point x="17" y="10" type="curve" smooth="yes"/>
      <point x="9" y="10" type="line"/>
      <point x="9" y="0" type="line"/>
      <point x="383" y="0" type="line" smooth="yes"/>
      <point x="479" y="0"/>
      <point x="509" y="-42"/>
      <point x="514" y="-179" type="curve" smooth="yes"/>
    </contour>
  </outline>
</glyph>
<glyph name="uni0460" format="2">
  <advance width="740"/>
  <unicode hex="0460"/>
  <anchor x="370" y="0" name="bottom"/>
  <anchor x="370" y="714" name="top"/>
  <outline>
    <contour>
      <point x="195" y="0" type="curve"/>
      <point x="261" y="0" type="line"/>
      <point x="392" y="350" type="line"/>
      <point x="414" y="236"/>
      <point x="432" y="121"/>
      <point x="453" y="0" type="curve"/>
      <point x="565" y="0" type="line"/>
      <point x="673" y="287"/>
      <point x="708" y="429"/>
      <point x="708" y="574" type="curve" smooth="yes"/>
      <point x="708" y="686"/>
      <point x="682" y="727"/>
      <point x="630" y="727" type="curve" smooth="yes"/>
      <point x="592" y="727"/>
      <point x="566" y="699"/>
      <point x="566" y="645" type="curve"/>
      <point x="644" y="646"/>
      <point x="671" y="608"/>
      <point x="671" y="498" type="curve" smooth="yes"/>
      <point x="671" y="372"/>
      <point x="625" y="187"/>
      <point x="576" y="69" type="curve"/>
      <point x="543" y="281"/>
      <point x="494" y="541"/>
      <point x="435" y="714" type="curve"/>
      <point x="299" y="714" type="line"/>
      <point x="333" y="609"/>
      <point x="362" y="491"/>
      <point x="388" y="369" type="curve"/>
      <point x="310" y="164" type="line"/>
      <point x="234" y="579"/>
      <point x="205" y="726"/>
      <point x="103" y="726" type="curve" smooth="yes"/>
      <point x="42" y="726"/>
      <point x="14" y="679"/>
      <point x="-10" y="642" type="curve"/>
      <point x="-6" y="632" type="line"/>
      <point x="1" y="643"/>
      <point x="11" y="659"/>
      <point x="27" y="659" type="curve" smooth="yes"/>
      <point x="62" y="659"/>
      <point x="86" y="619"/>
    </contour>
  </outline>
</glyph>
<glyph name="uni0464" format="2">
  <advance width="777"/>
  <unicode hex="0464"/>
  <anchor x="389" y="0" name="bottom"/>
  <anchor x="389" y="714" name="top"/>
  <outline>
    <contour>
      <point x="578" y="-10" type="curve" smooth="yes"/>
      <point x="716" y="-10"/>
      <point x="748" y="69"/>
      <point x="748" y="117" type="curve" smooth="yes"/>
      <point x="748" y="131"/>
      <point x="748" y="165"/>
      <point x="716" y="175" type="curve"/>
      <point x="717" y="52"/>
      <point x="678" y="0"/>
      <point x="590" y="0" type="curve" smooth="yes"/>
      <point x="497" y="0"/>
      <point x="460" y="72"/>
      <point x="458" y="377" type="curve"/>
      <point x="605" y="377" type="line"/>
      <point x="605" y="387" type="line"/>
      <point x="458" y="387" type="line"/>
      <point x="458" y="615"/>
      <point x="482" y="714"/>
      <point x="560" y="714" type="curve" smooth="yes"/>
      <point x="616" y="714"/>
      <point x="635" y="668"/>
      <point x="635" y="523" type="curve"/>
      <point x="709" y="523"/>
      <point x="747" y="558"/>
      <point x="747" y="605" type="curve" smooth="yes"/>
      <point x="747" y="671"/>
      <point x="681" y="724"/>
      <point x="581" y="724" type="curve" smooth="yes"/>
      <point x="394" y="724"/>
      <point x="311" y="585"/>
      <point x="305" y="387" type="curve"/>
      <point x="226" y="387" type="line"/>
      <point x="226" y="639" type="line" smooth="yes"/>
      <point x="226" y="692"/>
      <point x="232" y="704"/>
      <point x="256" y="704" type="curve" smooth="yes"/>
      <point x="308" y="704" type="line"/>
      <point x="308" y="714" type="line"/>
      <point x="16" y="714" type="line"/>
      <point x="16" y="704" type="line"/>
      <point x="60" y="704" type="line" smooth="yes"/>
      <point x="82" y="704"/>
      <point x="81" y="692"/>
      <point x="81" y="644" type="curve" smooth="yes"/>
      <point x="81" y="65" type="line" smooth="yes"/>
      <point x="81" y="16"/>
      <point x="79" y="10"/>
      <point x="54" y="10" type="curve" smooth="yes"/>
      <point x="16" y="10" type="line"/>
      <point x="16" y="0" type="line"/>
      <point x="308" y="0" type="line"/>
      <point x="308" y="10" type="line"/>
      <point x="256" y="10" type="line" smooth="yes"/>
      <point x="232" y="10"/>
      <point x="226" y="16"/>
      <point x="226" y="67" type="curve" smooth="yes"/>
      <point x="226" y="377" type="line"/>
      <point x="305" y="377" type="line"/>
      <point x="305" y="123"/>
      <point x="403" y="-10"/>
    </contour>
  </outline>
</glyph>
<glyph name="uni0466" format="2">
  <advance width="585"/>
  <unicode hex="0466"/>
  <anchor x="313" y="0" name="bottom"/>
  <anchor x="313" y="714" name="top"/>
  <outline>
    <contour>
      <point x="5" y="0" type="line"/>
      <point x="155" y="0" type="line"/>
      <point x="155" y="10" type="line"/>
      <point x="138" y="10" type="line" smooth="yes"/>
      <point x="121" y="10"/>
      <point x="111" y="17"/>
      <point x="111" y="43" type="curve" smooth="yes"/>
      <point x="111" y="57"/>
      <point x="114" y="79"/>
      <point x="121" y="111" type="curve" smooth="yes"/>
      <point x="177" y="357" type="line"/>
      <point x="192" y="357" type="line"/>
      <point x="192" y="0" type="line"/>
      <point x="305" y="0" type="line"/>
      <point x="305" y="357" type="line"/>
      <point x="320" y="357" type="line"/>
      <point x="383" y="97" type="line" smooth="yes"/>
      <point x="387" y="81"/>
      <point x="391" y="62"/>
      <point x="391" y="45" type="curve" smooth="yes"/>
      <point x="391" y="26"/>
      <point x="386" y="10"/>
      <point x="362" y="10" type="curve" smooth="yes"/>
      <point x="354" y="10" type="line"/>
      <point x="354" y="0" type="line"/>
      <point x="585" y="0" type="line"/>
      <point x="585" y="10" type="line"/>
      <point x="571" y="10" type="line" smooth="yes"/>
      <point x="560" y="10"/>
      <point x="550" y="24"/>
      <point x="538" y="69" type="curve" smooth="yes"/>
      <point x="365" y="714" type="line"/>
      <point x="246" y="714" type="line"/>
      <point x="105" y="84" type="line" smooth="yes"/>
      <point x="92" y="31"/>
      <point x="86" y="10"/>
      <point x="45" y="10" type="curve" smooth="yes"/>
      <point x="5" y="10" type="line"/>
    </contour>
    <contour>
      <point x="180" y="367" type="line"/>
      <point x="219" y="549" type="line" smooth="yes"/>
      <point x="227" y="586"/>
      <point x="236" y="624"/>
      <point x="248" y="676" type="curve"/>
      <point x="259" y="621"/>
      <point x="269" y="583"/>
      <point x="278" y="546" type="curve" smooth="yes"/>
      <point x="319" y="367" type="line"/>
    </contour>
  </outline>
</glyph>
<glyph name="uni0469" format="2">
  <advance width="763"/>
  <unicode hex="0469"/>
  <anchor x="390" y="0" name="bottom"/>
  <anchor x="390" y="536" name="top"/>
  <outline>
    <contour>
      <point x="10" y="0" type="line"/>
      <point x="196" y="0" type="line"/>
      <point x="196" y="269" type="line"/>
      <point x="373" y="269" type="line"/>
      <point x="369" y="279" type="line"/>
      <point x="196" y="279" type="line"/>
      <point x="196" y="454" type="line" smooth="yes"/>
      <point x="196" y="511"/>
      <point x="211" y="526"/>
      <point x="236" y="526" type="curve" smooth="yes"/>
      <point x="243" y="526" type="line"/>
      <point x="243" y="536" type="line"/>
      <point x="10" y="536" type="line"/>
      <point x="10" y="526" type="line"/>
      <point x="18" y="526" type="line" smooth="yes"/>
      <point x="46" y="526"/>
      <point x="62" y="512"/>
      <point x="62" y="455" type="curve" smooth="yes"/>
      <point x="62" y="82" type="line" smooth="yes"/>
      <point x="62" y="25"/>
      <point x="46" y="10"/>
      <point x="18" y="10" type="curve" smooth="yes"/>
      <point x="10" y="10" type="line"/>
    </contour>
    <component base="uni0467" xOffset="239"/>
  </outline>
</glyph>
<glyph name="uni0478" format="2">
  <advance width="990"/>
  <unicode hex="0478"/>
  <anchor x="491" y="-240" name="bottom"/>
  <anchor x="491" y="714" name="top"/>
  <outline>
    <contour>
      <point x="287" y="-10" type="curve" smooth="yes"/>
      <point x="446" y="-10"/>
      <point x="535" y="137"/>
      <point x="535" y="358" type="curve" smooth="yes"/>
      <point x="535" y="580"/>
      <point x="446" y="725"/>
      <point x="288" y="725" type="curve" smooth="yes"/>
      <point x="119" y="725"/>
      <point x="39" y="580"/>
      <point x="39" y="359" type="curve" smooth="yes"/>
      <point x="39" y="137"/>
      <point x="119" y="-10"/>
    </contour>
    <contour>
      <point x="287" y="0" type="curve" smooth="yes"/>
      <point x="216" y="0"/>
      <point x="194" y="86"/>
      <point x="194" y="358" type="curve" smooth="yes"/>
      <point x="194" y="629"/>
      <point x="216" y="715"/>
      <point x="288" y="715" type="curve" smooth="yes"/>
      <point x="359" y="715"/>
      <point x="381" y="629"/>
      <point x="381" y="358" type="curve" smooth="yes"/>
      <point x="381" y="86"/>
      <point x="359" y="0"/>
    </contour>
    <contour>
      <point x="584" y="-228" type="line"/>
      <point x="628" y="-228" type="line" smooth="yes"/>
      <point x="689" y="-228"/>
      <point x="763" y="-216"/>
      <point x="802" y="-47" type="curve" smooth="yes"/>
      <point x="927" y="475" type="line" smooth="yes"/>
      <point x="936" y="517"/>
      <point x="941" y="526"/>
      <point x="975" y="526" type="curve" smooth="yes"/>
      <point x="981" y="526" type="line"/>
      <point x="981" y="536" type="line"/>
      <point x="864" y="536" type="line"/>
      <point x="864" y="526" type="line"/>
      <point x="897" y="526" type="line" smooth="yes"/>
      <point x="912" y="526"/>
      <point x="919" y="519"/>
      <point x="919" y="501" type="curve" smooth="yes"/>
      <point x="919" y="493"/>
      <point x="917" y="478"/>
      <point x="915" y="465" type="curve" smooth="yes"/>
      <point x="858" y="231" type="line" smooth="yes"/>
      <point x="853" y="212"/>
      <point x="850" y="195"/>
      <point x="846" y="170" type="curve"/>
      <point x="843" y="181"/>
      <point x="837" y="203"/>
      <point x="829" y="227" type="curve" smooth="yes"/>
      <point x="761" y="440" type="line" smooth="yes"/>
      <point x="754" y="459"/>
      <point x="749" y="480"/>
      <point x="749" y="495" type="curve" smooth="yes"/>
      <point x="749" y="513"/>
      <point x="757" y="526"/>
      <point x="787" y="526" type="curve" smooth="yes"/>
      <point x="796" y="526" type="line"/>
      <point x="796" y="536" type="line"/>
      <point x="562" y="536" type="line"/>
      <point x="562" y="526" type="line"/>
      <point x="580" y="526" type="line" smooth="yes"/>
      <point x="593" y="526"/>
      <point x="596" y="515"/>
      <point x="611" y="479" type="curve" smooth="yes"/>
      <point x="802" y="-18" type="line"/>
      <point x="760" y="-177"/>
      <point x="695" y="-218"/>
      <point x="584" y="-218" type="curve"/>
    </contour>
  </outline>
</glyph>
<glyph name="uni047C" format="2">
  <advance width="828"/>
  <unicode hex="047C"/>
  <outline>
    <contour>
      <point x="263" y="910" type="curve"/>
      <point x="273" y="910" type="line"/>
      <point x="275" y="921" type="line" smooth="yes"/>
      <point x="279" y="942"/>
      <point x="280" y="972"/>
      <point x="327" y="972" type="curve" smooth="yes"/>
      <point x="415" y="972"/>
      <point x="478" y="910"/>
      <point x="563" y="910" type="curve" smooth="yes"/>
      <point x="581" y="910" type="line"/>
      <point x="581" y="988" type="line"/>
      <point x="574" y="988" type="line"/>
      <point x="487" y="988"/>
      <point x="432" y="1043"/>
      <point x="367" y="1043" type="curve" smooth="yes"/>
      <point x="303" y="1043"/>
      <point x="269" y="991"/>
    </contour>
    <contour>
      <point x="364" y="755" type="line"/>
      <point x="436" y="776"/>
      <point x="464" y="820"/>
      <point x="464" y="866" type="curve" smooth="yes"/>
      <point x="464" y="906"/>
      <point x="443" y="926"/>
      <point x="414" y="926" type="curve" smooth="yes"/>
      <point x="392" y="926"/>
      <point x="375" y="915"/>
      <point x="375" y="887" type="curve" smooth="yes"/>
      <point x="375" y="843"/>
      <point x="422" y="861"/>
      <point x="422" y="819" type="curve" smooth="yes"/>
      <point x="422" y="787"/>
      <point x="394" y="777"/>
      <point x="364" y="765" type="curve"/>
    </contour>
    <component base="uniA64C"/>
  </outline>
</glyph>
<glyph name="uni048B" format="2">
  <advance width="524"/>
  <unicode hex="048B"/>
  <anchor x="262" y="0" name="bottom"/>
  <anchor x="262" y="754" name="top"/>
  <outline>
    <contour>
      <point x="394" y="-210" type="line"/>
      <point x="458" y="-210" type="line"/>
      <point x="506" y="2" type="line"/>
      <point x="502" y="10" type="line"/>
      <point x="497" y="10" type="line"/>
      <point x="497" y="0" type="line"/>
    </contour>
    <component base="afii10074"/>
    <component base="cyrillicbreve" xOffset="59"/>
  </outline>
</glyph>
<glyph name="uni048E" format="2">
  <advance width="480"/>
  <unicode hex="048E"/>
  <anchor x="240" y="0" name="bottom"/>
  <anchor x="240" y="714" name="top"/>
  <outline>
    <contour>
      <point x="16" y="0" type="line"/>
      <point x="309" y="0" type="line"/>
      <point x="309" y="10" type="line"/>
      <point x="261" y="10" type="line" smooth="yes"/>
      <point x="229" y="10"/>
      <point x="228" y="29"/>
      <point x="228" y="70" type="curve" smooth="yes"/>
      <point x="228" y="272" type="line"/>
      <point x="243" y="272" type="line" smooth="yes"/>
      <point x="281" y="272"/>
      <point x="311" y="277"/>
      <point x="339" y="285" type="curve"/>
      <point x="379" y="208" type="line"/>
      <point x="387" y="214" type="line"/>
      <point x="349" y="288" type="line"/>
      <point x="441" y="324"/>
      <point x="478" y="405"/>
      <point x="478" y="502" type="curve" smooth="yes"/>
      <point x="478" y="641"/>
      <point x="410" y="714"/>
      <point x="259" y="714" type="curve" smooth="yes"/>
      <point x="16" y="714" type="line"/>
      <point x="16" y="704" type="line"/>
      <point x="48" y="704" type="line" smooth="yes"/>
      <point x="83" y="704"/>
      <point x="81" y="685"/>
      <point x="81" y="643" type="curve" smooth="yes"/>
      <point x="81" y="75" type="line" smooth="yes"/>
      <point x="81" y="30"/>
      <point x="81" y="10"/>
      <point x="44" y="10" type="curve" smooth="yes"/>
      <point x="16" y="10" type="line"/>
    </contour>
    <contour>
      <point x="229" y="282" type="line"/>
      <point x="229" y="704" type="line"/>
      <point x="248" y="704" type="line" smooth="yes"/>
      <point x="311" y="704"/>
      <point x="329" y="658"/>
      <point x="329" y="501" type="curve" smooth="yes"/>
      <point x="329" y="434"/>
      <point x="325" y="386"/>
      <point x="317" y="352" type="curve"/>
      <point x="273" y="440" type="line"/>
      <point x="263" y="434" type="line"/>
      <point x="313" y="338" type="line"/>
      <point x="300" y="298"/>
      <point x="277" y="282"/>
      <point x="238" y="282" type="curve" smooth="yes"/>
    </contour>
  </outline>
</glyph>
<glyph name="uni049C" format="2">
  <advance width="560"/>
  <unicode hex="049C"/>
  <anchor x="280" y="0" name="bottom"/>
  <anchor x="280" y="714" name="top"/>
  <outline>
    <contour>
      <point x="15" y="0" type="line"/>
      <point x="281" y="0" type="line"/>
      <point x="281" y="10" type="line"/>
      <point x="259" y="10" type="line" smooth="yes"/>
      <point x="235" y="10"/>
      <point x="212" y="19"/>
      <point x="212" y="78" type="curve" smooth="yes"/>
      <point x="212" y="354" type="line"/>
      <point x="272" y="354" type="line"/>
      <point x="272" y="174" type="line"/>
      <point x="282" y="174" type="line"/>
      <point x="282" y="351" type="line"/>
      <point x="284" y="342"/>
      <point x="284" y="326"/>
      <point x="303" y="271" type="curve" smooth="yes"/>
      <point x="368" y="74" type="line" smooth="yes"/>
      <point x="385" y="21"/>
      <point x="410" y="0"/>
      <point x="520" y="0" type="curve" smooth="yes"/>
      <point x="559" y="0" type="line"/>
      <point x="559" y="10" type="line"/>
      <point x="555" y="10" type="line" smooth="yes"/>
      <point x="521" y="10"/>
      <point x="507" y="65"/>
      <point x="493" y="132" type="curve" smooth="yes"/>
      <point x="474" y="204" type="line" smooth="yes"/>
      <point x="438" y="326"/>
      <point x="395" y="361"/>
      <point x="291" y="361" type="curve"/>
      <point x="347" y="381"/>
      <point x="354" y="446"/>
      <point x="380" y="509" type="curve" smooth="yes"/>
      <point x="431" y="630"/>
      <point x="461" y="635"/>
      <point x="474" y="635" type="curve" smooth="yes"/>
      <point x="510" y="635"/>
      <point x="516" y="603"/>
      <point x="519" y="583" type="curve"/>
      <point x="538" y="585"/>
      <point x="549" y="613"/>
      <point x="549" y="645" type="curve" smooth="yes"/>
      <point x="549" y="692"/>
      <point x="525" y="720"/>
      <point x="488" y="720" type="curve" smooth="yes"/>
      <point x="431" y="720"/>
      <point x="401" y="657"/>
      <point x="378" y="559" type="curve" smooth="yes"/>
      <point x="347" y="449"/>
      <point x="344" y="393"/>
      <point x="282" y="364" type="curve"/>
      <point x="282" y="544" type="line"/>
      <point x="272" y="544" type="line"/>
      <point x="272" y="364" type="line"/>
      <point x="212" y="364" type="line"/>
      <point x="212" y="636" type="line" smooth="yes"/>
      <point x="212" y="695"/>
      <point x="238" y="704"/>
      <point x="261" y="704" type="curve" smooth="yes"/>
      <point x="281" y="704" type="line"/>
      <point x="281" y="714" type="line"/>
      <point x="15" y="714" type="line"/>
      <point x="15" y="704" type="line"/>
      <point x="35" y="704" type="line" smooth="yes"/>
      <point x="59" y="704"/>
      <point x="81" y="695"/>
      <point x="81" y="633" type="curve" smooth="yes"/>
      <point x="81" y="78" type="line" smooth="yes"/>
      <point x="81" y="16"/>
      <point x="59" y="10"/>
      <point x="35" y="10" type="curve" smooth="yes"/>
      <point x="15" y="10" type="line"/>
    </contour>
  </outline>
</glyph>
<glyph name="uni04A6" format="2">
  <advance width="854"/>
  <unicode hex="04A6"/>
  <anchor x="428" y="-248" name="bottom"/>
  <anchor x="428" y="714" name="top"/>
  <outline>
    <contour>
      <point x="589" y="-248" type="curve" smooth="yes"/>
      <point x="748" y="-248"/>
      <point x="825" y="-130"/>
      <point x="825" y="83" type="curve" smooth="yes"/>
      <point x="825" y="278"/>
      <point x="779" y="395"/>
      <point x="589" y="395" type="curve" smooth="yes"/>
      <point x="570" y="395"/>
      <point x="542" y="389"/>
      <point x="529" y="386" type="curve"/>
      <point x="529" y="639" type="line" smooth="yes"/>
      <point x="529" y="684"/>
      <point x="534" y="704"/>
      <point x="570" y="704" type="curve" smooth="yes"/>
      <point x="596" y="704" type="line"/>
      <point x="596" y="714" type="line"/>
      <point x="16" y="714" type="line"/>
      <point x="16" y="704" type="line"/>
      <point x="39" y="704" type="line" smooth="yes"/>
      <point x="77" y="704"/>
      <point x="81" y="685"/>
      <point x="81" y="643" type="curve" smooth="yes"/>
      <point x="81" y="75" type="line" smooth="yes"/>
      <point x="81" y="30"/>
      <point x="77" y="10"/>
      <point x="39" y="10" type="curve" smooth="yes"/>
      <point x="16" y="10" type="line"/>
      <point x="16" y="0" type="line"/>
      <point x="279" y="0" type="line"/>
      <point x="279" y="10" type="line"/>
      <point x="265" y="10" type="line" smooth="yes"/>
      <point x="234" y="10"/>
      <point x="228" y="30"/>
      <point x="228" y="75" type="curve" smooth="yes"/>
      <point x="228" y="704" type="line"/>
      <point x="384" y="704" type="line"/>
      <point x="384" y="75" type="line" smooth="yes"/>
      <point x="384" y="30"/>
      <point x="380" y="10"/>
      <point x="343" y="10" type="curve" smooth="yes"/>
      <point x="331" y="10" type="line"/>
      <point x="331" y="0" type="line"/>
      <point x="596" y="0" type="line"/>
      <point x="596" y="10" type="line"/>
      <point x="571" y="10" type="line" smooth="yes"/>
      <point x="533" y="10"/>
      <point x="529" y="29"/>
      <point x="529" y="70" type="curve" smooth="yes"/>
      <point x="529" y="375" type="line"/>
      <point x="535" y="377"/>
      <point x="543" y="379"/>
      <point x="554" y="379" type="curve" smooth="yes"/>
      <point x="643" y="379"/>
      <point x="669" y="312"/>
      <point x="669" y="84" type="curve" smooth="yes"/>
      <point x="669" y="-161"/>
      <point x="658" y="-238"/>
      <point x="599" y="-238" type="curve" smooth="yes"/>
      <point x="545" y="-238"/>
      <point x="522" y="-202"/>
      <point x="524" y="-66" type="curve"/>
      <point x="464" y="-66"/>
      <point x="439" y="-96"/>
      <point x="439" y="-136" type="curve" smooth="yes"/>
      <point x="439" y="-202"/>
      <point x="485" y="-248"/>
    </contour>
  </outline>
</glyph>
<glyph name="uni04A9" format="2">
  <advance width="549"/>
  <unicode hex="04A9"/>
  <anchor x="275" y="0" name="bottom"/>
  <anchor x="275" y="536" name="top"/>
  <outline>
    <contour>
      <point x="482" y="-31" type="curve" smooth="yes"/>
      <point x="517" y="-31"/>
      <point x="536" y="-16"/>
      <point x="536" y="3" type="curve" smooth="yes"/>
      <point x="536" y="11"/>
      <point x="527" y="18"/>
      <point x="517" y="22" type="curve"/>
      <point x="509" y="-3"/>
      <point x="487" y="-19"/>
      <point x="467" y="-19" type="curve" smooth="yes"/>
      <point x="420" y="-19"/>
      <point x="395" y="-12"/>
      <point x="371" y="9" type="curve"/>
      <point x="449" y="42"/>
      <point x="497" y="124"/>
      <point x="497" y="246" type="curve" smooth="yes"/>
      <point x="497" y="362"/>
      <point x="435" y="424"/>
      <point x="354" y="424" type="curve" smooth="yes"/>
      <point x="285" y="424"/>
      <point x="211" y="364"/>
      <point x="211" y="242" type="curve" smooth="yes"/>
      <point x="211" y="139"/>
      <point x="262" y="55"/>
      <point x="334" y="8" type="curve"/>
      <point x="315" y="-1"/>
      <point x="292" y="-3"/>
      <point x="272" y="-3" type="curve" smooth="yes"/>
      <point x="181" y="-3"/>
      <point x="160" y="66"/>
      <point x="160" y="266" type="curve" smooth="yes"/>
      <point x="160" y="450"/>
      <point x="178" y="536"/>
      <point x="246" y="536" type="curve" smooth="yes"/>
      <point x="252" y="536"/>
      <point x="317" y="537"/>
      <point x="317" y="474" type="curve"/>
      <point x="335" y="472"/>
      <point x="345" y="484"/>
      <point x="345" y="504" type="curve" smooth="yes"/>
      <point x="345" y="531"/>
      <point x="296" y="546"/>
      <point x="263" y="546" type="curve" smooth="yes"/>
      <point x="120" y="546"/>
      <point x="29" y="451"/>
      <point x="29" y="273" type="curve" smooth="yes"/>
      <point x="29" y="80"/>
      <point x="97" y="-10"/>
      <point x="279" y="-10" type="curve" smooth="yes"/>
      <point x="306" y="-10"/>
      <point x="328" y="-7"/>
      <point x="349" y="1" type="curve"/>
      <point x="387" y="-20"/>
      <point x="432" y="-31"/>
    </contour>
    <contour>
      <point x="359" y="28" type="curve"/>
      <point x="333" y="65"/>
      <point x="320" y="131"/>
      <point x="320" y="239" type="curve" smooth="yes"/>
      <point x="320" y="371"/>
      <point x="329" y="414"/>
      <point x="356" y="414" type="curve" smooth="yes"/>
      <point x="378" y="414"/>
      <point x="389" y="373"/>
      <point x="389" y="243" type="curve" smooth="yes"/>
      <point x="389" y="119"/>
      <point x="377" y="59"/>
    </contour>
  </outline>
</glyph>
<glyph name="uni04AC" format="2">
  <advance width="494"/>
  <unicode hex="04AC"/>
  <anchor x="248" y="-210" name="bottom"/>
  <anchor x="248" y="714" name="top"/>
  <outline>
    <contour>
      <point x="377" y="-210" type="curve"/>
      <point x="387" y="-210" type="line"/>
      <point x="387" y="10" type="line"/>
      <point x="396" y="10" type="line" smooth="yes"/>
      <point x="358" y="10"/>
      <point x="321" y="21"/>
      <point x="321" y="137" type="curve" smooth="yes"/>
      <point x="321" y="704" type="line"/>
      <point x="319" y="704" type="line" smooth="yes"/>
      <point x="435" y="704"/>
      <point x="474" y="671"/>
      <point x="479" y="571" type="curve" smooth="yes"/>
      <point x="482" y="529" type="line"/>
      <point x="492" y="529" type="line"/>
      <point x="485" y="714" type="line"/>
      <point x="8" y="714" type="line"/>
      <point x="1" y="529" type="line"/>
      <point x="11" y="529" type="line"/>
      <point x="14" y="571" type="line" smooth="yes"/>
      <point x="21" y="671"/>
      <point x="58" y="704"/>
      <point x="174" y="704" type="curve" smooth="yes"/>
      <point x="174" y="704" type="line"/>
      <point x="174" y="76" type="line" smooth="yes"/>
      <point x="174" y="31"/>
      <point x="170" y="10"/>
      <point x="131" y="10" type="curve" smooth="yes"/>
      <point x="105" y="10" type="line"/>
      <point x="105" y="0" type="line"/>
      <point x="247" y="0" type="line" smooth="yes"/>
      <point x="345" y="0"/>
      <point x="377" y="-50"/>
    </contour>
  </outline>
</glyph>
<glyph name="uni04AD" format="2">
  <advance width="422"/>
  <unicode hex="04AD"/>
  <anchor x="211" y="-203" name="bottom"/>
  <anchor x="211" y="536" name="top"/>
  <outline>
    <contour>
      <point x="336" y="-217" type="line"/>
      <point x="346" y="-217" type="line"/>
      <point x="346" y="10" type="line"/>
      <point x="354" y="10" type="line" smooth="yes"/>
      <point x="316" y="10"/>
      <point x="282" y="21"/>
      <point x="282" y="137" type="curve" smooth="yes"/>
      <point x="282" y="526" type="line"/>
      <point x="310" y="526" type="line" smooth="yes"/>
      <point x="368" y="526"/>
      <point x="391" y="495"/>
      <point x="400" y="396" type="curve" smooth="yes"/>
      <point x="404" y="353" type="line"/>
      <point x="414" y="353" type="line"/>
      <point x="407" y="536" type="line"/>
      <point x="15" y="536" type="line"/>
      <point x="8" y="353" type="line"/>
      <point x="18" y="353" type="line"/>
      <point x="22" y="396" type="line" smooth="yes"/>
      <point x="31" y="495"/>
      <point x="54" y="526"/>
      <point x="114" y="526" type="curve" smooth="yes"/>
      <point x="141" y="526" type="line"/>
      <point x="141" y="79" type="line" smooth="yes"/>
      <point x="141" y="28"/>
      <point x="128" y="10"/>
      <point x="82" y="10" type="curve" smooth="yes"/>
      <point x="85" y="10" type="line"/>
      <point x="85" y="0" type="line"/>
      <point x="205" y="0" type="line" smooth="yes"/>
      <point x="293" y="0"/>
      <point x="325" y="-43"/>
      <point x="334" y="-175" type="curve" smooth="yes"/>
    </contour>
  </outline>
</glyph>
<glyph name="uni04BD" format="2">
  <advance width="545"/>
  <unicode hex="04BD"/>
  <anchor x="336" y="0" name="bottom"/>
  <anchor x="336" y="536" name="top"/>
  <outline>
    <contour>
      <point x="331" y="-10" type="curve" smooth="yes"/>
      <point x="476" y="-10"/>
      <point x="504" y="63"/>
      <point x="504" y="106" type="curve" smooth="yes"/>
      <point x="504" y="124"/>
      <point x="492" y="139"/>
      <point x="480" y="144" type="curve"/>
      <point x="467" y="25"/>
      <point x="422" y="5"/>
      <point x="377" y="5" type="curve" smooth="yes"/>
      <point x="310" y="5"/>
      <point x="281" y="69"/>
      <point x="282" y="285" type="curve"/>
      <point x="518" y="285" type="line"/>
      <point x="518" y="307" type="line" smooth="yes"/>
      <point x="518" y="465"/>
      <point x="449" y="549"/>
      <point x="335" y="549" type="curve" smooth="yes"/>
      <point x="219" y="549"/>
      <point x="149" y="463"/>
      <point x="143" y="295" type="curve"/>
      <point x="106" y="301"/>
      <point x="89" y="332"/>
      <point x="89" y="381" type="curve" smooth="yes"/>
      <point x="89" y="402"/>
      <point x="91" y="419"/>
      <point x="98" y="433" type="curve"/>
      <point x="95" y="440"/>
      <point x="73" y="444"/>
      <point x="61" y="444" type="curve" smooth="yes"/>
      <point x="25" y="444"/>
      <point x="7" y="415"/>
      <point x="7" y="370" type="curve" smooth="yes"/>
      <point x="7" y="330"/>
      <point x="27" y="285"/>
      <point x="142" y="285" type="curve"/>
      <point x="142" y="88"/>
      <point x="196" y="-10"/>
    </contour>
    <contour>
      <point x="282" y="295" type="line"/>
      <point x="282" y="497"/>
      <point x="295" y="539"/>
      <point x="334" y="539" type="curve" smooth="yes"/>
      <point x="372" y="539"/>
      <point x="379" y="497"/>
      <point x="379" y="295" type="curve"/>
    </contour>
  </outline>
</glyph>
<glyph name="uni04BE" format="2">
  <advance width="644"/>
  <unicode hex="04BE"/>
  <anchor x="399" y="-210" name="bottom"/>
  <anchor x="369" y="714" name="top"/>
  <outline>
    <contour>
      <point x="397" y="-210" type="curve"/>
      <point x="407" y="-210" type="line"/>
      <point x="407" y="-81"/>
      <point x="423" y="-18"/>
      <point x="494" y="3" type="curve" smooth="yes"/>
      <point x="549" y="20"/>
      <point x="593" y="56"/>
      <point x="593" y="110" type="curve" smooth="yes"/>
      <point x="593" y="127"/>
      <point x="589" y="146"/>
      <point x="574" y="148" type="curve"/>
      <point x="534" y="37"/>
      <point x="479" y="2"/>
      <point x="423" y="2" type="curve" smooth="yes"/>
      <point x="328" y="2"/>
      <point x="294" y="125"/>
      <point x="293" y="360" type="curve"/>
      <point x="604" y="360" type="line"/>
      <point x="604" y="363" type="line" smooth="yes"/>
      <point x="604" y="622"/>
      <point x="522" y="725"/>
      <point x="384" y="725" type="curve" smooth="yes"/>
      <point x="242" y="725"/>
      <point x="139" y="597"/>
      <point x="139" y="368" type="curve"/>
      <point x="101" y="374"/>
      <point x="85" y="397"/>
      <point x="85" y="449" type="curve" smooth="yes"/>
      <point x="85" y="470"/>
      <point x="89" y="493"/>
      <point x="95" y="507" type="curve"/>
      <point x="85" y="513"/>
      <point x="72" y="518"/>
      <point x="56" y="518" type="curve" smooth="yes"/>
      <point x="29" y="518"/>
      <point x="8" y="491"/>
      <point x="8" y="448" type="curve" smooth="yes"/>
      <point x="8" y="391"/>
      <point x="34" y="362"/>
      <point x="139" y="359" type="curve"/>
      <point x="140" y="182"/>
      <point x="198" y="45"/>
      <point x="305" y="11" type="curve" smooth="yes"/>
      <point x="383" y="-14"/>
      <point x="397" y="-75"/>
    </contour>
    <contour>
      <point x="293" y="370" type="line"/>
      <point x="293" y="605"/>
      <point x="318" y="715"/>
      <point x="377" y="715" type="curve" smooth="yes"/>
      <point x="432" y="715"/>
      <point x="453" y="607"/>
      <point x="452" y="370" type="curve"/>
    </contour>
  </outline>
</glyph>
<glyph name="uni050A" format="2">
  <advance width="869"/>
  <unicode hex="050A"/>
  <anchor x="434" y="0" name="bottom"/>
  <anchor x="434" y="714" name="top"/>
  <outline>
    <contour>
      <point x="590" y="-10" type="curve" smooth="yes"/>
      <point x="738" y="-10"/>
      <point x="794" y="74"/>
      <point x="794" y="194" type="curve" smooth="yes"/>
      <point x="794" y="328" type="line" smooth="yes"/>
      <point x="794" y="379"/>
      <point x="803" y="392"/>
      <point x="828" y="392" type="curve" smooth="yes"/>
      <point x="856" y="392" type="line"/>
      <point x="856" y="402" type="line"/>
      <point x="581" y="402" type="line"/>
      <point x="581" y="392" type="line"/>
      <point x="611" y="392" type="line" smooth="yes"/>
      <point x="637" y="392"/>
      <point x="649" y="382"/>
      <point x="649" y="327" type="curve" smooth="yes"/>
      <point x="649" y="124" type="line" smooth="yes"/>
      <point x="649" y="41"/>
      <point x="630" y="0"/>
      <point x="590" y="0" type="curve" smooth="yes"/>
      <point x="551" y="0"/>
      <point x="526" y="38"/>
      <point x="526" y="133" type="curve" smooth="yes"/>
      <point x="526" y="645" type="line" smooth="yes"/>
      <point x="526" y="694"/>
      <point x="529" y="704"/>
      <point x="553" y="704" type="curve" smooth="yes"/>
      <point x="591" y="704" type="line"/>
      <point x="591" y="714" type="line"/>
      <point x="328" y="714" type="line"/>
      <point x="328" y="704" type="line"/>
      <point x="351" y="704" type="line" smooth="yes"/>
      <point x="374" y="704"/>
      <point x="379" y="694"/>
      <point x="379" y="645" type="curve" smooth="yes"/>
      <point x="379" y="378" type="line"/>
      <point x="228" y="378" type="line"/>
      <point x="228" y="648" type="line" smooth="yes"/>
      <point x="228" y="694"/>
      <point x="232" y="704"/>
      <point x="252" y="704" type="curve" smooth="yes"/>
      <point x="279" y="704" type="line"/>
      <point x="279" y="714" type="line"/>
      <point x="16" y="714" type="line"/>
      <point x="16" y="704" type="line"/>
      <point x="47" y="704" type="line" smooth="yes"/>
      <point x="79" y="704"/>
      <point x="81" y="692"/>
      <point x="81" y="644" type="curve" smooth="yes"/>
      <point x="81" y="68" type="line" smooth="yes"/>
      <point x="81" y="16"/>
      <point x="79" y="10"/>
      <point x="54" y="10" type="curve" smooth="yes"/>
      <point x="16" y="10" type="line"/>
      <point x="16" y="0" type="line"/>
      <point x="279" y="0" type="line"/>
      <point x="279" y="10" type="line"/>
      <point x="252" y="10" type="line" smooth="yes"/>
      <point x="232" y="10"/>
      <point x="228" y="16"/>
      <point x="228" y="68" type="curve" smooth="yes"/>
      <point x="228" y="368" type="line"/>
      <point x="379" y="368" type="line"/>
      <point x="379" y="201" type="line" smooth="yes"/>
      <point x="379" y="62"/>
      <point x="434" y="-10"/>
    </contour>
  </outline>
</glyph>
<glyph name="uni0522" format="2">
  <advance width="851"/>
  <unicode hex="0522"/>
  <anchor x="426" y="-248" name="bottom"/>
  <anchor x="426" y="714" name="top"/>
  <outline>
    <contour>
      <point x="586" y="-248" type="curve" smooth="yes"/>
      <point x="745" y="-248"/>
      <point x="822" y="-130"/>
      <point x="822" y="83" type="curve" smooth="yes"/>
      <point x="822" y="278"/>
      <point x="776" y="395"/>
      <point x="586" y="395" type="curve" smooth="yes"/>
      <point x="567" y="395"/>
      <point x="541" y="389"/>
      <point x="526" y="386" type="curve"/>
      <point x="526" y="645" type="line" smooth="yes"/>
      <point x="526" y="694"/>
      <point x="529" y="704"/>
      <point x="553" y="704" type="curve" smooth="yes"/>
      <point x="591" y="704" type="line"/>
      <point x="591" y="714" type="line"/>
      <point x="328" y="714" type="line"/>
      <point x="328" y="704" type="line"/>
      <point x="351" y="704" type="line" smooth="yes"/>
      <point x="374" y="704"/>
      <point x="379" y="694"/>
      <point x="379" y="645" type="curve" smooth="yes"/>
      <point x="379" y="378" type="line"/>
      <point x="228" y="378" type="line"/>
      <point x="228" y="648" type="line" smooth="yes"/>
      <point x="228" y="694"/>
      <point x="232" y="704"/>
      <point x="252" y="704" type="curve" smooth="yes"/>
      <point x="279" y="704" type="line"/>
      <point x="279" y="714" type="line"/>
      <point x="16" y="714" type="line"/>
      <point x="16" y="704" type="line"/>
      <point x="47" y="704" type="line" smooth="yes"/>
      <point x="79" y="704"/>
      <point x="81" y="692"/>
      <point x="81" y="644" type="curve" smooth="yes"/>
      <point x="81" y="68" type="line" smooth="yes"/>
      <point x="81" y="16"/>
      <point x="79" y="10"/>
      <point x="54" y="10" type="curve" smooth="yes"/>
      <point x="16" y="10" type="line"/>
      <point x="16" y="0" type="line"/>
      <point x="279" y="0" type="line"/>
      <point x="279" y="10" type="line"/>
      <point x="252" y="10" type="line" smooth="yes"/>
      <point x="232" y="10"/>
      <point x="228" y="16"/>
      <point x="228" y="68" type="curve" smooth="yes"/>
      <point x="228" y="368" type="line"/>
      <point x="379" y="368" type="line"/>
      <point x="379" y="73" type="line" smooth="yes"/>
      <point x="379" y="18"/>
      <point x="375" y="10"/>
      <point x="352" y="10" type="curve" smooth="yes"/>
      <point x="328" y="10" type="line"/>
      <point x="328" y="0" type="line"/>
      <point x="591" y="0" type="line"/>
      <point x="591" y="10" type="line"/>
      <point x="553" y="10" type="line" smooth="yes"/>
      <point x="529" y="10"/>
      <point x="526" y="17"/>
      <point x="526" y="69" type="curve" smooth="yes"/>
      <point x="526" y="375" type="line"/>
      <point x="533" y="377"/>
      <point x="541" y="379"/>
      <point x="551" y="379" type="curve" smooth="yes"/>
      <point x="640" y="379"/>
      <point x="666" y="312"/>
      <point x="666" y="84" type="curve" smooth="yes"/>
      <point x="666" y="-161"/>
      <point x="655" y="-238"/>
      <point x="596" y="-238" type="curve" smooth="yes"/>
      <point x="541" y="-238"/>
      <point x="519" y="-202"/>
      <point x="521" y="-66" type="curve"/>
      <point x="460" y="-66"/>
      <point x="436" y="-96"/>
      <point x="436" y="-136" type="curve" smooth="yes"/>
      <point x="436" y="-202"/>
      <point x="482" y="-248"/>
    </contour>
  </outline>
</glyph>
<glyph name="uni0525" format="2">
  <advance width="501"/>
  <unicode hex="0525"/>
  <anchor x="240" y="0" name="bottom"/>
  <anchor x="250" y="536" name="top"/>
  <outline>
    <contour>
      <point x="482" y="-217" type="line"/>
      <point x="492" y="-217" type="line"/>
      <point x="492" y="10" type="line"/>
      <point x="489" y="10" type="line" smooth="yes"/>
      <point x="451" y="10"/>
      <point x="438" y="25"/>
      <point x="438" y="82" type="curve" smooth="yes"/>
      <point x="438" y="460" type="line" smooth="yes"/>
      <point x="438" y="514"/>
      <point x="456" y="526"/>
      <point x="484" y="526" type="curve" smooth="yes"/>
      <point x="492" y="526" type="line"/>
      <point x="492" y="536" type="line"/>
      <point x="9" y="536" type="line"/>
      <point x="9" y="526" type="line"/>
      <point x="18" y="526" type="line" smooth="yes"/>
      <point x="45" y="526"/>
      <point x="61" y="514"/>
      <point x="61" y="460" type="curve" smooth="yes"/>
      <point x="61" y="76" type="line" smooth="yes"/>
      <point x="61" y="21"/>
      <point x="46" y="10"/>
      <point x="18" y="10" type="curve" smooth="yes"/>
      <point x="9" y="10" type="line"/>
      <point x="9" y="0" type="line"/>
      <point x="240" y="0" type="line"/>
      <point x="240" y="10" type="line"/>
      <point x="236" y="10" type="line" smooth="yes"/>
      <point x="213" y="10"/>
      <point x="204" y="21"/>
      <point x="204" y="76" type="curve" smooth="yes"/>
      <point x="204" y="526" type="line"/>
      <point x="296" y="526" type="line"/>
      <point x="296" y="76" type="line" smooth="yes"/>
      <point x="296" y="21"/>
      <point x="286" y="10"/>
      <point x="262" y="10" type="curve" smooth="yes"/>
      <point x="260" y="10" type="line"/>
      <point x="260" y="0" type="line"/>
      <point x="350" y="0" type="line" smooth="yes"/>
      <point x="440" y="0"/>
      <point x="471" y="-43"/>
      <point x="480" y="-180" type="curve" smooth="yes"/>
    </contour>
  </outline>
</glyph>
<glyph name="uni1AB9" format="2">
  <unicode hex="1AB9"/>
  <anchor x="-332" y="77" name="_bottom"/>
  <anchor x="-332" y="-240" name="bottom"/>
  <outline>
    <contour>
      <point x="-352" y="-230" type="line"/>
      <point x="-292" y="34" type="line"/>
      <point x="-312" y="40" type="line"/>
      <point x="-374" y="-225" type="line"/>
    </contour>
  </outline>
</glyph>
<glyph name="uni1D16" format="2">
  <advance width="535"/>
  <unicode hex="1D16"/>
  <anchor x="268" y="0" name="bottom"/>
  <anchor x="268" y="536" name="top"/>
  <outline>
    <contour>
      <point x="28" y="272" type="curve"/>
      <point x="167" y="272" type="line"/>
      <point x="167" y="458"/>
      <point x="194" y="528"/>
      <point x="271" y="528" type="curve" smooth="yes"/>
      <point x="339" y="528"/>
      <point x="364" y="458"/>
      <point x="364" y="272" type="curve"/>
      <point x="506" y="272" type="line"/>
      <point x="506" y="406"/>
      <point x="426" y="538"/>
      <point x="268" y="538" type="curve" smooth="yes"/>
      <point x="101" y="538"/>
      <point x="28" y="406"/>
    </contour>
  </outline>
</glyph>
<glyph name="uni1D17" format="2">
  <advance width="535"/>
  <unicode hex="1D17"/>
  <anchor x="268" y="0" name="bottom"/>
  <anchor x="268" y="536" name="top"/>
  <outline>
    <contour>
      <point x="265" y="10" type="curve" smooth="yes"/>
      <point x="429" y="10"/>
      <point x="506" y="146"/>
      <point x="506" y="276" type="curve"/>
      <point x="364" y="276" type="line"/>
      <point x="364" y="99"/>
      <point x="335" y="20"/>
      <point x="269" y="20" type="curve" smooth="yes"/>
      <point x="197" y="20"/>
      <point x="167" y="99"/>
      <point x="167" y="276" type="curve"/>
      <point x="28" y="276" type="line"/>
      <point x="28" y="146"/>
      <point x="105" y="10"/>
    </contour>
  </outline>
</glyph>
<glyph name="uni1D1C" format="2">
  <advance width="459"/>
  <unicode hex="1D1C"/>
  <anchor x="230" y="0" name="bottom"/>
  <anchor x="230" y="536" name="top"/>
  <outline>
    <contour>
      <point x="235" y="-8" type="curve" smooth="yes"/>
      <point x="314" y="-8"/>
      <point x="380" y="8"/>
      <point x="380" y="165" type="curve" smooth="yes"/>
      <point x="380" y="476" type="line" smooth="yes"/>
      <point x="380" y="513"/>
      <point x="379" y="526"/>
      <point x="408" y="526" type="curve" smooth="yes"/>
      <point x="450" y="526" type="line"/>
      <point x="450" y="536" type="line"/>
      <point x="276" y="536" type="line"/>
      <point x="276" y="526" type="line"/>
      <point x="340" y="526" type="line" smooth="yes"/>
      <point x="372" y="526"/>
      <point x="370" y="514"/>
      <point x="370" y="479" type="curve" smooth="yes"/>
      <point x="370" y="163" type="line" smooth="yes"/>
      <point x="370" y="56"/>
      <point x="338" y="9"/>
      <point x="277" y="9" type="curve" smooth="yes"/>
      <point x="230" y="9"/>
      <point x="200" y="44"/>
      <point x="200" y="100" type="curve" smooth="yes"/>
      <point x="200" y="476" type="line" smooth="yes"/>
      <point x="200" y="513"/>
      <point x="197" y="526"/>
      <point x="229" y="526" type="curve" smooth="yes"/>
      <point x="252" y="526" type="line"/>
      <point x="252" y="536" type="line"/>
      <point x="12" y="536" type="line"/>
      <point x="12" y="526" type="line"/>
      <point x="39" y="526" type="line" smooth="yes"/>
      <point x="66" y="526"/>
      <point x="64" y="514"/>
      <point x="64" y="479" type="curve" smooth="yes"/>
      <point x="64" y="170" type="line" smooth="yes"/>
      <point x="64" y="57"/>
      <point x="126" y="-8"/>
    </contour>
  </outline>
</glyph>
<glyph name="uni1D25" format="2">
  <advance width="399"/>
  <unicode hex="1D25"/>
  <anchor x="200" y="0" name="bottom"/>
  <anchor x="200" y="536" name="top"/>
  <outline>
    <contour>
      <point x="70" y="-8" type="curve" smooth="yes"/>
      <point x="120" y="-8"/>
      <point x="150" y="22"/>
      <point x="200" y="98" type="curve"/>
      <point x="257" y="30"/>
      <point x="288" y="-8"/>
      <point x="342" y="-8" type="curve" smooth="yes"/>
      <point x="397" y="-8"/>
      <point x="407" y="37"/>
      <point x="407" y="64" type="curve" smooth="yes"/>
      <point x="407" y="92"/>
      <point x="400" y="110"/>
      <point x="387" y="130" type="curve"/>
      <point x="384" y="98"/>
      <point x="351" y="80"/>
      <point x="311" y="80" type="curve" smooth="yes"/>
      <point x="279" y="80"/>
      <point x="241" y="93"/>
      <point x="214" y="119" type="curve"/>
      <point x="290" y="208"/>
      <point x="350" y="275"/>
      <point x="350" y="370" type="curve" smooth="yes"/>
      <point x="350" y="462"/>
      <point x="299" y="548"/>
      <point x="200" y="548" type="curve" smooth="yes"/>
      <point x="102" y="548"/>
      <point x="51" y="462"/>
      <point x="51" y="363" type="curve" smooth="yes"/>
      <point x="51" y="275"/>
      <point x="96" y="208"/>
      <point x="185" y="116" type="curve"/>
      <point x="163" y="92"/>
      <point x="127" y="80"/>
      <point x="95" y="80" type="curve" smooth="yes"/>
      <point x="56" y="80"/>
      <point x="19" y="98"/>
      <point x="15" y="130" type="curve"/>
      <point x="-3" y="118"/>
      <point x="-6" y="90"/>
      <point x="-6" y="64" type="curve" smooth="yes"/>
      <point x="-6" y="22"/>
      <point x="15" y="-8"/>
    </contour>
  </outline>
</glyph>
<glyph name="uni1D28" format="2">
  <advance width="505"/>
  <unicode hex="1D28"/>
  <outline>
    <contour>
      <point x="9" y="0" type="line"/>
      <point x="240" y="0" type="line"/>
      <point x="240" y="10" type="line"/>
      <point x="222" y="10" type="line" smooth="yes"/>
      <point x="205" y="10"/>
      <point x="199" y="18"/>
      <point x="199" y="59" type="curve" smooth="yes"/>
      <point x="199" y="526" type="line"/>
      <point x="304" y="526" type="line"/>
      <point x="304" y="62" type="line" smooth="yes"/>
      <point x="304" y="18"/>
      <point x="296" y="10"/>
      <point x="278" y="10" type="curve" smooth="yes"/>
      <point x="264" y="10" type="line"/>
      <point x="264" y="0" type="line"/>
      <point x="495" y="0" type="line"/>
      <point x="495" y="10" type="line"/>
      <point x="467" y="10" type="line" smooth="yes"/>
      <point x="448" y="10"/>
      <point x="443" y="19"/>
      <point x="443" y="59" type="curve" smooth="yes"/>
      <point x="443" y="477" type="line" smooth="yes"/>
      <point x="443" y="518"/>
      <point x="449" y="526"/>
      <point x="467" y="526" type="curve" smooth="yes"/>
      <point x="495" y="526" type="line"/>
      <point x="495" y="536" type="line"/>
      <point x="9" y="536" type="line"/>
      <point x="9" y="526" type="line"/>
      <point x="30" y="526" type="line" smooth="yes"/>
      <point x="60" y="526"/>
      <point x="64" y="518"/>
      <point x="64" y="476" type="curve" smooth="yes"/>
      <point x="64" y="59" type="line" smooth="yes"/>
      <point x="64" y="18"/>
      <point x="58" y="10"/>
      <point x="37" y="10" type="curve" smooth="yes"/>
      <point x="9" y="10" type="line"/>
    </contour>
  </outline>
</glyph>
<glyph name="uni1D2B" format="2">
  <advance width="470"/>
  <unicode hex="1D2B"/>
  <outline>
    <contour>
      <point x="60" y="-4" type="curve" smooth="yes"/>
      <point x="109" y="-4"/>
      <point x="145" y="39"/>
      <point x="159" y="116" type="curve" smooth="yes"/>
      <point x="173" y="191"/>
      <point x="187" y="328"/>
      <point x="195" y="526" type="curve"/>
      <point x="268" y="526" type="line"/>
      <point x="268" y="47" type="line" smooth="yes"/>
      <point x="268" y="25"/>
      <point x="280" y="10"/>
      <point x="239" y="10" type="curve" smooth="yes"/>
      <point x="207" y="10" type="line"/>
      <point x="207" y="0" type="line"/>
      <point x="460" y="0" type="line"/>
      <point x="460" y="10" type="line"/>
      <point x="422" y="10" type="line" smooth="yes"/>
      <point x="388" y="10"/>
      <point x="405" y="23"/>
      <point x="405" y="46" type="curve" smooth="yes"/>
      <point x="405" y="490" type="line" smooth="yes"/>
      <point x="405" y="513"/>
      <point x="388" y="526"/>
      <point x="422" y="526" type="curve" smooth="yes"/>
      <point x="460" y="526" type="line"/>
      <point x="460" y="536" type="line"/>
      <point x="88" y="536" type="line"/>
      <point x="88" y="526" type="line"/>
      <point x="99" y="526" type="line" smooth="yes"/>
      <point x="177" y="526"/>
      <point x="182" y="506"/>
      <point x="182" y="445" type="curve" smooth="yes"/>
      <point x="182" y="391"/>
      <point x="165" y="192"/>
      <point x="139" y="96" type="curve" smooth="yes"/>
      <point x="127" y="49"/>
      <point x="116" y="76"/>
      <point x="99" y="76" type="curve" smooth="yes"/>
      <point x="65" y="76"/>
      <point x="60" y="97"/>
      <point x="52" y="118" type="curve"/>
      <point x="9" y="120"/>
      <point x="4" y="92"/>
      <point x="4" y="61" type="curve" smooth="yes"/>
      <point x="4" y="21"/>
      <point x="24" y="-4"/>
    </contour>
  </outline>
</glyph>
<glyph name="uni1D79" format="2">
  <advance width="415"/>
  <unicode hex="1D79"/>
  <outline>
    <contour>
      <point x="207" y="-240" type="curve" smooth="yes"/>
      <point x="323" y="-240"/>
      <point x="386" y="-165"/>
      <point x="386" y="-7" type="curve" smooth="yes"/>
      <point x="386" y="59"/>
      <point x="374" y="138"/>
      <point x="322" y="210" type="curve" smooth="yes"/>
      <point x="215" y="354" type="line"/>
      <point x="364" y="480" type="line"/>
      <point x="364" y="536" type="line"/>
      <point x="51" y="536" type="line"/>
      <point x="45" y="341" type="line"/>
      <point x="51" y="341" type="line"/>
      <point x="53" y="359" type="line" smooth="yes"/>
      <point x="59" y="413"/>
      <point x="71" y="430"/>
      <point x="113" y="430" type="curve" smooth="yes"/>
      <point x="291" y="430" type="line"/>
      <point x="176" y="334" type="line"/>
      <point x="176" y="292" type="line"/>
      <point x="228" y="227" type="line"/>
      <point x="220" y="228"/>
      <point x="207" y="230"/>
      <point x="192" y="230" type="curve" smooth="yes"/>
      <point x="94" y="230"/>
      <point x="29" y="144"/>
      <point x="29" y="-5" type="curve" smooth="yes"/>
      <point x="29" y="-163"/>
      <point x="98" y="-240"/>
    </contour>
    <contour>
      <point x="208" y="-230" type="curve" smooth="yes"/>
      <point x="171" y="-230"/>
      <point x="160" y="-177"/>
      <point x="160" y="-9" type="curve" smooth="yes"/>
      <point x="160" y="165"/>
      <point x="171" y="219"/>
      <point x="208" y="219" type="curve" smooth="yes"/>
      <point x="245" y="219"/>
      <point x="256" y="165"/>
      <point x="256" y="-9" type="curve" smooth="yes"/>
      <point x="256" y="-177"/>
      <point x="245" y="-230"/>
    </contour>
  </outline>
</glyph>
<glyph name="uni1D80" format="2">
  <advance width="488"/>
  <unicode hex="1D80"/>
  <anchor x="245" y="760" name="top"/>
  <anchor x="462" y="760" name="topright"/>
  <anchor x="245" y="0" name="bottom"/>
  <outline>
    <contour>
      <point x="340" y="-204" type="curve" smooth="yes"/>
      <point x="397" y="-204"/>
      <point x="421" y="-165"/>
      <point x="421" y="-27" type="curve" smooth="yes"/>
      <point x="421" y="104" type="line"/>
      <point x="411" y="104" type="line"/>
      <point x="411" y="-37" type="line" smooth="yes"/>
      <point x="411" y="-100"/>
      <point x="396" y="-119"/>
      <point x="343" y="-119" type="curve" smooth="yes"/>
      <point x="312" y="-119"/>
      <point x="290" y="-113"/>
      <point x="284" y="-101" type="curve"/>
      <point x="278" y="-108"/>
      <point x="275" y="-123"/>
      <point x="275" y="-138" type="curve" smooth="yes"/>
      <point x="275" y="-179"/>
      <point x="294" y="-204"/>
    </contour>
    <component base="b"/>
  </outline>
</glyph>
<glyph name="uni1D95" format="2">
  <advance width="483"/>
  <unicode hex="1D95"/>
  <anchor x="217" y="536" name="top"/>
  <anchor x="217" y="0" name="bottom"/>
  <outline>
    <contour>
      <point x="486" y="-204" type="curve" smooth="yes"/>
      <point x="532" y="-204"/>
      <point x="551" y="-179"/>
      <point x="551" y="-138" type="curve" smooth="yes"/>
      <point x="551" y="-123"/>
      <point x="548" y="-108"/>
      <point x="542" y="-101" type="curve"/>
      <point x="536" y="-113"/>
      <point x="514" y="-119"/>
      <point x="484" y="-119" type="curve" smooth="yes"/>
      <point x="431" y="-119"/>
      <point x="415" y="-100"/>
      <point x="415" y="-37" type="curve" smooth="yes"/>
      <point x="415" y="280" type="line"/>
      <point x="405" y="280" type="line"/>
      <point x="405" y="-27" type="line" smooth="yes"/>
      <point x="405" y="-165"/>
      <point x="429" y="-204"/>
    </contour>
    <component base="uni0259"/>
  </outline>
</glyph>
<glyph name="macrongravecomb" format="2">
  <unicode hex="1DC6"/>
  <anchor x="6" y="536" name="_top"/>
  <anchor x="6" y="737" name="top"/>
  <outline>
    <contour>
      <point x="124" y="621" type="line"/>
      <point x="133" y="639" type="line"/>
      <point x="21" y="710" type="line"/>
      <point x="-123" y="710" type="line"/>
      <point x="-123" y="690" type="line"/>
      <point x="16" y="690" type="line"/>
    </contour>
  </outline>
</glyph>
<glyph name="flattenedopenaabove" format="2">
  <unicode hex="1DD3"/>
  <anchor x="-3" y="536" name="_top"/>
  <anchor x="-3" y="734" name="top"/>
  <outline>
    <contour>
      <point x="-43" y="616" type="curve" smooth="yes"/>
      <point x="-15" y="616"/>
      <point x="-3" y="630"/>
      <point x="1" y="658" type="curve"/>
      <point x="8" y="630"/>
      <point x="19" y="616"/>
      <point x="45" y="616" type="curve" smooth="yes"/>
      <point x="79" y="616"/>
      <point x="94" y="643"/>
      <point x="94" y="716" type="curve"/>
      <point x="84" y="716" type="line"/>
      <point x="87" y="670"/>
      <point x="72" y="650"/>
      <point x="41" y="650" type="curve" smooth="yes"/>
      <point x="19" y="650"/>
      <point x="5" y="670"/>
      <point x="5" y="716" type="curve"/>
      <point x="-5" y="716" type="line"/>
      <point x="-5" y="670"/>
      <point x="-15" y="650"/>
      <point x="-49" y="650" type="curve" smooth="yes"/>
      <point x="-72" y="650"/>
      <point x="-82" y="670"/>
      <point x="-83" y="716" type="curve"/>
      <point x="-93" y="716" type="line"/>
      <point x="-90" y="643"/>
      <point x="-75" y="616"/>
    </contour>
  </outline>
</glyph>
<glyph name="uni1FDF" format="2">
  <advance width="288"/>
  <unicode hex="1FDF"/>
  <anchor x="105" y="536" name="_top"/>
  <anchor x="105" y="848" name="top"/>
  <outline>
    <contour>
      <point x="-9" y="754" type="curve"/>
      <point x="0" y="754" type="line"/>
      <point x="2" y="769"/>
      <point x="4" y="815"/>
      <point x="50" y="815" type="curve" smooth="yes"/>
      <point x="98" y="815"/>
      <point x="143" y="749"/>
      <point x="214" y="749" type="curve" smooth="yes"/>
      <point x="264" y="749"/>
      <point x="301" y="803"/>
      <point x="299" y="871" type="curve"/>
      <point x="291" y="871" type="line"/>
      <point x="289" y="844"/>
      <point x="279" y="811"/>
      <point x="245" y="811" type="curve" smooth="yes"/>
      <point x="196" y="811"/>
      <point x="143" y="876"/>
      <point x="71" y="876" type="curve" smooth="yes"/>
      <point x="21" y="876"/>
      <point x="-8" y="821"/>
    </contour>
    <contour>
      <point x="196" y="564" type="curve"/>
      <point x="196" y="574" type="line"/>
      <point x="158" y="578"/>
      <point x="137" y="598"/>
      <point x="137" y="622" type="curve" smooth="yes"/>
      <point x="137" y="660"/>
      <point x="191" y="639"/>
      <point x="191" y="688" type="curve" smooth="yes"/>
      <point x="191" y="717"/>
      <point x="170" y="730"/>
      <point x="149" y="730" type="curve" smooth="yes"/>
      <point x="112" y="730"/>
      <point x="90" y="708"/>
      <point x="90" y="668" type="curve" smooth="yes"/>
      <point x="90" y="626"/>
      <point x="113" y="576"/>
    </contour>
  </outline>
</glyph>
<glyph name="uni1FFE" format="2">
  <advance width="370"/>
  <unicode hex="1FFE"/>
  <anchor x="181" y="536" name="_top"/>
  <anchor x="181" y="739" name="top"/>
  <outline>
    <contour>
      <point x="238" y="547" type="curve"/>
      <point x="238" y="556" type="line"/>
      <point x="205" y="563"/>
      <point x="186" y="583"/>
      <point x="186" y="604" type="curve" smooth="yes"/>
      <point x="186" y="640"/>
      <point x="231" y="620"/>
      <point x="231" y="668" type="curve" smooth="yes"/>
      <point x="231" y="696"/>
      <point x="214" y="709"/>
      <point x="195" y="709" type="curve" smooth="yes"/>
      <point x="163" y="709"/>
      <point x="145" y="691"/>
      <point x="145" y="652" type="curve" smooth="yes"/>
      <point x="145" y="614"/>
      <point x="164" y="563"/>
    </contour>
  </outline>
</glyph>
<glyph name="ellipsis" format="2">
  <advance width="729"/>
  <unicode hex="2026"/>
  <outline>
    <contour>
      <point x="122" y="-7" type="curve" smooth="yes"/>
      <point x="153" y="-7"/>
      <point x="180" y="11"/>
      <point x="180" y="72" type="curve" smooth="yes"/>
      <point x="180" y="131"/>
      <point x="153" y="151"/>
      <point x="122" y="151" type="curve" smooth="yes"/>
      <point x="87" y="151"/>
      <point x="61" y="131"/>
      <point x="61" y="72" type="curve" smooth="yes"/>
      <point x="61" y="11"/>
      <point x="87" y="-7"/>
    </contour>
    <contour>
      <point x="364" y="-7" type="curve" smooth="yes"/>
      <point x="395" y="-7"/>
      <point x="424" y="11"/>
      <point x="424" y="72" type="curve" smooth="yes"/>
      <point x="424" y="131"/>
      <point x="395" y="151"/>
      <point x="364" y="151" type="curve" smooth="yes"/>
      <point x="331" y="151"/>
      <point x="303" y="131"/>
      <point x="303" y="72" type="curve" smooth="yes"/>
      <point x="303" y="11"/>
      <point x="331" y="-7"/>
    </contour>
    <contour>
      <point x="608" y="-7" type="curve" smooth="yes"/>
      <point x="639" y="-7"/>
      <point x="668" y="11"/>
      <point x="668" y="72" type="curve" smooth="yes"/>
      <point x="668" y="131"/>
      <point x="639" y="151"/>
      <point x="608" y="151" type="curve" smooth="yes"/>
      <point x="574" y="151"/>
      <point x="547" y="131"/>
      <point x="547" y="72" type="curve" smooth="yes"/>
      <point x="547" y="11"/>
      <point x="574" y="-7"/>
    </contour>
  </outline>
</glyph>
<glyph name="second" format="2">
  <advance width="255"/>
  <unicode hex="2033"/>
  <outline>
    <contour>
      <point x="40" y="479" type="line"/>
      <point x="55" y="479" type="line"/>
      <point x="130" y="714" type="line"/>
      <point x="40" y="714" type="line"/>
    </contour>
    <contour>
      <point x="145" y="479" type="line"/>
      <point x="160" y="479" type="line"/>
      <point x="235" y="714" type="line"/>
      <point x="145" y="714" type="line"/>
    </contour>
  </outline>
</glyph>
<glyph name="guilsinglleft" format="2">
  <advance width="270"/>
  <unicode hex="2039"/>
  <outline>
    <contour>
      <point x="211" y="75" type="line"/>
      <point x="225" y="75" type="line"/>
      <point x="139" y="270" type="line"/>
      <point x="225" y="465" type="line"/>
      <point x="211" y="465" type="line"/>
      <point x="58" y="275" type="line"/>
      <point x="58" y="265" type="line"/>
    </contour>
  </outline>
</glyph>
<glyph name="tironiansignet" format="2">
  <advance width="468"/>
  <unicode hex="204A"/>
  <outline>
    <contour>
      <point x="275" y="-177" type="line"/>
      <point x="284" y="-177" type="line"/>
      <point x="400" y="475" type="line"/>
      <point x="400" y="558" type="line"/>
      <point x="316" y="546"/>
      <point x="242" y="541"/>
      <point x="182" y="541" type="curve" smooth="yes"/>
      <point x="129" y="541"/>
      <point x="77" y="551"/>
      <point x="41" y="564" type="curve"/>
      <point x="30" y="531"/>
      <point x="31" y="493"/>
      <point x="31" y="483" type="curve" smooth="yes"/>
      <point x="31" y="388"/>
      <point x="44" y="360"/>
      <point x="185" y="360" type="curve" smooth="yes"/>
      <point x="242" y="360"/>
      <point x="300" y="371"/>
      <point x="375" y="387" type="curve"/>
    </contour>
  </outline>
</glyph>
<glyph name="blackrightbullet" format="2">
  <advance width="457"/>
  <unicode hex="204D"/>
  <outline>
    <contour>
      <point x="30" y="188" type="line"/>
      <point x="297" y="188" type="line" smooth="yes"/>
      <point x="380" y="188"/>
      <point x="429" y="259"/>
      <point x="429" y="366" type="curve" smooth="yes"/>
      <point x="429" y="473"/>
      <point x="380" y="544"/>
      <point x="297" y="544" type="curve" smooth="yes"/>
      <point x="30" y="544" type="line"/>
      <point x="30" y="534" type="line"/>
      <point x="40" y="534" type="line" smooth="yes"/>
      <point x="78" y="534"/>
      <point x="98" y="514"/>
      <point x="98" y="471" type="curve" smooth="yes"/>
      <point x="98" y="261" type="line" smooth="yes"/>
      <point x="98" y="215"/>
      <point x="79" y="198"/>
      <point x="40" y="198" type="curve" smooth="yes"/>
      <point x="30" y="198" type="line"/>
    </contour>
    <contour>
      <point x="156" y="198" type="line"/>
      <point x="156" y="534" type="line"/>
      <point x="226" y="534" type="line"/>
      <point x="226" y="198" type="line"/>
    </contour>
  </outline>
</glyph>
<glyph name="closeup" format="2">
  <advance width="577"/>
  <unicode hex="2050"/>
  <outline>
    <contour>
      <point x="31" y="532" type="curve"/>
      <point x="41" y="532" type="line"/>
      <point x="70" y="611"/>
      <point x="122" y="675"/>
      <point x="287" y="675" type="curve" smooth="yes"/>
      <point x="456" y="675"/>
      <point x="508" y="609"/>
      <point x="537" y="532" type="curve"/>
      <point x="547" y="532" type="line"/>
      <point x="507" y="657"/>
      <point x="398" y="725"/>
      <point x="287" y="725" type="curve" smooth="yes"/>
      <point x="179" y="725"/>
      <point x="72" y="657"/>
    </contour>
    <contour>
      <point x="287" y="-10" type="curve" smooth="yes"/>
      <point x="398" y="-10"/>
      <point x="507" y="59"/>
      <point x="547" y="185" type="curve"/>
      <point x="537" y="185" type="line"/>
      <point x="508" y="106"/>
      <point x="456" y="40"/>
      <point x="287" y="40" type="curve" smooth="yes"/>
      <point x="122" y="40"/>
      <point x="70" y="108"/>
      <point x="41" y="185" type="curve"/>
      <point x="31" y="185" type="line"/>
      <point x="72" y="59"/>
      <point x="179" y="-10"/>
    </contour>
  </outline>
</glyph>
<glyph name="fivedotpunctuation" format="2">
  <advance width="582"/>
  <unicode hex="2059"/>
  <outline>
    <contour>
      <point x="469" y="381" type="curve" smooth="yes"/>
      <point x="507" y="381"/>
      <point x="539" y="403"/>
      <point x="539" y="462" type="curve" smooth="yes"/>
      <point x="539" y="522"/>
      <point x="507" y="541"/>
      <point x="469" y="541" type="curve" smooth="yes"/>
      <point x="430" y="541"/>
      <point x="400" y="522"/>
      <point x="400" y="462" type="curve" smooth="yes"/>
      <point x="400" y="403"/>
      <point x="430" y="381"/>
    </contour>
    <contour>
      <point x="115" y="-7" type="curve" smooth="yes"/>
      <point x="151" y="-7"/>
      <point x="182" y="11"/>
      <point x="182" y="72" type="curve" smooth="yes"/>
      <point x="182" y="131"/>
      <point x="151" y="151"/>
      <point x="115" y="151" type="curve" smooth="yes"/>
      <point x="74" y="151"/>
      <point x="44" y="131"/>
      <point x="44" y="72" type="curve" smooth="yes"/>
      <point x="44" y="11"/>
      <point x="74" y="-7"/>
    </contour>
    <contour>
      <point x="471" y="-7" type="curve" smooth="yes"/>
      <point x="508" y="-7"/>
      <point x="540" y="13"/>
      <point x="540" y="72" type="curve" smooth="yes"/>
      <point x="540" y="133"/>
      <point x="508" y="152"/>
      <point x="471" y="152" type="curve" smooth="yes"/>
      <point x="432" y="152"/>
      <point x="400" y="133"/>
      <point x="400" y="72" type="curve" smooth="yes"/>
      <point x="400" y="13"/>
      <point x="432" y="-7"/>
    </contour>
    <contour>
      <point x="290" y="186" type="curve" smooth="yes"/>
      <point x="328" y="186"/>
      <point x="360" y="206"/>
      <point x="360" y="265" type="curve" smooth="yes"/>
      <point x="360" y="325"/>
      <point x="328" y="344"/>
      <point x="290" y="344" type="curve" smooth="yes"/>
      <point x="250" y="344"/>
      <point x="221" y="325"/>
      <point x="221" y="265" type="curve" smooth="yes"/>
      <point x="221" y="206"/>
      <point x="250" y="186"/>
    </contour>
    <contour>
      <point x="113" y="381" type="curve" smooth="yes"/>
      <point x="149" y="381"/>
      <point x="183" y="401"/>
      <point x="183" y="460" type="curve" smooth="yes"/>
      <point x="183" y="522"/>
      <point x="149" y="541"/>
      <point x="113" y="541" type="curve" smooth="yes"/>
      <point x="73" y="541"/>
      <point x="42" y="522"/>
      <point x="42" y="460" type="curve" smooth="yes"/>
      <point x="42" y="401"/>
      <point x="73" y="381"/>
    </contour>
  </outline>
</glyph>
<glyph name="dottedcross" format="2">
  <advance width="504"/>
  <unicode hex="205C"/>
  <outline>
    <contour>
      <point x="142" y="0" type="curve" smooth="yes"/>
      <point x="170" y="0"/>
      <point x="195" y="16"/>
      <point x="195" y="68" type="curve" smooth="yes"/>
      <point x="195" y="123"/>
      <point x="170" y="140"/>
      <point x="142" y="140" type="curve" smooth="yes"/>
      <point x="113" y="140"/>
      <point x="91" y="123"/>
      <point x="91" y="68" type="curve" smooth="yes"/>
      <point x="91" y="16"/>
      <point x="113" y="0"/>
    </contour>
    <contour>
      <point x="144" y="396" type="curve" smooth="yes"/>
      <point x="172" y="396"/>
      <point x="195" y="413"/>
      <point x="195" y="465" type="curve" smooth="yes"/>
      <point x="195" y="519"/>
      <point x="172" y="536"/>
      <point x="144" y="536" type="curve" smooth="yes"/>
      <point x="115" y="536"/>
      <point x="91" y="519"/>
      <point x="91" y="465" type="curve" smooth="yes"/>
      <point x="91" y="413"/>
      <point x="115" y="396"/>
    </contour>
    <contour>
      <point x="357" y="0" type="curve" smooth="yes"/>
      <point x="386" y="0"/>
      <point x="410" y="18"/>
      <point x="410" y="70" type="curve" smooth="yes"/>
      <point x="410" y="124"/>
      <point x="386" y="140"/>
      <point x="357" y="140" type="curve" smooth="yes"/>
      <point x="328" y="140"/>
      <point x="306" y="124"/>
      <point x="306" y="70" type="curve" smooth="yes"/>
      <point x="306" y="18"/>
      <point x="328" y="0"/>
    </contour>
    <contour>
      <point x="359" y="396" type="curve" smooth="yes"/>
      <point x="387" y="396"/>
      <point x="410" y="414"/>
      <point x="410" y="466" type="curve" smooth="yes"/>
      <point x="410" y="521"/>
      <point x="387" y="536"/>
      <point x="359" y="536" type="curve" smooth="yes"/>
      <point x="330" y="536"/>
      <point x="306" y="521"/>
      <point x="306" y="466" type="curve" smooth="yes"/>
      <point x="306" y="414"/>
      <point x="330" y="396"/>
    </contour>
    <contour>
      <point x="242" y="0" type="line"/>
      <point x="262" y="0" type="line"/>
      <point x="262" y="259" type="line"/>
      <point x="410" y="259" type="line"/>
      <point x="410" y="279" type="line"/>
      <point x="262" y="279" type="line"/>
      <point x="262" y="536" type="line"/>
      <point x="242" y="536" type="line"/>
      <point x="242" y="279" type="line"/>
      <point x="91" y="279" type="line"/>
      <point x="91" y="259" type="line"/>
      <point x="242" y="259" type="line"/>
    </contour>
  </outline>
</glyph>
<glyph name="imod" format="2">
  <advance width="176"/>
  <unicode hex="2071"/>
  <anchor x="89" y="287" name="bottom"/>
  <anchor x="84" y="748" name="top"/>
  <anchor x="165" y="747" name="topright"/>
  <outline>
    <contour>
      <point x="6" y="287" type="line"/>
      <point x="167" y="287" type="line"/>
      <point x="167" y="293" type="line"/>
      <point x="162" y="293" type="line" smooth="yes"/>
      <point x="144" y="293"/>
      <point x="132" y="301"/>
      <point x="132" y="336" type="curve" smooth="yes"/>
      <point x="132" y="609" type="line"/>
      <point x="2" y="609" type="line"/>
      <point x="2" y="603" type="line"/>
      <point x="10" y="603" type="line" smooth="yes"/>
      <point x="27" y="603"/>
      <point x="40" y="594"/>
      <point x="40" y="562" type="curve" smooth="yes"/>
      <point x="40" y="336" type="line" smooth="yes"/>
      <point x="40" y="302"/>
      <point x="28" y="293"/>
      <point x="10" y="293" type="curve" smooth="yes"/>
      <point x="6" y="293" type="line"/>
    </contour>
    <contour>
      <point x="84" y="664" type="curve" smooth="yes"/>
      <point x="108" y="664"/>
      <point x="127" y="677"/>
      <point x="127" y="706" type="curve" smooth="yes"/>
      <point x="127" y="735"/>
      <point x="108" y="747"/>
      <point x="84" y="747" type="curve" smooth="yes"/>
      <point x="60" y="747"/>
      <point x="41" y="735"/>
      <point x="41" y="706" type="curve" smooth="yes"/>
      <point x="41" y="677"/>
      <point x="60" y="664"/>
    </contour>
  </outline>
</glyph>
<glyph name="foursuperior" format="2">
  <advance width="282"/>
  <unicode hex="2074"/>
  <outline>
    <contour>
      <point x="82" y="387" type="line"/>
      <point x="280" y="387" type="line"/>
      <point x="280" y="397" type="line"/>
      <point x="266" y="397" type="line" smooth="yes"/>
      <point x="247" y="397"/>
      <point x="231" y="401"/>
      <point x="231" y="438" type="curve" smooth="yes"/>
      <point x="231" y="504" type="line"/>
      <point x="282" y="504" type="line"/>
      <point x="282" y="549" type="line"/>
      <point x="231" y="549" type="line"/>
      <point x="231" y="819" type="line"/>
      <point x="144" y="819" type="line"/>
      <point x="6" y="536" type="line"/>
      <point x="6" y="504" type="line"/>
      <point x="139" y="504" type="line"/>
      <point x="139" y="438" type="line" smooth="yes"/>
      <point x="139" y="401"/>
      <point x="123" y="397"/>
      <point x="106" y="397" type="curve" smooth="yes"/>
      <point x="82" y="397" type="line"/>
    </contour>
    <contour>
      <point x="23" y="549" type="line"/>
      <point x="138" y="777" type="line" smooth="yes"/>
      <point x="136" y="776"/>
      <point x="142" y="785"/>
      <point x="140" y="786" type="curve"/>
      <point x="139" y="758"/>
      <point x="139" y="780"/>
      <point x="139" y="747" type="curve" smooth="yes"/>
      <point x="139" y="549" type="line"/>
    </contour>
  </outline>
</glyph>
<glyph name="parenrightsuperior" format="2">
  <advance width="180"/>
  <unicode hex="207E"/>
  <outline>
    <contour>
      <point x="5" y="196" type="line"/>
      <point x="123" y="247"/>
      <point x="169" y="297"/>
      <point x="169" y="490" type="curve" smooth="yes"/>
      <point x="169" y="669"/>
      <point x="103" y="737"/>
      <point x="5" y="788" type="curve"/>
      <point x="5" y="778" type="line"/>
      <point x="73" y="713"/>
      <point x="92" y="641"/>
      <point x="92" y="490" type="curve" smooth="yes"/>
      <point x="92" y="332"/>
      <point x="73" y="268"/>
      <point x="5" y="206" type="curve"/>
    </contour>
  </outline>
</glyph>
<glyph name="uni20A0" format="2">
  <advance width="617"/>
  <unicode hex="20A0"/>
  <outline>
    <contour>
      <point x="239" y="0" type="line"/>
      <point x="589" y="0" type="line"/>
      <point x="595" y="132" type="line"/>
      <point x="585" y="132" type="line"/>
      <point x="584" y="110" type="line" smooth="yes"/>
      <point x="578" y="34"/>
      <point x="552" y="10"/>
      <point x="473" y="10" type="curve" smooth="yes"/>
      <point x="413" y="10" type="line"/>
      <point x="413" y="254" type="line"/>
      <point x="546" y="254" type="line"/>
      <point x="546" y="264" type="line"/>
      <point x="413" y="264" type="line"/>
      <point x="413" y="483" type="line"/>
      <point x="455" y="483" type="line" smooth="yes"/>
      <point x="534" y="483"/>
      <point x="562" y="459"/>
      <point x="565" y="383" type="curve" smooth="yes"/>
      <point x="567" y="361" type="line"/>
      <point x="577" y="361" type="line"/>
      <point x="572" y="493" type="line"/>
      <point x="239" y="493" type="line"/>
      <point x="239" y="483" type="line"/>
      <point x="259" y="483" type="line" smooth="yes"/>
      <point x="289" y="483"/>
      <point x="287" y="479"/>
      <point x="287" y="445" type="curve" smooth="yes"/>
      <point x="287" y="264" type="line"/>
      <point x="277" y="264" type="line" smooth="yes"/>
      <point x="184" y="264"/>
      <point x="155" y="317"/>
      <point x="155" y="480" type="curve" smooth="yes"/>
      <point x="155" y="657"/>
      <point x="170" y="712"/>
      <point x="220" y="712" type="curve" smooth="yes"/>
      <point x="261" y="712"/>
      <point x="274" y="679"/>
      <point x="274" y="579" type="curve"/>
      <point x="336" y="579"/>
      <point x="370" y="606"/>
      <point x="370" y="636" type="curve" smooth="yes"/>
      <point x="370" y="684"/>
      <point x="333" y="722"/>
      <point x="211" y="722" type="curve" smooth="yes"/>
      <point x="62" y="722"/>
      <point x="24" y="619"/>
      <point x="24" y="493" type="curve" smooth="yes"/>
      <point x="24" y="370"/>
      <point x="67" y="254"/>
      <point x="270" y="254" type="curve" smooth="yes"/>
      <point x="287" y="254" type="line"/>
      <point x="287" y="44" type="line" smooth="yes"/>
      <point x="287" y="14"/>
      <point x="274" y="10"/>
      <point x="259" y="10" type="curve" smooth="yes"/>
      <point x="239" y="10" type="line"/>
    </contour>
  </outline>
</glyph>
<glyph name="Euro" format="2">
  <advance width="404"/>
  <unicode hex="20AC"/>
  <outline>
    <contour>
      <point x="261" y="-10" type="curve" smooth="yes"/>
      <point x="349" y="-10"/>
      <point x="395" y="47"/>
      <point x="395" y="91" type="curve" smooth="yes"/>
      <point x="395" y="127"/>
      <point x="372" y="151"/>
      <point x="333" y="155" type="curve"/>
      <point x="318" y="45"/>
      <point x="311" y="0"/>
      <point x="257" y="0" type="curve" smooth="yes"/>
      <point x="199" y="0"/>
      <point x="178" y="83"/>
      <point x="175" y="300" type="curve"/>
      <point x="276" y="300" type="line"/>
      <point x="276" y="310" type="line"/>
      <point x="175" y="310" type="line"/>
      <point x="174" y="420" type="line"/>
      <point x="304" y="420" type="line"/>
      <point x="304" y="430" type="line"/>
      <point x="174" y="430" type="line"/>
      <point x="177" y="630"/>
      <point x="195" y="712"/>
      <point x="238" y="712" type="curve" smooth="yes"/>
      <point x="273" y="712"/>
      <point x="288" y="665"/>
      <point x="288" y="539" type="curve"/>
      <point x="366" y="539"/>
      <point x="398" y="564"/>
      <point x="398" y="612" type="curve" smooth="yes"/>
      <point x="398" y="670"/>
      <point x="340" y="722"/>
      <point x="254" y="722" type="curve" smooth="yes"/>
      <point x="122" y="722"/>
      <point x="56" y="627"/>
      <point x="43" y="430" type="curve"/>
      <point x="12" y="430" type="line"/>
      <point x="12" y="420" type="line"/>
      <point x="43" y="420" type="line"/>
      <point x="42" y="310" type="line"/>
      <point x="12" y="310" type="line"/>
      <point x="12" y="300" type="line"/>
      <point x="43" y="300" type="line"/>
      <point x="51" y="85"/>
      <point x="120" y="-10"/>
    </contour>
  </outline>
</glyph>
<glyph name="uni20BB" format="2">
  <advance width="471"/>
  <unicode hex="20BB"/>
  <outline>
    <contour>
      <point x="300" y="-10" type="curve" smooth="yes"/>
      <point x="387" y="-10"/>
      <point x="428" y="31"/>
      <point x="428" y="110" type="curve" smooth="yes"/>
      <point x="428" y="137"/>
      <point x="415" y="162"/>
      <point x="397" y="173" type="curve"/>
      <point x="387" y="120"/>
      <point x="358" y="84"/>
      <point x="297" y="84" type="curve" smooth="yes"/>
      <point x="215" y="84"/>
      <point x="178" y="155"/>
      <point x="177" y="307" type="curve"/>
      <point x="207" y="346" type="line"/>
      <point x="248" y="226" type="line"/>
      <point x="300" y="329" type="line"/>
      <point x="336" y="224" type="line"/>
      <point x="384" y="235"/>
      <point x="441" y="297"/>
      <point x="441" y="412" type="curve" smooth="yes"/>
      <point x="441" y="543"/>
      <point x="379" y="590"/>
      <point x="289" y="590" type="curve" smooth="yes"/>
      <point x="249" y="590"/>
      <point x="219" y="578"/>
      <point x="177" y="569" type="curve"/>
      <point x="178" y="680"/>
      <point x="149" y="724"/>
      <point x="92" y="724" type="curve" smooth="yes"/>
      <point x="41" y="724"/>
      <point x="11" y="690"/>
      <point x="11" y="597" type="curve" smooth="yes"/>
      <point x="11" y="530"/>
      <point x="30" y="466"/>
      <point x="121" y="466" type="curve" smooth="yes"/>
      <point x="135" y="466"/>
      <point x="150" y="470"/>
      <point x="170" y="475" type="curve"/>
      <point x="170" y="311" type="line"/>
      <point x="72" y="185" type="line"/>
      <point x="77" y="177" type="line"/>
      <point x="170" y="298" type="line"/>
      <point x="170" y="64"/>
      <point x="202" y="-10"/>
    </contour>
    <contour>
      <point x="83" y="559" type="curve" smooth="yes"/>
      <point x="40" y="559"/>
      <point x="18" y="571"/>
      <point x="18" y="606" type="curve" smooth="yes"/>
      <point x="18" y="641"/>
      <point x="55" y="653"/>
      <point x="93" y="653" type="curve" smooth="yes"/>
      <point x="151" y="653"/>
      <point x="174" y="629"/>
      <point x="171" y="567" type="curve"/>
      <point x="147" y="564"/>
      <point x="118" y="559"/>
    </contour>
    <contour>
      <point x="375" y="259" type="curve"/>
      <point x="325" y="397" type="line"/>
      <point x="273" y="295" type="line"/>
      <point x="236" y="397" type="line"/>
      <point x="177" y="320" type="line"/>
      <point x="177" y="478" type="line"/>
      <point x="208" y="485"/>
      <point x="249" y="495"/>
      <point x="307" y="495" type="curve" smooth="yes"/>
      <point x="383" y="495"/>
      <point x="426" y="465"/>
      <point x="426" y="390" type="curve" smooth="yes"/>
      <point x="426" y="329"/>
      <point x="407" y="279"/>
    </contour>
  </outline>
</glyph>
<glyph name="manat" format="2">
  <advance width="856"/>
  <unicode hex="20BC"/>
  <outline>
    <contour>
      <point x="80" y="0" type="line"/>
      <point x="218" y="0" type="line"/>
      <point x="218" y="337" type="line" smooth="yes"/>
      <point x="218" y="447"/>
      <point x="247" y="557"/>
      <point x="328" y="584" type="curve"/>
      <point x="328" y="0" type="line"/>
      <point x="526" y="0" type="line"/>
      <point x="526" y="585" type="line"/>
      <point x="609" y="560"/>
      <point x="636" y="457"/>
      <point x="636" y="337" type="curve" smooth="yes"/>
      <point x="636" y="0" type="line"/>
      <point x="776" y="0" type="line"/>
      <point x="776" y="330" type="line" smooth="yes"/>
      <point x="776" y="431"/>
      <point x="682" y="567"/>
      <point x="526" y="595" type="curve"/>
      <point x="526" y="740" type="line"/>
      <point x="328" y="740" type="line"/>
      <point x="328" y="595" type="line"/>
      <point x="173" y="570"/>
      <point x="80" y="437"/>
      <point x="80" y="330" type="curve" smooth="yes"/>
    </contour>
  </outline>
</glyph>
<glyph name="servicemark" format="2">
  <advance width="570"/>
  <unicode hex="2120"/>
  <outline>
    <contour>
      <point x="215" y="368" type="line"/>
      <point x="303" y="368" type="line"/>
      <point x="303" y="378" type="line"/>
      <point x="275" y="378"/>
      <point x="266" y="382"/>
      <point x="266" y="409" type="curve" smooth="yes"/>
      <point x="266" y="675" type="line"/>
      <point x="354" y="368" type="line"/>
      <point x="379" y="368" type="line"/>
      <point x="461" y="695" type="line"/>
      <point x="461" y="406" type="line" smooth="yes"/>
      <point x="461" y="383"/>
      <point x="450" y="378"/>
      <point x="433" y="378" type="curve"/>
      <point x="433" y="368" type="line"/>
      <point x="540" y="368" type="line"/>
      <point x="540" y="378" type="line"/>
      <point x="532" y="378" type="line" smooth="yes"/>
      <point x="515" y="378"/>
      <point x="504" y="382"/>
      <point x="504" y="409" type="curve" smooth="yes"/>
      <point x="504" y="674" type="line" smooth="yes"/>
      <point x="504" y="701"/>
      <point x="515" y="704"/>
      <point x="532" y="704" type="curve" smooth="yes"/>
      <point x="540" y="704" type="line"/>
      <point x="540" y="714" type="line"/>
      <point x="455" y="714" type="line"/>
      <point x="382" y="420" type="line"/>
      <point x="299" y="714" type="line"/>
      <point x="215" y="714" type="line"/>
      <point x="215" y="704" type="line"/>
      <point x="229" y="704" type="line" smooth="yes"/>
      <point x="244" y="704"/>
      <point x="256" y="700"/>
      <point x="256" y="675" type="curve" smooth="yes"/>
      <point x="256" y="407" type="line" smooth="yes"/>
      <point x="256" y="383"/>
      <point x="244" y="378"/>
      <point x="229" y="378" type="curve" smooth="yes"/>
      <point x="215" y="378" type="line"/>
    </contour>
    <contour>
      <point x="93" y="359" type="curve" smooth="yes"/>
      <point x="154" y="359"/>
      <point x="189" y="396"/>
      <point x="189" y="459" type="curve" smooth="yes"/>
      <point x="189" y="517"/>
      <point x="160" y="542"/>
      <point x="112" y="568" type="curve" smooth="yes"/>
      <point x="70" y="591"/>
      <point x="46" y="601"/>
      <point x="46" y="646" type="curve" smooth="yes"/>
      <point x="46" y="690"/>
      <point x="68" y="712"/>
      <point x="95" y="712" type="curve" smooth="yes"/>
      <point x="131" y="712"/>
      <point x="144" y="673"/>
      <point x="144" y="623" type="curve"/>
      <point x="164" y="623"/>
      <point x="182" y="635"/>
      <point x="182" y="660" type="curve" smooth="yes"/>
      <point x="182" y="695"/>
      <point x="149" y="722"/>
      <point x="99" y="722" type="curve" smooth="yes"/>
      <point x="46" y="722"/>
      <point x="12" y="689"/>
      <point x="12" y="626" type="curve" smooth="yes"/>
      <point x="12" y="565"/>
      <point x="43" y="540"/>
      <point x="85" y="517" type="curve" smooth="yes"/>
      <point x="127" y="493"/>
      <point x="153" y="483"/>
      <point x="153" y="438" type="curve" smooth="yes"/>
      <point x="153" y="392"/>
      <point x="126" y="369"/>
      <point x="98" y="369" type="curve" smooth="yes"/>
      <point x="59" y="369"/>
      <point x="43" y="408"/>
      <point x="43" y="471" type="curve"/>
      <point x="23" y="471"/>
      <point x="7" y="454"/>
      <point x="7" y="426" type="curve" smooth="yes"/>
      <point x="7" y="388"/>
      <point x="39" y="359"/>
    </contour>
  </outline>
</glyph>
<glyph name="uni2C62" format="2">
  <advance width="489"/>
  <unicode hex="2C62"/>
  <anchor x="244" y="0" name="bottom"/>
  <anchor x="244" y="714" name="top"/>
  <anchor x="469" y="714" name="topright"/>
  <anchor x="244" y="357" name="center"/>
  <outline>
    <contour>
      <point x="-21" y="266" type="curve"/>
      <point x="-14" y="266" type="line"/>
      <point x="-9" y="296"/>
      <point x="-6" y="337"/>
      <point x="29" y="337" type="curve" smooth="yes"/>
      <point x="99" y="337"/>
      <point x="196" y="254"/>
      <point x="252" y="254" type="curve" smooth="yes"/>
      <point x="293" y="254"/>
      <point x="329" y="327"/>
      <point x="332" y="402" type="curve"/>
      <point x="324" y="402" type="line"/>
      <point x="319" y="370"/>
      <point x="314" y="330"/>
      <point x="282" y="330" type="curve" smooth="yes"/>
      <point x="199" y="330"/>
      <point x="110" y="412"/>
      <point x="53" y="412" type="curve" smooth="yes"/>
      <point x="11" y="412"/>
      <point x="-19" y="337"/>
    </contour>
    <component base="L"/>
  </outline>
</glyph>
<glyph name="enotch" format="2">
  <advance width="520"/>
  <unicode hex="2C78"/>
  <anchor x="261" y="0" name="bottom"/>
  <anchor x="261" y="536" name="top"/>
  <outline>
    <contour>
      <point x="427" y="-9" type="curve" smooth="yes"/>
      <point x="488" y="-9"/>
      <point x="520" y="32"/>
      <point x="520" y="86" type="curve" smooth="yes"/>
      <point x="520" y="122"/>
      <point x="507" y="139"/>
      <point x="485" y="143" type="curve"/>
      <point x="485" y="30"/>
      <point x="464" y="1"/>
      <point x="424" y="1" type="curve" smooth="yes"/>
      <point x="387" y="1"/>
      <point x="362" y="25"/>
      <point x="353" y="119" type="curve"/>
      <point x="344" y="39"/>
      <point x="302" y="1"/>
      <point x="252" y="1" type="curve" smooth="yes"/>
      <point x="184" y="1"/>
      <point x="169" y="68"/>
      <point x="169" y="285" type="curve"/>
      <point x="406" y="285" type="line"/>
      <point x="406" y="307" type="line" smooth="yes"/>
      <point x="406" y="465"/>
      <point x="337" y="549"/>
      <point x="223" y="549" type="curve" smooth="yes"/>
      <point x="100" y="549"/>
      <point x="29" y="452"/>
      <point x="29" y="264" type="curve" smooth="yes"/>
      <point x="29" y="91"/>
      <point x="84" y="-8"/>
      <point x="245" y="-8" type="curve" smooth="yes"/>
      <point x="289" y="-8"/>
      <point x="318" y="2"/>
      <point x="346" y="23" type="curve"/>
      <point x="376" y="0"/>
      <point x="400" y="-9"/>
    </contour>
    <contour>
      <point x="169" y="295" type="line"/>
      <point x="169" y="497"/>
      <point x="182" y="539"/>
      <point x="222" y="539" type="curve" smooth="yes"/>
      <point x="259" y="539"/>
      <point x="267" y="497"/>
      <point x="267" y="295" type="curve"/>
    </contour>
  </outline>
</glyph>
<glyph name="uni2C7F" format="2">
  <advance width="523"/>
  <unicode hex="2C7F"/>
  <outline>
    <contour>
      <point x="383" y="-240" type="curve" smooth="yes"/>
      <point x="451" y="-240"/>
      <point x="485" y="-201"/>
      <point x="485" y="-145" type="curve" smooth="yes"/>
      <point x="485" y="-97"/>
      <point x="460" y="-74"/>
      <point x="419" y="-72" type="curve"/>
      <point x="419" y="-118"/>
      <point x="404" y="-150"/>
      <point x="367" y="-150" type="curve" smooth="yes"/>
      <point x="332" y="-150"/>
      <point x="307" y="-116"/>
      <point x="278" y="-79" type="curve" smooth="yes"/>
      <point x="250" y="-44"/>
      <point x="223" y="-7"/>
      <point x="186" y="7" type="curve"/>
      <point x="470" y="704" type="line"/>
      <point x="470" y="714" type="line"/>
      <point x="53" y="714" type="line"/>
      <point x="47" y="523" type="line"/>
      <point x="58" y="523" type="line"/>
      <point x="61" y="591" type="line" smooth="yes"/>
      <point x="62" y="668"/>
      <point x="107" y="704"/>
      <point x="201" y="704" type="curve" smooth="yes"/>
      <point x="311" y="704" type="line"/>
      <point x="28" y="10" type="line"/>
      <point x="28" y="0" type="line"/>
      <point x="129" y="0" type="line" smooth="yes"/>
      <point x="192" y="0"/>
      <point x="215" y="-52"/>
      <point x="238" y="-108" type="curve" smooth="yes"/>
      <point x="265" y="-172"/>
      <point x="292" y="-240"/>
    </contour>
  </outline>
</glyph>
<glyph name="uni2E17" format="2">
  <advance width="294"/>
  <unicode hex="2E17"/>
  <outline>
    <contour>
      <point x="14" y="255" type="line"/>
      <point x="287" y="424" type="line"/>
      <point x="281" y="437" type="line"/>
      <point x="8" y="268" type="line"/>
    </contour>
    <contour>
      <point x="14" y="205" type="line"/>
      <point x="287" y="374" type="line"/>
      <point x="281" y="387" type="line"/>
      <point x="8" y="218" type="line"/>
    </contour>
  </outline>
</glyph>
<glyph name="tildedotbelow" format="2">
  <advance width="414"/>
  <unicode hex="2E1F"/>
  <outline>
    <contour>
      <point x="7" y="287" type="line"/>
      <point x="34" y="320"/>
      <point x="72" y="346"/>
      <point x="104" y="346" type="curve" smooth="yes"/>
      <point x="128" y="346"/>
      <point x="153" y="340"/>
      <point x="192" y="319" type="curve" smooth="yes"/>
      <point x="244" y="291"/>
      <point x="273" y="287"/>
      <point x="306" y="287" type="curve" smooth="yes"/>
      <point x="346" y="287"/>
      <point x="381" y="306"/>
      <point x="408" y="341" type="curve"/>
      <point x="408" y="418" type="line"/>
      <point x="381" y="385"/>
      <point x="343" y="359"/>
      <point x="309" y="359" type="curve" smooth="yes"/>
      <point x="286" y="359"/>
      <point x="262" y="363"/>
      <point x="222" y="386" type="curve" smooth="yes"/>
      <point x="171" y="415"/>
      <point x="141" y="418"/>
      <point x="108" y="418" type="curve" smooth="yes"/>
      <point x="69" y="418"/>
      <point x="34" y="400"/>
      <point x="7" y="365" type="curve"/>
    </contour>
    <contour>
      <point x="207" y="121" type="curve" smooth="yes"/>
      <point x="229" y="121"/>
      <point x="247" y="139"/>
      <point x="247" y="182" type="curve" smooth="yes"/>
      <point x="247" y="227"/>
      <point x="229" y="242"/>
      <point x="207" y="242" type="curve" smooth="yes"/>
      <point x="183" y="242"/>
      <point x="165" y="227"/>
      <point x="165" y="182" type="curve" smooth="yes"/>
      <point x="165" y="139"/>
      <point x="183" y="121"/>
    </contour>
  </outline>
</glyph>
<glyph name="leftverticalbarwithquill" format="2">
  <advance width="404"/>
  <unicode hex="2E20"/>
  <outline>
    <contour>
      <point x="200" y="-240" type="line"/>
      <point x="340" y="-240" type="line"/>
      <point x="340" y="255" type="line"/>
      <point x="436" y="255" type="line"/>
      <point x="436" y="265" type="line"/>
      <point x="340" y="265" type="line"/>
      <point x="340" y="760" type="line"/>
      <point x="200" y="760" type="line"/>
    </contour>
  </outline>
</glyph>
<glyph name="tophalfsectionsign" format="2">
  <advance width="394"/>
  <unicode hex="2E39"/>
  <outline>
    <contour>
      <point x="230" y="134" type="curve"/>
      <point x="349" y="196"/>
      <point x="378" y="235"/>
      <point x="378" y="294" type="curve" smooth="yes"/>
      <point x="378" y="389"/>
      <point x="313" y="431"/>
      <point x="229" y="486" type="curve" smooth="yes"/>
      <point x="119" y="554"/>
      <point x="132" y="594"/>
      <point x="132" y="636" type="curve" smooth="yes"/>
      <point x="132" y="705"/>
      <point x="156" y="748"/>
      <point x="197" y="748" type="curve" smooth="yes"/>
      <point x="234" y="748"/>
      <point x="262" y="683"/>
      <point x="262" y="581" type="curve"/>
      <point x="301" y="581"/>
      <point x="342" y="606"/>
      <point x="342" y="657" type="curve" smooth="yes"/>
      <point x="342" y="714"/>
      <point x="297" y="760"/>
      <point x="214" y="760" type="curve" smooth="yes"/>
      <point x="119" y="760"/>
      <point x="55" y="708"/>
      <point x="55" y="592" type="curve" smooth="yes"/>
      <point x="55" y="539"/>
      <point x="66" y="505"/>
      <point x="94" y="472" type="curve"/>
      <point x="72" y="448"/>
      <point x="40" y="421"/>
      <point x="40" y="351" type="curve" smooth="yes"/>
      <point x="40" y="328"/>
      <point x="9" y="271"/>
      <point x="121" y="207" type="curve" smooth="yes"/>
      <point x="180" y="174"/>
      <point x="207" y="147"/>
    </contour>
    <contour>
      <point x="311" y="193" type="curve"/>
      <point x="284" y="226"/>
      <point x="237" y="253"/>
      <point x="219" y="266" type="curve" smooth="yes"/>
      <point x="96" y="337"/>
      <point x="92" y="364"/>
      <point x="92" y="401" type="curve" smooth="yes"/>
      <point x="92" y="421"/>
      <point x="98" y="445"/>
      <point x="106" y="460" type="curve"/>
      <point x="130" y="435"/>
      <point x="165" y="410"/>
      <point x="220" y="377" type="curve" smooth="yes"/>
      <point x="293" y="329"/>
      <point x="323" y="284"/>
      <point x="323" y="241" type="curve" smooth="yes"/>
      <point x="323" y="224"/>
      <point x="319" y="205"/>
    </contour>
  </outline>
</glyph>
<glyph name="uniA642" format="2">
  <advance width="523"/>
  <unicode hex="A642"/>
  <outline>
    <contour>
      <point x="59" y="361" type="line"/>
      <point x="442" y="361" type="line"/>
      <point x="442" y="371" type="line"/>
      <point x="59" y="371" type="line"/>
    </contour>
    <component base="uniA640"/>
  </outline>
</glyph>
<glyph name="uniA64C" format="2">
  <advance width="828"/>
  <unicode hex="A64C"/>
  <outline>
    <contour>
      <point x="259" y="-10" type="curve" smooth="yes"/>
      <point x="329" y="-10"/>
      <point x="382" y="24"/>
      <point x="414" y="70" type="curve"/>
      <point x="445" y="23"/>
      <point x="486" y="-10"/>
      <point x="563" y="-10" type="curve" smooth="yes"/>
      <point x="707" y="-10"/>
      <point x="788" y="145"/>
      <point x="788" y="367" type="curve" smooth="yes"/>
      <point x="788" y="593"/>
      <point x="716" y="724"/>
      <point x="574" y="724" type="curve" smooth="yes"/>
      <point x="504" y="724"/>
      <point x="441" y="691"/>
      <point x="441" y="610" type="curve" smooth="yes"/>
      <point x="441" y="571"/>
      <point x="462" y="544"/>
      <point x="530" y="544" type="curve"/>
      <point x="534" y="673"/>
      <point x="544" y="714"/>
      <point x="574" y="714" type="curve" smooth="yes"/>
      <point x="620" y="714"/>
      <point x="635" y="629"/>
      <point x="635" y="360" type="curve" smooth="yes"/>
      <point x="635" y="108"/>
      <point x="592" y="7"/>
      <point x="525" y="7" type="curve" smooth="yes"/>
      <point x="472" y="7"/>
      <point x="438" y="43"/>
      <point x="423" y="135" type="curve"/>
      <point x="405" y="135" type="line"/>
      <point x="389" y="47"/>
      <point x="357" y="11"/>
      <point x="304" y="11" type="curve" smooth="yes"/>
      <point x="236" y="11"/>
      <point x="194" y="116"/>
      <point x="194" y="360" type="curve" smooth="yes"/>
      <point x="194" y="629"/>
      <point x="209" y="714"/>
      <point x="254" y="714" type="curve" smooth="yes"/>
      <point x="285" y="714"/>
      <point x="295" y="673"/>
      <point x="298" y="544" type="curve"/>
      <point x="366" y="546"/>
      <point x="388" y="572"/>
      <point x="388" y="610" type="curve" smooth="yes"/>
      <point x="388" y="691"/>
      <point x="325" y="724"/>
      <point x="261" y="724" type="curve" smooth="yes"/>
      <point x="121" y="724"/>
      <point x="40" y="586"/>
      <point x="40" y="360" type="curve" smooth="yes"/>
      <point x="40" y="139"/>
      <point x="113" y="-10"/>
    </contour>
  </outline>
</glyph>
<glyph name="uniA64E" format="2">
  <advance width="608"/>
  <unicode hex="A64E"/>
  <outline>
    <contour>
      <point x="145" y="0" type="line"/>
      <point x="393" y="0" type="line" smooth="yes"/>
      <point x="543" y="0"/>
      <point x="604" y="86"/>
      <point x="604" y="207" type="curve" smooth="yes"/>
      <point x="604" y="328"/>
      <point x="552" y="402"/>
      <point x="416" y="402" type="curve" smooth="yes"/>
      <point x="355" y="402" type="line"/>
      <point x="355" y="503" type="line" smooth="yes"/>
      <point x="355" y="670"/>
      <point x="288" y="722"/>
      <point x="183" y="722" type="curve" smooth="yes"/>
      <point x="92" y="722"/>
      <point x="47" y="677"/>
      <point x="47" y="620" type="curve" smooth="yes"/>
      <point x="47" y="574"/>
      <point x="79" y="555"/>
      <point x="144" y="553" type="curve"/>
      <point x="144" y="687"/>
      <point x="152" y="712"/>
      <point x="178" y="712" type="curve" smooth="yes"/>
      <point x="202" y="712"/>
      <point x="210" y="692"/>
      <point x="210" y="574" type="curve" smooth="yes"/>
      <point x="210" y="77" type="line" smooth="yes"/>
      <point x="210" y="24"/>
      <point x="200" y="10"/>
      <point x="175" y="10" type="curve" smooth="yes"/>
      <point x="145" y="10" type="line"/>
    </contour>
    <contour>
      <point x="355" y="10" type="line"/>
      <point x="355" y="392" type="line"/>
      <point x="379" y="392" type="line" smooth="yes"/>
      <point x="429" y="392"/>
      <point x="446" y="345"/>
      <point x="446" y="204" type="curve" smooth="yes"/>
      <point x="446" y="58"/>
      <point x="431" y="10"/>
      <point x="380" y="10" type="curve" smooth="yes"/>
    </contour>
  </outline>
</glyph>
<glyph name="uniA653" format="2">
  <advance width="707"/>
  <unicode hex="A653"/>
  <outline>
    <contour>
      <point x="13" y="0" type="line"/>
      <point x="257" y="0" type="line"/>
      <point x="257" y="10" type="line"/>
      <point x="251" y="10" type="line" smooth="yes"/>
      <point x="225" y="10"/>
      <point x="207" y="26"/>
      <point x="207" y="76" type="curve" smooth="yes"/>
      <point x="207" y="373" type="line"/>
      <point x="325" y="373" type="line"/>
      <point x="325" y="74" type="line" smooth="yes"/>
      <point x="325" y="27"/>
      <point x="316" y="10"/>
      <point x="279" y="10" type="curve" smooth="yes"/>
      <point x="276" y="10" type="line"/>
      <point x="276" y="0" type="line"/>
      <point x="529" y="0" type="line" smooth="yes"/>
      <point x="645" y="0"/>
      <point x="701" y="62"/>
      <point x="701" y="154" type="curve" smooth="yes"/>
      <point x="701" y="270"/>
      <point x="625" y="292"/>
      <point x="535" y="292" type="curve" smooth="yes"/>
      <point x="467" y="292" type="line"/>
      <point x="467" y="373" type="line"/>
      <point x="563" y="373" type="line"/>
      <point x="563" y="383" type="line"/>
      <point x="467" y="383" type="line"/>
      <point x="467" y="457" type="line" smooth="yes"/>
      <point x="467" y="501"/>
      <point x="480" y="518"/>
      <point x="519" y="518" type="curve" smooth="yes"/>
      <point x="528" y="518" type="line"/>
      <point x="528" y="536" type="line"/>
      <point x="276" y="536" type="line"/>
      <point x="276" y="526" type="line"/>
      <point x="279" y="526" type="line" smooth="yes"/>
      <point x="315" y="526"/>
      <point x="325" y="511"/>
      <point x="325" y="461" type="curve" smooth="yes"/>
      <point x="325" y="383" type="line"/>
      <point x="207" y="383" type="line"/>
      <point x="207" y="463" type="line" smooth="yes"/>
      <point x="207" y="511"/>
      <point x="223" y="526"/>
      <point x="253" y="526" type="curve" smooth="yes"/>
      <point x="257" y="526" type="line"/>
      <point x="257" y="536" type="line"/>
      <point x="13" y="536" type="line"/>
      <point x="13" y="526" type="line"/>
      <point x="21" y="526" type="line" smooth="yes"/>
      <point x="50" y="526"/>
      <point x="65" y="512"/>
      <point x="65" y="461" type="curve" smooth="yes"/>
      <point x="65" y="76" type="line" smooth="yes"/>
      <point x="65" y="23"/>
      <point x="50" y="10"/>
      <point x="21" y="10" type="curve" smooth="yes"/>
      <point x="13" y="10" type="line"/>
    </contour>
    <contour>
      <point x="467" y="10" type="line"/>
      <point x="467" y="282" type="line"/>
      <point x="492" y="282" type="line" smooth="yes"/>
      <point x="536" y="282"/>
      <point x="557" y="245"/>
      <point x="557" y="160" type="curve" smooth="yes"/>
      <point x="557" y="58"/>
      <point x="536" y="10"/>
      <point x="492" y="10" type="curve" smooth="yes"/>
    </contour>
  </outline>
</glyph>
<glyph name="uniA65C" format="2">
  <advance width="882"/>
  <unicode hex="A65C"/>
  <outline>
    <contour>
      <point x="16" y="0" type="line"/>
      <point x="279" y="0" type="line"/>
      <point x="279" y="10" type="line"/>
      <point x="252" y="10" type="line" smooth="yes"/>
      <point x="232" y="10"/>
      <point x="228" y="16"/>
      <point x="228" y="68" type="curve" smooth="yes"/>
      <point x="228" y="368" type="line"/>
      <point x="468" y="368" type="line"/>
      <point x="401" y="83" type="line" smooth="yes"/>
      <point x="389" y="31"/>
      <point x="382" y="10"/>
      <point x="342" y="10" type="curve" smooth="yes"/>
      <point x="318" y="10" type="line"/>
      <point x="318" y="0" type="line"/>
      <point x="882" y="0" type="line"/>
      <point x="882" y="10" type="line"/>
      <point x="869" y="10" type="line" smooth="yes"/>
      <point x="841" y="10"/>
      <point x="838" y="22"/>
      <point x="826" y="69" type="curve" smooth="yes"/>
      <point x="668" y="714" type="line"/>
      <point x="548" y="714" type="line"/>
      <point x="470" y="378" type="line"/>
      <point x="228" y="378" type="line"/>
      <point x="228" y="648" type="line" smooth="yes"/>
      <point x="228" y="694"/>
      <point x="232" y="704"/>
      <point x="252" y="704" type="curve" smooth="yes"/>
      <point x="279" y="704" type="line"/>
      <point x="279" y="714" type="line"/>
      <point x="16" y="714" type="line"/>
      <point x="16" y="704" type="line"/>
      <point x="47" y="704" type="line" smooth="yes"/>
      <point x="79" y="704"/>
      <point x="81" y="692"/>
      <point x="81" y="644" type="curve" smooth="yes"/>
      <point x="81" y="68" type="line" smooth="yes"/>
      <point x="81" y="16"/>
      <point x="79" y="10"/>
      <point x="54" y="10" type="curve" smooth="yes"/>
      <point x="16" y="10" type="line"/>
    </contour>
    <contour>
      <point x="395" y="10" type="line"/>
      <point x="479" y="368" type="line"/>
      <point x="617" y="368" type="line"/>
      <point x="690" y="10" type="line"/>
    </contour>
    <contour>
      <point x="481" y="378" type="line"/>
      <point x="543" y="622" type="line" smooth="yes"/>
      <point x="546" y="640"/>
      <point x="546" y="655"/>
      <point x="552" y="694" type="curve"/>
      <point x="555" y="657"/>
      <point x="556" y="652"/>
      <point x="561" y="620" type="curve" smooth="yes"/>
      <point x="615" y="378" type="line"/>
    </contour>
  </outline>
</glyph>
<glyph name="uniA665" format="2">
  <advance width="620"/>
  <unicode hex="A665"/>
  <outline>
    <contour>
      <point x="73" y="-7" type="curve" smooth="yes"/>
      <point x="132" y="-7"/>
      <point x="167" y="32"/>
      <point x="186" y="156" type="curve" smooth="yes"/>
      <point x="196" y="235"/>
      <point x="214" y="328"/>
      <point x="228" y="526" type="curve"/>
      <point x="292" y="526" type="line"/>
      <point x="292" y="76" type="line" smooth="yes"/>
      <point x="292" y="31"/>
      <point x="296" y="10"/>
      <point x="233" y="10" type="curve" smooth="yes"/>
      <point x="239" y="10" type="line"/>
      <point x="239" y="0" type="line"/>
      <point x="486" y="0" type="line"/>
      <point x="486" y="10" type="line"/>
      <point x="491" y="10" type="line" smooth="yes"/>
      <point x="427" y="10"/>
      <point x="434" y="31"/>
      <point x="434" y="76" type="curve" smooth="yes"/>
      <point x="434" y="526" type="line"/>
      <point x="539" y="526" type="line" smooth="yes"/>
      <point x="558" y="526"/>
      <point x="579" y="495"/>
      <point x="591" y="395" type="curve" smooth="yes"/>
      <point x="595" y="350" type="line"/>
      <point x="605" y="350" type="line"/>
      <point x="594" y="536" type="line"/>
      <point x="102" y="536" type="line"/>
      <point x="102" y="526" type="line"/>
      <point x="153" y="526" type="line" smooth="yes"/>
      <point x="176" y="526"/>
      <point x="209" y="523"/>
      <point x="209" y="433" type="curve" smooth="yes"/>
      <point x="209" y="383"/>
      <point x="186" y="229"/>
      <point x="173" y="176" type="curve" smooth="yes"/>
      <point x="154" y="87"/>
      <point x="132" y="81"/>
      <point x="89" y="81" type="curve" smooth="yes"/>
      <point x="63" y="81"/>
      <point x="42" y="95"/>
      <point x="36" y="126" type="curve"/>
      <point x="13" y="128"/>
      <point x="2" y="99"/>
      <point x="2" y="69" type="curve" smooth="yes"/>
      <point x="2" y="22"/>
      <point x="26" y="-7"/>
    </contour>
  </outline>
</glyph>
<glyph name="uniA666" format="2">
  <advance width="846"/>
  <unicode hex="A666"/>
  <outline>
    <contour>
      <point x="16" y="0" type="line"/>
      <point x="204" y="0" type="line"/>
      <point x="204" y="10" type="line"/>
      <point x="166" y="10" type="line" smooth="yes"/>
      <point x="132" y="10"/>
      <point x="111" y="17"/>
      <point x="111" y="75" type="curve" smooth="yes"/>
      <point x="111" y="678" type="line"/>
      <point x="238" y="0" type="line"/>
      <point x="342" y="0" type="line"/>
      <point x="472" y="688" type="line"/>
      <point x="472" y="76" type="line" smooth="yes"/>
      <point x="472" y="24"/>
      <point x="462" y="10"/>
      <point x="432" y="10" type="curve" smooth="yes"/>
      <point x="420" y="10" type="line"/>
      <point x="420" y="0" type="line"/>
      <point x="680" y="0" type="line"/>
      <point x="680" y="10" type="line"/>
      <point x="651" y="10" type="line" smooth="yes"/>
      <point x="626" y="10"/>
      <point x="616" y="24"/>
      <point x="616" y="67" type="curve" smooth="yes"/>
      <point x="616" y="704" type="line"/>
      <point x="668" y="704" type="line" smooth="yes"/>
      <point x="783" y="704"/>
      <point x="824" y="671"/>
      <point x="828" y="571" type="curve" smooth="yes"/>
      <point x="830" y="532" type="line"/>
      <point x="840" y="532" type="line"/>
      <point x="833" y="714" type="line"/>
      <point x="466" y="714" type="line"/>
      <point x="333" y="57" type="line"/>
      <point x="220" y="714" type="line"/>
      <point x="16" y="714" type="line"/>
      <point x="16" y="704" type="line"/>
      <point x="70" y="704" type="line" smooth="yes"/>
      <point x="86" y="704"/>
      <point x="101" y="690"/>
      <point x="101" y="644" type="curve" smooth="yes"/>
      <point x="101" y="70" type="line" smooth="yes"/>
      <point x="101" y="23"/>
      <point x="86" y="10"/>
      <point x="59" y="10" type="curve" smooth="yes"/>
      <point x="16" y="10" type="line"/>
    </contour>
  </outline>
</glyph>
<glyph name="uniA67C" format="2">
  <unicode hex="A67C"/>
  <anchor x="-2" y="536" name="_top"/>
  <outline>
    <contour>
      <point x="0" y="645" type="curve" smooth="yes"/>
      <point x="100" y="645"/>
      <point x="147" y="700"/>
      <point x="169" y="813" type="curve"/>
      <point x="159" y="813" type="line"/>
      <point x="117" y="733"/>
      <point x="101" y="701"/>
      <point x="0" y="701" type="curve" smooth="yes"/>
      <point x="-107" y="701"/>
      <point x="-120" y="733"/>
      <point x="-161" y="813" type="curve"/>
      <point x="-171" y="813" type="line"/>
      <point x="-146" y="700"/>
      <point x="-96" y="645"/>
    </contour>
  </outline>
</glyph>
<glyph name="uniA684" format="2">
  <advance width="1016"/>
  <unicode hex="A684"/>
  <outline>
    <contour>
      <point x="203" y="-11" type="curve" smooth="yes"/>
      <point x="313" y="-11"/>
      <point x="441" y="40"/>
      <point x="441" y="197" type="curve" smooth="yes"/>
      <point x="441" y="288"/>
      <point x="406" y="340"/>
      <point x="335" y="361" type="curve"/>
      <point x="565" y="361" type="line"/>
      <point x="565" y="78" type="line" smooth="yes"/>
      <point x="565" y="16"/>
      <point x="543" y="10"/>
      <point x="519" y="10" type="curve" smooth="yes"/>
      <point x="499" y="10" type="line"/>
      <point x="499" y="0" type="line"/>
      <point x="760" y="0" type="line"/>
      <point x="760" y="10" type="line"/>
      <point x="737" y="10" type="line" smooth="yes"/>
      <point x="714" y="10"/>
      <point x="691" y="19"/>
      <point x="691" y="78" type="curve" smooth="yes"/>
      <point x="691" y="352" type="line"/>
      <point x="702" y="352"/>
      <point x="709" y="359"/>
      <point x="748" y="266" type="curve" smooth="yes"/>
      <point x="819" y="92" type="line" smooth="yes"/>
      <point x="855" y="6"/>
      <point x="882" y="0"/>
      <point x="992" y="0" type="curve" smooth="yes"/>
      <point x="1016" y="0" type="line"/>
      <point x="1016" y="10" type="line"/>
      <point x="1014" y="10" type="line" smooth="yes"/>
      <point x="983" y="10"/>
      <point x="984" y="46"/>
      <point x="951" y="132" type="curve" smooth="yes"/>
      <point x="923" y="204" type="line" smooth="yes"/>
      <point x="874" y="325"/>
      <point x="831" y="349"/>
      <point x="704" y="349" type="curve"/>
      <point x="776" y="369"/>
      <point x="783" y="438"/>
      <point x="812" y="509" type="curve" smooth="yes"/>
      <point x="865" y="631"/>
      <point x="901" y="635"/>
      <point x="917" y="635" type="curve" smooth="yes"/>
      <point x="959" y="635"/>
      <point x="967" y="603"/>
      <point x="969" y="583" type="curve"/>
      <point x="991" y="585"/>
      <point x="1004" y="613"/>
      <point x="1004" y="645" type="curve" smooth="yes"/>
      <point x="1004" y="692"/>
      <point x="977" y="720"/>
      <point x="935" y="720" type="curve" smooth="yes"/>
      <point x="871" y="720"/>
      <point x="835" y="659"/>
      <point x="813" y="557" type="curve" smooth="yes"/>
      <point x="790" y="474"/>
      <point x="781" y="429"/>
      <point x="749" y="390" type="curve" smooth="yes"/>
      <point x="733" y="370"/>
      <point x="712" y="362"/>
      <point x="691" y="362" type="curve"/>
      <point x="691" y="636" type="line" smooth="yes"/>
      <point x="691" y="695"/>
      <point x="717" y="704"/>
      <point x="739" y="704" type="curve" smooth="yes"/>
      <point x="760" y="704" type="line"/>
      <point x="760" y="714" type="line"/>
      <point x="499" y="714" type="line"/>
      <point x="499" y="704" type="line"/>
      <point x="519" y="704" type="line" smooth="yes"/>
      <point x="543" y="704"/>
      <point x="565" y="695"/>
      <point x="565" y="633" type="curve" smooth="yes"/>
      <point x="565" y="371" type="line"/>
      <point x="247" y="371" type="line"/>
      <point x="367" y="390"/>
      <point x="421" y="462"/>
      <point x="421" y="560" type="curve" smooth="yes"/>
      <point x="421" y="690"/>
      <point x="314" y="724"/>
      <point x="216" y="724" type="curve" smooth="yes"/>
      <point x="111" y="724"/>
      <point x="40" y="666"/>
      <point x="40" y="585" type="curve" smooth="yes"/>
      <point x="40" y="546"/>
      <point x="62" y="510"/>
      <point x="155" y="510" type="curve"/>
      <point x="155" y="658"/>
      <point x="175" y="714"/>
      <point x="221" y="714" type="curve" smooth="yes"/>
      <point x="268" y="714"/>
      <point x="284" y="670"/>
      <point x="284" y="548" type="curve" smooth="yes"/>
      <point x="284" y="423"/>
      <point x="268" y="374"/>
      <point x="218" y="374" type="curve" smooth="yes"/>
      <point x="108" y="374" type="line"/>
      <point x="108" y="364" type="line"/>
      <point x="197" y="364" type="line" smooth="yes"/>
      <point x="279" y="364"/>
      <point x="306" y="334"/>
      <point x="306" y="200" type="curve" smooth="yes"/>
      <point x="306" y="50"/>
      <point x="282" y="-1"/>
      <point x="205" y="-1" type="curve" smooth="yes"/>
      <point x="136" y="-1"/>
      <point x="107" y="62"/>
      <point x="105" y="223" type="curve"/>
      <point x="49" y="223"/>
      <point x="14" y="191"/>
      <point x="14" y="130" type="curve" smooth="yes"/>
      <point x="14" y="62"/>
      <point x="66" y="-11"/>
    </contour>
  </outline>
</glyph>
<glyph name="uniA689" format="2">
  <advance width="515"/>
  <unicode hex="A689"/>
  <outline>
    <contour>
      <point x="422" y="-250" type="curve" smooth="yes"/>
      <point x="493" y="-250"/>
      <point x="522" y="-226"/>
      <point x="522" y="-172" type="curve" smooth="yes"/>
      <point x="522" y="-135"/>
      <point x="500" y="-110"/>
      <point x="459" y="-106" type="curve"/>
      <point x="497" y="-101"/>
      <point x="517" y="-80"/>
      <point x="517" y="-45" type="curve" smooth="yes"/>
      <point x="517" y="-8"/>
      <point x="488" y="11"/>
      <point x="432" y="11" type="curve" smooth="yes"/>
      <point x="397" y="11"/>
      <point x="383" y="15"/>
      <point x="383" y="88" type="curve" smooth="yes"/>
      <point x="383" y="452" type="line" smooth="yes"/>
      <point x="383" y="508"/>
      <point x="394" y="526"/>
      <point x="426" y="526" type="curve" smooth="yes"/>
      <point x="442" y="526" type="line"/>
      <point x="442" y="536" type="line"/>
      <point x="71" y="536" type="line"/>
      <point x="71" y="528" type="line"/>
      <point x="97" y="528" type="line" smooth="yes"/>
      <point x="126" y="528"/>
      <point x="131" y="510"/>
      <point x="131" y="473" type="curve" smooth="yes"/>
      <point x="131" y="417"/>
      <point x="120" y="323"/>
      <point x="103" y="228" type="curve" smooth="yes"/>
      <point x="91" y="146"/>
      <point x="72" y="62"/>
      <point x="56" y="10" type="curve"/>
      <point x="1" y="10" type="line"/>
      <point x="1" y="-210" type="line"/>
      <point x="11" y="-210" type="line"/>
      <point x="17" y="-143" type="line" smooth="yes"/>
      <point x="27" y="-34"/>
      <point x="59" y="0"/>
      <point x="153" y="0" type="curve" smooth="yes"/>
      <point x="412" y="0" type="line" smooth="yes"/>
      <point x="444" y="0"/>
      <point x="460" y="-16"/>
      <point x="460" y="-51" type="curve" smooth="yes"/>
      <point x="460" y="-86"/>
      <point x="447" y="-102"/>
      <point x="418" y="-102" type="curve" smooth="yes"/>
      <point x="391" y="-102" type="line"/>
      <point x="391" y="-112" type="line"/>
      <point x="417" y="-112" type="line" smooth="yes"/>
      <point x="450" y="-112"/>
      <point x="463" y="-131"/>
      <point x="463" y="-177" type="curve" smooth="yes"/>
      <point x="463" y="-218"/>
      <point x="452" y="-240"/>
      <point x="425" y="-240" type="curve" smooth="yes"/>
      <point x="402" y="-240"/>
      <point x="386" y="-215"/>
      <point x="386" y="-150" type="curve"/>
      <point x="359" y="-150"/>
      <point x="343" y="-164"/>
      <point x="343" y="-193" type="curve" smooth="yes"/>
      <point x="343" y="-233"/>
      <point x="389" y="-250"/>
    </contour>
    <contour>
      <point x="68" y="10" type="line"/>
      <point x="85" y="78"/>
      <point x="100" y="150"/>
      <point x="112" y="226" type="curve" smooth="yes"/>
      <point x="126" y="321"/>
      <point x="136" y="419"/>
      <point x="147" y="526" type="curve"/>
      <point x="233" y="526" type="line"/>
      <point x="233" y="10" type="line"/>
    </contour>
  </outline>
</glyph>
<glyph name="uniA68A" format="2">
  <advance width="649"/>
  <unicode hex="A68A"/>
  <outline>
    <contour>
      <point x="380" y="-236" type="line"/>
      <point x="400" y="-236" type="line" smooth="yes"/>
      <point x="517" y="-236"/>
      <point x="604" y="-181"/>
      <point x="604" y="-10" type="curve" smooth="yes"/>
      <point x="604" y="202" type="line" smooth="yes"/>
      <point x="604" y="370"/>
      <point x="549" y="438"/>
      <point x="429" y="438" type="curve" smooth="yes"/>
      <point x="381" y="438"/>
      <point x="333" y="421"/>
      <point x="306" y="409" type="curve"/>
      <point x="306" y="704" type="line"/>
      <point x="291" y="704" type="line" smooth="yes"/>
      <point x="407" y="704"/>
      <point x="446" y="671"/>
      <point x="451" y="571" type="curve" smooth="yes"/>
      <point x="454" y="529" type="line"/>
      <point x="464" y="529" type="line"/>
      <point x="457" y="714" type="line"/>
      <point x="8" y="714" type="line"/>
      <point x="1" y="529" type="line"/>
      <point x="11" y="529" type="line"/>
      <point x="14" y="571" type="line" smooth="yes"/>
      <point x="21" y="671"/>
      <point x="58" y="704"/>
      <point x="174" y="704" type="curve" smooth="yes"/>
      <point x="159" y="704" type="line"/>
      <point x="159" y="76" type="line" smooth="yes"/>
      <point x="159" y="31"/>
      <point x="155" y="10"/>
      <point x="116" y="10" type="curve" smooth="yes"/>
      <point x="84" y="10" type="line"/>
      <point x="84" y="0" type="line"/>
      <point x="382" y="0" type="line"/>
      <point x="382" y="10" type="line"/>
      <point x="350" y="10" type="line" smooth="yes"/>
      <point x="310" y="10"/>
      <point x="306" y="32"/>
      <point x="306" y="78" type="curve" smooth="yes"/>
      <point x="306" y="397" type="line"/>
      <point x="321" y="406"/>
      <point x="351" y="422"/>
      <point x="383" y="422" type="curve" smooth="yes"/>
      <point x="422" y="422"/>
      <point x="457" y="395"/>
      <point x="457" y="302" type="curve" smooth="yes"/>
      <point x="457" y="-67" type="line" smooth="yes"/>
      <point x="457" y="-182"/>
      <point x="425" y="-226"/>
      <point x="384" y="-226" type="curve" smooth="yes"/>
      <point x="380" y="-226" type="line"/>
    </contour>
  </outline>
</glyph>
<glyph name="uniA68E" format="2">
  <advance width="629"/>
  <unicode hex="A68E"/>
  <outline>
    <contour>
      <point x="192" y="-240" type="curve" smooth="yes"/>
      <point x="485" y="-240" type="line" smooth="yes"/>
      <point x="591" y="-240"/>
      <point x="644" y="-200"/>
      <point x="644" y="-108" type="curve" smooth="yes"/>
      <point x="644" y="-44"/>
      <point x="611" y="-20"/>
      <point x="583" y="-6" type="curve" smooth="yes"/>
      <point x="540" y="16"/>
      <point x="529" y="17"/>
      <point x="529" y="78" type="curve" smooth="yes"/>
      <point x="529" y="639" type="line" smooth="yes"/>
      <point x="529" y="684"/>
      <point x="534" y="704"/>
      <point x="572" y="704" type="curve" smooth="yes"/>
      <point x="595" y="704" type="line"/>
      <point x="595" y="714" type="line"/>
      <point x="331" y="714" type="line"/>
      <point x="331" y="704" type="line"/>
      <point x="345" y="704" type="line" smooth="yes"/>
      <point x="376" y="704"/>
      <point x="383" y="684"/>
      <point x="383" y="639" type="curve" smooth="yes"/>
      <point x="383" y="10" type="line"/>
      <point x="226" y="10" type="line"/>
      <point x="226" y="639" type="line" smooth="yes"/>
      <point x="226" y="684"/>
      <point x="231" y="704"/>
      <point x="268" y="704" type="curve" smooth="yes"/>
      <point x="279" y="704" type="line"/>
      <point x="279" y="714" type="line"/>
      <point x="16" y="714" type="line"/>
      <point x="16" y="704" type="line"/>
      <point x="40" y="704" type="line" smooth="yes"/>
      <point x="77" y="704"/>
      <point x="81" y="685"/>
      <point x="81" y="644" type="curve" smooth="yes"/>
      <point x="81" y="75" type="line" smooth="yes"/>
      <point x="81" y="30"/>
      <point x="77" y="10"/>
      <point x="40" y="10" type="curve" smooth="yes"/>
      <point x="16" y="10" type="line"/>
      <point x="16" y="0" type="line"/>
      <point x="485" y="0" type="line" smooth="yes"/>
      <point x="597" y="0"/>
      <point x="632" y="-41"/>
      <point x="632" y="-111" type="curve" smooth="yes"/>
      <point x="632" y="-197"/>
      <point x="582" y="-230"/>
      <point x="478" y="-230" type="curve" smooth="yes"/>
      <point x="194" y="-230" type="line" smooth="yes"/>
      <point x="141" y="-230"/>
      <point x="114" y="-211"/>
      <point x="114" y="-173" type="curve" smooth="yes"/>
      <point x="114" y="-135"/>
      <point x="141" y="-115"/>
      <point x="194" y="-115" type="curve" smooth="yes"/>
      <point x="441" y="-115" type="line"/>
      <point x="441" y="-105" type="line"/>
      <point x="192" y="-105" type="line" smooth="yes"/>
      <point x="133" y="-105"/>
      <point x="102" y="-128"/>
      <point x="102" y="-173" type="curve" smooth="yes"/>
      <point x="102" y="-217"/>
      <point x="133" y="-240"/>
    </contour>
  </outline>
</glyph>
<glyph name="uniA690" format="2">
  <advance width="494"/>
  <unicode hex="A690"/>
  <outline>
    <contour>
      <point x="148" y="-174" type="curve" smooth="yes"/>
      <point x="164" y="-174"/>
      <point x="193" y="-170"/>
      <point x="211" y="-162" type="curve"/>
      <point x="211" y="-152" type="line"/>
      <point x="195" y="-158"/>
      <point x="178" y="-161"/>
      <point x="168" y="-161" type="curve" smooth="yes"/>
      <point x="126" y="-161"/>
      <point x="101" y="-138"/>
      <point x="101" y="-84" type="curve" smooth="yes"/>
      <point x="101" y="-42"/>
      <point x="125" y="0"/>
      <point x="184" y="0" type="curve" smooth="yes"/>
      <point x="389" y="0" type="line"/>
      <point x="389" y="10" type="line"/>
      <point x="365" y="10" type="line" smooth="yes"/>
      <point x="325" y="10"/>
      <point x="321" y="32"/>
      <point x="321" y="78" type="curve" smooth="yes"/>
      <point x="321" y="704" type="line"/>
      <point x="319" y="704" type="line" smooth="yes"/>
      <point x="425" y="704"/>
      <point x="474" y="663"/>
      <point x="479" y="571" type="curve" smooth="yes"/>
      <point x="482" y="529" type="line"/>
      <point x="492" y="529" type="line"/>
      <point x="485" y="714" type="line"/>
      <point x="8" y="714" type="line"/>
      <point x="1" y="529" type="line"/>
      <point x="11" y="529" type="line"/>
      <point x="14" y="571" type="line" smooth="yes"/>
      <point x="21" y="663"/>
      <point x="68" y="704"/>
      <point x="174" y="704" type="curve" smooth="yes"/>
      <point x="174" y="704" type="line"/>
      <point x="174" y="76" type="line" smooth="yes"/>
      <point x="174" y="30"/>
      <point x="164" y="11"/>
      <point x="131" y="6" type="curve" smooth="yes"/>
      <point x="63" y="-6"/>
      <point x="27" y="-37"/>
      <point x="27" y="-88" type="curve" smooth="yes"/>
      <point x="27" y="-142"/>
      <point x="70" y="-174"/>
    </contour>
  </outline>
</glyph>
<glyph name="uniA71E" format="2">
  <advance width="256"/>
  <unicode hex="A71E"/>
  <outline>
    <contour>
      <point x="65" y="308" type="line"/>
      <point x="193" y="308" type="line"/>
      <point x="137" y="679" type="line"/>
      <point x="122" y="679" type="line"/>
    </contour>
    <contour>
      <point x="130" y="746" type="curve" smooth="yes"/>
      <point x="158" y="746"/>
      <point x="177" y="762"/>
      <point x="177" y="814" type="curve" smooth="yes"/>
      <point x="177" y="865"/>
      <point x="158" y="882"/>
      <point x="130" y="882" type="curve" smooth="yes"/>
      <point x="104" y="882"/>
      <point x="83" y="865"/>
      <point x="83" y="814" type="curve" smooth="yes"/>
      <point x="83" y="762"/>
      <point x="104" y="746"/>
    </contour>
  </outline>
</glyph>
<glyph name="uniA71F" format="2">
  <advance width="258"/>
  <unicode hex="A71F"/>
  <outline>
    <contour>
      <point x="64" y="151" type="line"/>
      <point x="192" y="151" type="line"/>
      <point x="136" y="522" type="line"/>
      <point x="121" y="522" type="line"/>
    </contour>
    <contour>
      <point x="129" y="590" type="curve" smooth="yes"/>
      <point x="157" y="590"/>
      <point x="176" y="606"/>
      <point x="176" y="657" type="curve" smooth="yes"/>
      <point x="176" y="708"/>
      <point x="157" y="725"/>
      <point x="129" y="725" type="curve" smooth="yes"/>
      <point x="104" y="725"/>
      <point x="83" y="708"/>
      <point x="83" y="657" type="curve" smooth="yes"/>
      <point x="83" y="606"/>
      <point x="104" y="590"/>
    </contour>
  </outline>
</glyph>
